<?xml version="1.0" encoding="utf-8"?>
<!-- Generator: Adobe Illustrator 27.4.1, SVG Export Plug-In . SVG Version: 6.00 Build 0)  -->
<svg version="1.1" id="Layer_2" xmlns="http://www.w3.org/2000/svg" xmlns:xlink="http://www.w3.org/1999/xlink" x="0px" y="0px"
	 viewBox="0 0 131.05 97.06" style="enable-background:new 0 0 131.05 97.06;" xml:space="preserve">
<style type="text/css">
	.st0{fill:#009E9C;stroke:#004545;stroke-width:5;stroke-miterlimit:10;}
	.st1{fill:#2CF0D6;}
	.st2{fill:none;stroke:#004545;stroke-width:5;stroke-miterlimit:10;}
	.st3{fill:none;stroke:#004545;stroke-width:3;stroke-miterlimit:10;}
	.st4{fill:#009E9C;stroke:#004545;stroke-width:3;stroke-miterlimit:10;}
	.st5{fill:#92FFEA;}
</style>
<path class="st0" d="M120.46,94.56H10.58c-4.47,0-8.08-3.62-8.08-8.08V10.58c0-4.47,3.62-8.08,8.08-8.08h109.88
	c4.47,0,8.08,3.62,8.08,8.08v75.89C128.55,90.94,124.93,94.56,120.46,94.56z"/>
<path class="st1" d="M30.69,4.22c-0.46,1.67-1.12,4.79-0.34,8.34c3.48,15.93,31.81,23.06,48.85,24.17
	c9.97,0.65,18.63-0.6,25.36-2.21l-12.65,8.27l-17.8,13.38l-6.84,4.43l-5.44-0.89L1.81,13.94l3.39-9.37l26.34-0.35"/>
<path class="st1" d="M3.85,24.48c4.76,8.52,11.18,17.63,19.91,26.21c37.76,37.13,90.04,36.32,104.85,35.57L122,94.56L6.23,93.92
	l-5.05-4.77V24.48H3.85z"/>
<path class="st2" d="M120.46,94.56H10.58c-4.47,0-8.08-3.62-8.08-8.08V10.58c0-4.47,3.62-8.08,8.08-8.08h109.88
	c4.47,0,8.08,3.62,8.08,8.08v75.89C128.55,90.94,124.93,94.56,120.46,94.56z"/>
<path class="st3" d="M2.5,15.24l58.16,43.73c2.88,2.17,6.85,2.17,9.73,0l58.16-43.73"/>
<line class="st4" x1="4.53" y1="91.82" x2="41.87" y2="44.84"/>
<line class="st4" x1="126.52" y1="91.82" x2="89.17" y2="44.84"/>
<path class="st5" d="M49.24,35.03c3.13,1.58,8.83,4.47,15.15,5.79c9.89,2.07,15.8-0.85,16.34,0.68c0.66,1.87-7.3,8.76-16.34,8.34
	c-5.48-0.26-9.24-3.94-16.51-10.55c-3.89-3.54-8.4-8.34-7.83-9.02C40.48,29.74,43.49,32.12,49.24,35.03z"/>
</svg>
