<?xml version="1.0" encoding="utf-8"?>
<!-- Generator: Adobe Illustrator 27.4.1, SVG Export Plug-In . SVG Version: 6.00 Build 0)  -->
<svg version="1.1" id="Layer_1" xmlns="http://www.w3.org/2000/svg" xmlns:xlink="http://www.w3.org/1999/xlink" x="0px" y="0px"
	 viewBox="0 0 139.88 110.64" style="enable-background:new 0 0 139.88 110.64;" xml:space="preserve">
<style type="text/css">
	.st0{fill:#009E9C;}
	.st1{fill:#2CF0D6;}
	.st2{fill:none;stroke:#004544;stroke-width:5;stroke-miterlimit:10;}
</style>
<path class="st0" d="M7.25,106.06l10.44-60.15c0.34-1.94,1.91-3.42,3.86-3.65l64.43-7.55c1.32-0.15,2.51-0.9,3.22-2.02l6.41-10.01
	c0.75-1.17,2-1.92,3.38-2.03l27.96-2.29c1.87-0.15,3.64,0.89,4.41,2.6l5.65,12.51c0.45,0.99,0.52,2.11,0.19,3.15l-17.72,56.7
	c-0.53,1.68-1.99,2.89-3.74,3.09L11.48,108.11c-2.54,0.29-4.8-1.63-4.93-4.18L2.51,25.47c-0.05-0.89,0.18-1.77,0.64-2.53l9.04-14.92
	c0.73-1.2,1.98-1.99,3.38-2.12l36.26-3.38c1.5-0.14,2.98,0.49,3.91,1.68l6.85,8.76c0.92,1.17,2.36,1.81,3.84,1.69l47.96-3.76
	c2.76-0.22,5.04,2.12,4.76,4.87l-0.33,3.27"/>
<path class="st1" d="M5.89,107.33l10.44-60.15c0.34-1.94,1.91-3.42,3.86-3.65l64.43-7.55c1.32-0.15,2.51-0.9,3.22-2.02l6.41-10.01
	c0.75-1.17,2-1.92,3.38-2.03l27.96-2.29c1.87-0.15,3.64,0.89,4.41,2.6l5.65,12.51c0.45,0.99,0.52,2.11,0.19,3.15l-17.72,56.7
	c-0.53,1.68-1.99,2.89-3.74,3.09L10.13,109.38c-2.54,0.29-4.8-1.63-4.93-4.18"/>
<path class="st2" d="M7.25,106.06l10.44-60.15c0.34-1.94,1.91-3.42,3.86-3.65l64.43-7.55c1.32-0.15,2.51-0.9,3.22-2.02l6.41-10.01
	c0.75-1.17,2-1.92,3.38-2.03l27.96-2.29c1.87-0.15,3.64,0.89,4.41,2.6l5.65,12.51c0.45,0.99,0.52,2.11,0.19,3.15l-17.72,56.7
	c-0.53,1.68-1.99,2.89-3.74,3.09L11.48,108.11c-2.54,0.29-4.8-1.63-4.93-4.18L2.51,25.47c-0.05-0.89,0.18-1.77,0.64-2.53l9.04-14.92
	c0.73-1.2,1.98-1.99,3.38-2.12l36.26-3.38c1.5-0.14,2.98,0.49,3.91,1.68l6.85,8.76c0.92,1.17,2.36,1.81,3.84,1.69l47.96-3.76
	c2.76-0.22,5.04,2.12,4.76,4.87l-0.33,3.27"/>
</svg>
