<?xml version="1.0" encoding="utf-8"?>
<!-- Generator: Adobe Illustrator 27.4.1, SVG Export Plug-In . SVG Version: 6.00 Build 0)  -->
<svg version="1.1" id="Layer_1" xmlns="http://www.w3.org/2000/svg" xmlns:xlink="http://www.w3.org/1999/xlink" x="0px" y="0px"
	 viewBox="0 0 148.34 131.18" style="enable-background:new 0 0 148.34 131.18;" xml:space="preserve">
<style type="text/css">
	.st0{fill:#808080;}
	.st1{fill:#808080;stroke:#424242;stroke-width:5;stroke-miterlimit:10;}
	.st2{fill:#959595;stroke:#424242;stroke-width:3;stroke-miterlimit:10;}
	.st3{fill:#999999;stroke:#3F3F3F;stroke-width:3;stroke-miterlimit:10;}
	.st4{fill:#616161;stroke:#3F3F3F;stroke-width:3;stroke-miterlimit:10;}
	.st5{fill:#9C9C9C;stroke:#3F3F3F;stroke-width:3;stroke-miterlimit:10;}
	.st6{fill:#B0B0B0;stroke:#3F3F3F;stroke-width:3;stroke-miterlimit:10;}
</style>
<path class="st0" d="M104.35,65.86c-4.55-5.59-7.52-13.83-8-19.82c-0.96-12.07,0.4-18.23-2.68-26.38
	C87.84,4.22,77.73,1.28,59.15,2.89c-4.07,0.35-10.65,1.49-14.6,2.57C33.45,8.51,14.87,16.42,4.28,62.89
	c-6.69,29.37,6.6,46.48,21.57,56.24c14.93,9.74,32,11.07,50.67,8.26c21-3.17,47.03-12.5,46.75-29.54
	C123.04,83.53,110.18,73.03,104.35,65.86z M86.48,84.83c-6.85,2.76-15.6-2.94-19.53-12.72c-3.93-9.78-1.57-19.95,5.29-22.7
	s15.6,2.94,19.53,12.72C95.7,71.91,93.34,82.07,86.48,84.83z"/>
<path class="st1" d="M104.35,65.86c-4.55-5.59-7.52-13.83-8-19.82c-0.96-12.07,0.4-18.23-2.68-26.38
	C87.84,4.22,77.73,1.28,59.15,2.89c-4.07,0.35-10.65,1.49-14.6,2.57C33.45,8.51,14.87,16.42,4.28,62.89
	c-6.69,29.37,6.6,46.48,21.57,56.24c14.93,9.74,32,11.07,50.67,8.26c21-3.17,47.03-12.5,46.75-29.54
	C123.04,83.53,110.18,73.03,104.35,65.86z M86.48,84.83c-6.85,2.76-15.6-2.94-19.53-12.72c-3.93-9.78-1.57-19.95,5.29-22.7
	s15.6,2.94,19.53,12.72C95.7,71.91,93.34,82.07,86.48,84.83z"/>
<path class="st2" d="M132.15,31.27c0,0-25.48,20.55-39.26,34.33S74.98,81.98,74.98,81.98l-2.62-2.88c0,0,43.87-51.66,49.94-57.77
	l0,0L132.15,31.27"/>
<path class="st3" d="M22.57,87.96c0,0,1.39,14.22,9.06,13.94c7.67-0.28,4.46-4.32,8.23-2.65s10.74-2.51,8.78-6.27
	c-1.95-3.76-8.65-5.58-9.34-8.23c-0.7-2.65-8.76-4.83-11.99-3.63C22.44,82.94,21.78,83.7,22.57,87.96z"/>
<path class="st4" d="M83.17,100.8c0,0-10.84-9.31-16.19-3.81c-5.35,5.5-0.24,6.21-4.11,7.6c-3.88,1.39-6.02,9.24-2.01,10.61
	c4.01,1.37,10.1-1.95,12.44-0.51c2.34,1.43,9.67-2.56,11.17-5.67C86.73,104.34,86.69,103.33,83.17,100.8z"/>
<path class="st5" d="M43.47,61.64c0,0,2.35-14.1-5.13-15.82s-5.43,3.01-8.63,0.42c-3.2-2.59-11.02-0.37-10.11,3.78
	c0.91,4.14,6.9,7.63,6.88,10.37s7.2,6.94,10.64,6.62C42.29,66.52,43.13,65.97,43.47,61.64z"/>
<path class="st6" d="M45.34,31.96c0,0,10.28,9.93,15.94,4.74s0.6-6.18,4.55-7.35c3.95-1.17,6.55-8.87,2.62-10.47
	s-10.2,1.36-12.45-0.21c-2.25-1.57-9.8,2-11.48,5.01C41.99,28.22,41.98,29.22,45.34,31.96z"/>
<path class="st2" d="M130.44,29.54c1.12,1.13,2.78,1.56,4.29,1.09c8.49-2.67,9-9.16,7.95-11.41c-1.05-2.24,3.35-12.5,4.14-14.33
	c0.02-0.06-0.05-0.1-0.09-0.05c-4.6,4.75-11.52,1.43-16.85,2.73c-3.9,0.95-6.13,7.69-7.06,11.38c-0.37,1.46,0.06,2.99,1.12,4.06
	L130.44,29.54z"/>
<path class="st4" d="M130.44,29.54c1.12,1.13,2.78,1.56,4.29,1.09c8.49-2.67,9-9.16,7.95-11.41c-1.05-2.24,3.35-12.5,4.14-14.33
	c0.02-0.06-0.05-0.1-0.09-0.05c-4.6,4.75-11.52,1.43-16.85,2.73c-3.9,0.95-6.13,7.69-7.06,11.38c-0.37,1.46,0.06,2.99,1.12,4.06
	L130.44,29.54z"/>
<path class="st3" d="M143.13,22.33c-0.11,1.92-2.5,2.91-3.79,1.48c-0.18-0.2-0.37-0.37-0.57-0.49c-1.43-0.88-3.93-0.07-6.36-1.97
	s-1.29-4.15-2.36-6.12c-0.43-0.79-1.4-1.15-2.42-1.29c-1.64-0.24-2.51-2.06-1.59-3.44c0.84-1.27,2.08-2.5,3.86-2.94
	c3.13-0.77,7.98,0.85,12.53-0.38c1.59-0.43,3.03,1.04,2.48,2.59c-1.28,3.65-1.8,8.18-1.66,9.5
	C143.36,20.4,143.19,21.18,143.13,22.33z"/>
</svg>
