<?xml version="1.0" encoding="utf-8"?>
<!-- Generator: Adobe Illustrator 27.4.1, SVG Export Plug-In . SVG Version: 6.00 Build 0)  -->
<svg version="1.1" id="Layer_1" xmlns="http://www.w3.org/2000/svg" xmlns:xlink="http://www.w3.org/1999/xlink" x="0px" y="0px"
	 viewBox="0 0 126.77 133.1" style="enable-background:new 0 0 126.77 133.1;" xml:space="preserve">
<style type="text/css">
	.st0{fill:#808080;}
	.st1{fill:#DBDBDB;stroke:#4C4C4C;stroke-width:3;stroke-miterlimit:10;}
	.st2{fill:none;stroke:#4C4C4C;stroke-width:5;stroke-miterlimit:10;}
	.st3{fill:#DBDBDB;}
	.st4{fill:#C4C4C4;stroke:#424242;stroke-width:3;stroke-miterlimit:10;}
	.st5{fill:none;stroke:#4C4C4C;stroke-width:3;stroke-miterlimit:10;}
	.st6{fill:#999999;stroke:#3F3F3F;stroke-width:3;stroke-miterlimit:10;}
	.st7{fill:#EEEEEE;stroke:#424242;stroke-width:3;stroke-miterlimit:10;}
</style>
<path class="st0" d="M85.51,2.5H6.92C4.48,2.5,2.5,4.48,2.5,6.92v119.26c0,2.44,1.98,4.42,4.42,4.42h93.78
	c2.44,0,4.42-1.98,4.42-4.42V22.11L85.51,2.5z"/>
<path class="st1" d="M85.51,22.11h19.36c0.09,0,0.13-0.11,0.07-0.17L85.68,2.67c-0.06-0.06-0.17-0.02-0.17,0.07V22.11z"/>
<path class="st2" d="M84.84,2.5H6.92C4.48,2.5,2.5,4.48,2.5,6.92v119.26c0,2.44,1.98,4.42,4.42,4.42h93.78
	c2.44,0,4.42-1.98,4.42-4.42V22.78c0-0.43-0.17-0.84-0.48-1.15L85.98,2.98C85.68,2.67,85.27,2.5,84.84,2.5z"/>
<path class="st3" d="M120,108.18h-81.3c-2.91,0-5.27-2.36-5.27-5.27V44.15c0-2.91,2.36-5.27,5.27-5.27H120
	c2.91,0,5.27,2.36,5.27,5.27v58.76C125.27,105.82,122.91,108.18,120,108.18z"/>
<path class="st4" d="M57.28,108.18l12.3-15.84c0.22-0.28,0.63-0.31,0.89-0.06l3.84,3.84c0.28,0.28,0.76,0.21,0.95-0.15l14.38-28.31
	c0.23-0.45,0.87-0.43,1.07,0.03l5.67,12.89c0.17,0.38,0.67,0.47,0.96,0.18l5.22-5.22c0.31-0.31,0.85-0.18,0.98,0.24l10.21,32.39"/>
<path class="st5" d="M120,108.18h-81.3c-2.91,0-5.27-2.36-5.27-5.27V44.15c0-2.91,2.36-5.27,5.27-5.27H120
	c2.91,0,5.27,2.36,5.27,5.27v58.76C125.27,105.82,122.91,108.18,120,108.18z"/>
<circle class="st6" cx="51.9" cy="55.94" r="7.06"/>
<path class="st7" d="M82.23,53.35c0,0,5.76-4.19,11.72-2.94c5.96,1.24,11.91,1.6,13.9,0s15.61,0.11,10.22,4.36s-9.36,8.8-14.19,6.81
	s-6.53-4.54-11.92-2.84S73.63,59.88,82.23,53.35z"/>
</svg>
