<?xml version="1.0" encoding="utf-8"?>
<!-- Generator: Adobe Illustrator 27.4.1, SVG Export Plug-In . SVG Version: 6.00 Build 0)  -->
<svg version="1.1" id="Layer_1" xmlns="http://www.w3.org/2000/svg" xmlns:xlink="http://www.w3.org/1999/xlink" x="0px" y="0px"
	 viewBox="0 0 111.76 126.08" style="enable-background:new 0 0 111.76 126.08;" xml:space="preserve">
<style type="text/css">
	.st0{fill:#808080;stroke:#424242;stroke-width:5;stroke-miterlimit:10;}
	.st1{fill:#EEEEEE;stroke:#424242;stroke-width:5;stroke-miterlimit:10;}
	.st2{fill:#C4C4C4;stroke:#424242;stroke-width:5;stroke-miterlimit:10;}
	.st3{fill:#9C9C9C;stroke:#3C3C3C;stroke-width:3;stroke-miterlimit:10;}
</style>
<g>
	<path class="st0" d="M68.32,31.93L2.79,8.36C2.7,8.33,2.72,8.2,2.81,8.18l36.42-5.59c1.1-0.17,2.23-0.11,3.31,0.19l66.42,17.99
		c0.09,0.02,0.09,0.15,0,0.18l-35.47,11.1C71.8,32.57,69.99,32.53,68.32,31.93z"/>
	<path class="st1" d="M2.5,8.39l14.61,84.28c0.27,1.54,1.23,2.87,2.61,3.61l50.87,27.27c0.15,0.08,0.33-0.03,0.33-0.2V38.55
		c0-3.42-2.14-6.47-5.36-7.62L2.62,8.29C2.56,8.27,2.49,8.32,2.5,8.39z"/>
	<path class="st2" d="M109.25,21l-17.41,89.43c-0.29,1.5-1.25,2.79-2.6,3.51l-18.01,9.61c-0.15,0.08-0.33-0.03-0.33-0.2V38.81
		c0-3.54,2.3-6.67,5.68-7.73l32.54-10.18C109.2,20.87,109.27,20.93,109.25,21z"/>
</g>
<path class="st3" d="M57.16,52.96l-4.1,9.87c-0.29,0.7-1.15,0.95-1.78,0.52l-7.96-5.5c-0.84-0.58-2.06-1.49-1.07-1.75l2.44-1.7
	c0.13-0.14,0.67-0.6,0.56-0.67c-1.5-0.91-11.74-7.98-11.95,3.08l-8.47-3.66c0,0,3.94-11.95,12.15-10.22l11.73,4.16
	c0,0,3.16,0.26,4.28,4.58c0.02,0.07,0.09,0.12,0.16,0.11l2.7-0.46C56.79,51.17,57.52,52.09,57.16,52.96z"/>
<path class="st3" d="M29.47,49.92l-9.16,5.47c-0.73,0.44-0.64,1.52,0.15,1.84l3.47,1.37l-2.82,8.64c0,0-1.16,5.22,4.11,7.5
	l12.23,5.3l1.67-7.75l-6.61-2.86c0,0-2.82-0.71-1.9-4.18c1.02-3.82,1.26-3.94,1.26-3.94l2.61,0.79c0.85,0.26,1.6-0.61,1.23-1.41
	l-4.78-10.32C30.68,49.81,30,49.6,29.47,49.92z"/>
<path class="st3" d="M46.83,60.57l3.02,10.34c0,0,0.6,5.67-4.67,4l-3.78-1.64c-0.24-0.11-0.36-0.38-0.27-0.63l0.99-2.57
	c0.08-0.21-0.13-0.41-0.33-0.33l-9.65,3.77c-0.13,0.05-0.19,0.19-0.15,0.32l3.89,11.53c0.07,0.22,0.38,0.24,0.48,0.03l2.04-4.42
	c0.11-0.24,0.4-0.35,0.64-0.25l12.07,5.19c0,0,10,2.75,8.57-8.52l-4.89-18.78l-1.94,4.66c-0.19,0.47-0.76,0.65-1.19,0.37
	L46.83,60.57z"/>
</svg>
