<?xml version="1.0" encoding="utf-8"?>
<!-- Generator: Adobe Illustrator 27.4.0, SVG Export Plug-In . SVG Version: 6.00 Build 0)  -->
<svg version="1.1" id="Layer_6" xmlns="http://www.w3.org/2000/svg" xmlns:xlink="http://www.w3.org/1999/xlink" x="0px" y="0px"
	 viewBox="0 0 71.67 150.86" style="enable-background:new 0 0 71.67 150.86;" xml:space="preserve">
<style type="text/css">
	.st0{fill:#004544;stroke:#004544;stroke-width:3;stroke-miterlimit:10;}
	.st1{fill:#009E9C;}
	.st2{fill:#E5FFFB;}
	.st3{fill:none;stroke:#2CF0D6;stroke-width:2;stroke-linecap:round;stroke-linejoin:round;stroke-miterlimit:10;}
	.st4{fill:#2CF0D6;}
	.st5{fill:#2CF0D6;stroke:#2CF0D6;stroke-width:2;stroke-linecap:round;stroke-linejoin:round;stroke-miterlimit:10;}
	.st6{fill:#92FFEA;stroke:#92FFEA;stroke-linecap:round;stroke-linejoin:round;stroke-miterlimit:10;}
	.st7{fill:none;stroke:#004544;stroke-width:3;stroke-linecap:round;stroke-linejoin:round;stroke-miterlimit:10;}
	.st8{fill:none;stroke:#004544;stroke-width:3;stroke-miterlimit:10;}
</style>
<path class="st0" d="M16.95,6.16l9.48-3.96c1.26-0.32,3.03-0.65,5.17-0.69c2.07-0.04,5.84,0.18,9.98,2.08
	c5.92,2.72,8.94,7.23,9.89,8.77c1.05,1.7,3.36,5.97,3.38,11.87c0.02,6.8-3.02,11.59-4.2,13.28l-0.87,1.33v-0.19L65.9,57.55
	c0.17,0.53,0.73,2.46-0.2,4.49c-1.19,2.61-3.87,3.31-4.57,3.47c-1.34,0.3-2.47,0.11-3.13-0.04L16.95,6.16"/>
<path class="st1" d="M35.35,47.74c-1.21,0.66-9.53,5.02-19.16,1.36c-0.83-0.32-10.96-4.36-13.93-15.43
	c-2.43-9.05,1.68-16.28,2.4-17.49c0.69-1.17,4.71-7.74,13.1-10.25c4.41-1.32,8.21-0.99,10.31-0.64c1.87,0.48,10.42,2.83,15.06,9.61
	c0.31,0.45,6.1,9.22,2.99,19.56c-0.85,2.84-2.14,4.99-3.1,6.37l0.16,1.61c5.76,7.32,10.18,12.79,13.44,16.41
	c0.65,0.72,2.16,2.38,2.04,4.5c-0.12,2.05-1.75,4.4-4.24,4.99c-1.95,0.46-3.56-0.36-4.01-0.61L35.35,47.74z"/>
<path class="st2" d="M18.15,14.27c-1.14,0.52-6.8,3.09-8.51,9.28C8.27,28.49,10.28,32.63,11,34.1c0.63,1.29,2.83,5.8,7.91,7.83
	c5.44,2.17,11.96,0.6,16.17-3.57c3.95-3.91,5.88-10.12,3.83-15.83c-2.36-6.58-8.67-8.77-9.45-9.02
	C23.99,11.7,19.36,13.72,18.15,14.27z"/>
<path class="st3" d="M58.27,63.44c-0.28,0.21-2.53,1.84-5.25,1.05c-1.63-0.47-2.58-1.56-2.94-2.02"/>
<path class="st3" d="M49.96,62.33l-9.64-12.45c-0.62-0.87-1.23-1.74-1.85-2.62"/>
<g>
	<g>
		<path class="st4" d="M36.46,50.06c0.29,0.09,0.53,0.43,0.74,0.78c0.37,0.6,0.7,1.21,1.08,1.81c0.8,1.26,1.69,2.47,2.61,3.65
			c1.79,2.29,3.77,4.41,5.75,6.54c1.32,1.42,3.44-0.71,2.12-2.12c-2.05-2.2-4.12-4.4-5.95-6.79c-0.9-1.18-1.74-2.41-2.5-3.69
			c-0.77-1.3-1.51-2.61-3.06-3.07C35.4,46.62,34.61,49.52,36.46,50.06L36.46,50.06z"/>
	</g>
</g>
<g>
	<g>
		<path class="st4" d="M47.04,63.71c1.02,0.92,2.03,1.83,3.05,2.75c0.53,0.47,1.04,1,1.65,1.38c0.66,0.42,1.42,0.53,2.19,0.54
			c0.64,0,1.39,0.08,2.01-0.08c1.1-0.29,1.84-1.58,1.14-2.61c-0.56-0.83-1.42-0.88-2.32-0.89c-0.69-0.01-1.38-0.02-2.07-0.03
			c0.35,0.85,0.71,1.71,1.06,2.56c-0.16,0.13-0.07,0.08,0.05,0c0.16-0.1-0.3,0.08,0.04,0c0.22-0.06,0-0.05-0.04-0.01
			c0.04-0.04,0.32,0,0.37,0c0.78,0.06,1.53-0.73,1.5-1.5c-0.04-0.86-0.66-1.44-1.5-1.5c-0.97-0.07-1.8,0.31-2.54,0.89
			c-0.47,0.36-0.52,1.15-0.31,1.64c0.23,0.55,0.77,0.91,1.37,0.92c0.49,0.01,0.98,0.01,1.48,0.02c0.22,0,0.44,0.01,0.66,0.01
			c0.12,0,0.25,0.01,0.37,0.01c0.05,0,0.1,0,0.15,0c-0.44-0.03-0.76-0.3-0.95-0.81c0-0.27,0-0.53,0-0.8
			c0.03-0.07,0.06-0.14,0.09-0.21c0.18-0.18,0.36-0.36,0.54-0.54c-0.12,0.09-0.08,0.07,0.12-0.04c0.26-0.03,0.28-0.04,0.07-0.03
			c-0.19-0.01-0.39,0-0.57,0c-0.32,0-0.64,0.01-0.97,0c-0.09,0-0.17-0.01-0.26-0.02c0.18,0.03,0.19,0.02,0.02-0.02
			c-0.16-0.05-0.16-0.05,0,0.01c-0.08-0.04-0.15-0.09-0.22-0.13c-0.14-0.1-0.14-0.1-0.01,0c-0.07-0.06-0.13-0.11-0.2-0.17
			c-0.13-0.11-0.25-0.23-0.38-0.34c-1.15-1.03-2.3-2.07-3.45-3.1c-0.58-0.52-1.55-0.62-2.12,0C46.51,62.16,46.41,63.15,47.04,63.71
			L47.04,63.71z"/>
	</g>
</g>
<path class="st5" d="M13.33,7.81c0.21,0.2-1.69,1.96-1.22,3.91c0.23,0.97,0.96,1.58,1.19,1.79c1.5,1.32,3.45,0.52,3.7,1.08
	c0.33,0.76-2.95,2.23-5.02,4.5c-3.16,3.47-4.39,9.79-2,14.91c2.84,6.07,9.41,7.51,11.31,7.93c1.04,0.23,8.81,1.82,13.19-2.38
	c1.62-1.55,2.66-3.78,3.1-3.57c0.23,0.11-0.86,1.57-0.46,3.32c0.04,0.18,0.39,1.63,1.53,2.21c1.79,0.92,4.11-1.01,4.36-0.67
	c0.32,0.43-2.76,4.34-7.66,6.91c-1.78,0.93-7.94,4.05-15.81,2.36C9.18,47.87,4.53,39.15,4.04,38.18c-4.39-8.6-2.08-17.77,1.35-23.14
	C8.45,10.27,13.04,7.53,13.33,7.81z"/>
<path class="st6" d="M17.55,46.78c-5.41-1.37-8.42-5.49-9.45-6.89c-0.9-1.23-5.13-7.31-3.32-13.36c0.46-1.54,1.34-3.16,1.7-3.06
	c0.47,0.12-0.42,2.97,0,6.55c0.51,4.42,2.72,7.53,3.49,8.6c0.87,1.19,3.12,4.23,7.06,5.96c5.49,2.41,10.68,0.72,10.72,1.11
	C27.81,46.05,22.94,48.14,17.55,46.78z"/>
<path class="st6" d="M45.89,57.45c1.51,2.02,3.08,3.66,4.06,4.88c0.49,0.6,1.44,1.34,2.14,1.74c1.68,0.95,2.9,0.33,3.07,0.84
	c0.14,0.43-0.54,0.87-1.66,0.98c-1.92,0.18-3.79-2.33-4.98-4.21C47.41,59.9,46.24,58.51,45.89,57.45z"/>
<circle class="st7" cx="24.31" cy="27.79" r="22.81"/>
<circle class="st7" cx="24.31" cy="27.79" r="15.09"/>
<path class="st7" d="M42.58,41.71l14.78,18.05c0.44,0.53,1.42,1.88,1.3,3.59c-0.23,3.1-3.54,5.47-6.12,5.23
	c-1.76-0.16-2.96-1.52-3.51-2.15c-5.61-6.49-13.66-17-14.58-18.21"/>
<line class="st8" x1="54.42" y1="68.34" x2="63.09" y2="64.76"/>
<path class="st1" d="M46.85,128.51c-1.21,0.66-9.53,5.02-19.16,1.36c-0.83-0.32-10.96-4.36-13.93-15.43
	c-2.43-9.05,1.68-16.28,2.4-17.49c0.69-1.17,4.71-7.74,13.1-10.25c4.41-1.32,8.21-0.99,10.31-0.64c1.87,0.48,10.42,2.83,15.06,9.61
	c0.31,0.45,6.1,9.22,2.99,19.56c-0.85,2.84-2.14,4.99-3.1,6.37l0.16,1.61c5.76,7.32,10.18,12.79,13.44,16.41
	c0.65,0.72,2.16,2.38,2.04,4.5c-0.12,2.05-1.75,4.4-4.24,4.99c-1.95,0.46-3.56-0.36-4.01-0.61L46.85,128.51z"/>
<path class="st2" d="M29.65,95.03c-1.14,0.52-6.8,3.09-8.51,9.28c-1.37,4.95,0.65,9.09,1.36,10.55c0.63,1.29,2.83,5.8,7.91,7.83
	c5.44,2.17,11.96,0.6,16.17-3.57c3.95-3.91,5.88-10.12,3.83-15.83c-2.36-6.58-8.67-8.77-9.45-9.02
	C35.48,92.47,30.85,94.48,29.65,95.03z"/>
<path class="st3" d="M69.77,144.2c-0.28,0.21-2.53,1.84-5.25,1.05c-1.63-0.47-2.58-1.56-2.94-2.02"/>
<path class="st3" d="M61.46,143.1l-9.64-12.45c-0.62-0.87-1.23-1.74-1.85-2.62"/>
<g>
	<g>
		<path class="st4" d="M47.96,130.82c0.29,0.09,0.53,0.43,0.74,0.78c0.37,0.6,0.7,1.21,1.08,1.81c0.8,1.26,1.69,2.47,2.61,3.65
			c1.79,2.29,3.77,4.41,5.75,6.54c1.32,1.42,3.44-0.71,2.12-2.12c-2.05-2.2-4.12-4.4-5.95-6.79c-0.9-1.18-1.74-2.41-2.5-3.69
			c-0.77-1.3-1.51-2.61-3.06-3.07C46.9,127.39,46.1,130.28,47.96,130.82L47.96,130.82z"/>
	</g>
</g>
<g>
	<g>
		<path class="st4" d="M58.54,144.47c1.02,0.92,2.03,1.83,3.05,2.75c0.53,0.47,1.04,1,1.65,1.38c0.66,0.42,1.42,0.53,2.19,0.54
			c0.64,0,1.39,0.08,2.01-0.08c1.1-0.29,1.84-1.58,1.14-2.61c-0.56-0.83-1.42-0.88-2.32-0.89c-0.69-0.01-1.38-0.02-2.07-0.03
			c0.35,0.85,0.71,1.71,1.06,2.56c-0.16,0.13-0.07,0.08,0.05,0c0.16-0.1-0.3,0.08,0.04,0c0.22-0.06,0-0.05-0.04-0.01
			c0.04-0.04,0.32,0,0.37,0c0.78,0.06,1.53-0.73,1.5-1.5c-0.04-0.86-0.66-1.44-1.5-1.5c-0.97-0.07-1.8,0.31-2.54,0.89
			c-0.47,0.36-0.52,1.15-0.31,1.64c0.23,0.55,0.77,0.91,1.37,0.92c0.49,0.01,0.98,0.01,1.48,0.02c0.22,0,0.44,0.01,0.66,0.01
			c0.12,0,0.25,0.01,0.37,0.01c0.05,0,0.1,0,0.15,0c-0.44-0.03-0.76-0.3-0.95-0.81c0-0.27,0-0.53,0-0.8
			c0.03-0.07,0.06-0.14,0.09-0.21c0.18-0.18,0.36-0.36,0.54-0.54c-0.12,0.09-0.08,0.07,0.12-0.04c0.26-0.03,0.28-0.04,0.07-0.03
			c-0.19-0.01-0.39,0-0.57,0c-0.32,0-0.64,0.01-0.97,0c-0.09,0-0.17-0.01-0.26-0.02c0.18,0.03,0.19,0.02,0.02-0.02
			c-0.16-0.05-0.16-0.05,0,0.01c-0.08-0.04-0.15-0.09-0.22-0.13c-0.14-0.1-0.14-0.1-0.01,0c-0.07-0.06-0.13-0.11-0.2-0.17
			c-0.13-0.11-0.25-0.23-0.38-0.34c-1.15-1.03-2.3-2.07-3.45-3.1c-0.58-0.52-1.55-0.62-2.12,0
			C58.01,142.92,57.91,143.91,58.54,144.47L58.54,144.47z"/>
	</g>
</g>
<path class="st5" d="M24.83,88.57c0.21,0.2-1.69,1.96-1.22,3.91c0.23,0.97,0.96,1.58,1.19,1.79c1.5,1.32,3.45,0.52,3.7,1.08
	c0.33,0.76-2.95,2.23-5.02,4.5c-3.16,3.47-4.39,9.79-2,14.91c2.84,6.07,9.41,7.51,11.31,7.93c1.04,0.23,8.81,1.82,13.19-2.38
	c1.62-1.55,2.66-3.78,3.1-3.57c0.23,0.11-0.86,1.57-0.46,3.32c0.04,0.18,0.39,1.63,1.53,2.21c1.79,0.92,4.11-1.01,4.36-0.67
	c0.32,0.43-2.76,4.34-7.66,6.91c-1.78,0.93-7.94,4.05-15.81,2.36c-10.37-2.23-15.01-10.96-15.51-11.92
	c-4.39-8.6-2.08-17.77,1.35-23.14C19.95,91.03,24.54,88.3,24.83,88.57z"/>
<path class="st6" d="M29.05,127.54c-5.41-1.37-8.42-5.49-9.45-6.89c-0.9-1.23-5.13-7.31-3.32-13.36c0.46-1.54,1.34-3.16,1.7-3.06
	c0.47,0.12-0.42,2.97,0,6.55c0.51,4.42,2.72,7.53,3.49,8.6c0.87,1.19,3.12,4.23,7.06,5.96c5.49,2.41,10.68,0.72,10.72,1.11
	C39.31,126.81,34.44,128.91,29.05,127.54z"/>
<path class="st6" d="M57.39,138.21c1.51,2.02,3.08,3.66,4.06,4.88c0.49,0.6,1.44,1.34,2.14,1.74c1.68,0.95,2.9,0.33,3.07,0.84
	c0.14,0.43-0.54,0.87-1.66,0.98c-1.92,0.18-3.79-2.33-4.98-4.21C58.91,140.67,57.74,139.27,57.39,138.21z"/>
<circle class="st7" cx="35.81" cy="108.55" r="22.81"/>
<circle class="st7" cx="35.81" cy="108.55" r="15.09"/>
<path class="st7" d="M54.08,122.47l14.78,18.05c0.44,0.53,1.42,1.88,1.3,3.59c-0.23,3.1-3.54,5.47-6.12,5.23
	c-1.76-0.16-2.96-1.52-3.51-2.15c-5.61-6.49-13.66-17-14.58-18.21"/>
</svg>
