<?xml version="1.0" encoding="utf-8"?>
<!-- Generator: Adobe Illustrator 27.4.1, SVG Export Plug-In . SVG Version: 6.00 Build 0)  -->
<svg version="1.1" id="Layer_11" xmlns="http://www.w3.org/2000/svg" xmlns:xlink="http://www.w3.org/1999/xlink" x="0px" y="0px"
	 viewBox="0 0 226.81 169.46" style="enable-background:new 0 0 226.81 169.46;" xml:space="preserve">
<style type="text/css">
	.st0{fill:#541D02;stroke:#541D02;stroke-width:5;stroke-linecap:round;stroke-linejoin:round;stroke-miterlimit:10;}
	.st1{fill:#004544;stroke:#004544;stroke-width:5;stroke-linecap:round;stroke-linejoin:round;stroke-miterlimit:10;}
	.st2{fill:#FF6417;}
	.st3{fill:#2CF0D6;}
	.st4{fill:#FFB594;}
	.st5{fill:none;stroke:#541D02;stroke-width:5;stroke-miterlimit:10;}
	.st6{fill:none;stroke:#004544;stroke-width:5;stroke-miterlimit:10;}
	.st7{fill:none;stroke:#541D02;stroke-width:5;stroke-linecap:round;stroke-linejoin:round;stroke-miterlimit:10;}
	.st8{fill:none;stroke:#004544;stroke-width:5;stroke-linecap:round;stroke-linejoin:round;stroke-miterlimit:10;}
	.st9{fill:none;stroke:#004544;stroke-width:3;stroke-linecap:round;stroke-linejoin:round;stroke-miterlimit:10;}
	.st10{fill:#92FFEA;}
</style>
<polygon class="st0" points="81.18,2.5 81.18,71.05 69.22,76.23 6.04,6.02 16.45,2.76 "/>
<polygon class="st1" points="222.91,2.5 222.91,71.05 210.96,76.23 147.78,6.02 158.19,2.76 "/>
<path class="st2" d="M16.99,96.75l60.43,0c2.69,0,4.88,2.18,4.88,4.88l0,60.45c0,2.69-2.18,4.88-4.88,4.88l-60.45-0.03
	c-2.69,0-4.87-2.19-4.87-4.88l0.03-60.43C12.11,98.93,14.3,96.75,16.99,96.75z"/>
<path class="st3" d="M159.01,96.75l60.43,0c2.69,0,4.88,2.18,4.88,4.88l0,60.45c0,2.69-2.18,4.88-4.88,4.88l-60.45-0.03
	c-2.69,0-4.87-2.19-4.87-4.88l0.03-60.43C154.13,98.93,156.32,96.75,159.01,96.75z"/>
<path class="st2" d="M7.4,6.02l60.43,0c2.69,0,4.88,2.18,4.88,4.88l0,60.45c0,2.69-2.18,4.88-4.88,4.88L7.37,76.2
	c-2.69,0-4.87-2.19-4.87-4.88l0.03-60.43C2.53,8.2,4.71,6.02,7.4,6.02z"/>
<path class="st3" d="M150.79,5.82l60.43,0c2.69,0,4.88,2.18,4.88,4.88l0,60.45c0,2.69-2.18,4.88-4.88,4.88L150.76,76
	c-2.69,0-4.87-2.19-4.87-4.88l0.03-60.43C145.91,8,148.09,5.82,150.79,5.82z"/>
<path class="st4" d="M25.16,14c0.96,2.05-8.31,5-13.02,15.06c-0.6,1.28-4.67,10.31-1.53,19.79c3.46,10.46,13.04,13.42,11.62,16.85
	c-1.26,3.06-10.2,3.94-13.4,0.26c-0.81-0.93-1.06-1.93-1.15-2.3c-2.45-10.3-0.89-24.77-0.89-24.77c1.73-16.08,0.2-17.96,3.19-21.19
	C14.95,12.3,24.26,12.07,25.16,14z"/>
<path class="st4" d="M29.9,30.59c0.96,0.8-1.35,3.43-1.87,8.17c-0.72,6.48,2.61,10.36,1.36,11.23c-1.25,0.87-6.02-1.99-7.49-6.47
	c-1.71-5.18,1.97-9.59,2.21-9.87C25.94,31.54,28.97,29.81,29.9,30.59z"/>
<path class="st4" d="M34.68,105.22c0.96,2.05-8.31,5-13.02,15.06c-0.6,1.28-4.67,10.31-1.53,19.79
	c3.46,10.46,13.04,13.42,11.62,16.85c-1.26,3.06-10.2,3.94-13.4,0.26c-0.81-0.93-1.06-1.93-1.15-2.3
	c-2.45-10.3-0.89-24.77-0.89-24.77c1.73-16.08,0.2-17.96,3.19-21.19C24.47,103.52,33.78,103.29,34.68,105.22z"/>
<path class="st4" d="M39.42,121.81c0.96,0.8-1.35,3.43-1.87,8.17c-0.72,6.48,2.61,10.36,1.36,11.23c-1.25,0.87-6.02-1.99-7.49-6.47
	c-1.71-5.18,1.97-9.59,2.21-9.87C35.46,122.76,38.49,121.03,39.42,121.81z"/>
<path class="st5" d="M16.99,96.75l60.43,0c2.69,0,4.88,2.18,4.88,4.88l0,60.45c0,2.69-2.18,4.88-4.88,4.88l-60.45-0.03
	c-2.69,0-4.87-2.19-4.87-4.88l0.03-60.43C12.11,98.93,14.3,96.75,16.99,96.75z"/>
<path class="st6" d="M159.01,96.75l60.43,0c2.69,0,4.88,2.18,4.88,4.88l0,60.45c0,2.69-2.18,4.88-4.88,4.88l-60.45-0.03
	c-2.69,0-4.87-2.19-4.87-4.88l0.03-60.43C154.13,98.93,156.32,96.75,159.01,96.75z"/>
<path class="st5" d="M7.4,6.02l60.43,0c2.69,0,4.88,2.18,4.88,4.88l0,60.45c0,2.69-2.18,4.88-4.88,4.88L7.37,76.2
	c-2.69,0-4.87-2.19-4.87-4.88l0.03-60.43C2.53,8.2,4.71,6.02,7.4,6.02z"/>
<path class="st6" d="M149.43,6.02l60.43,0c2.69,0,4.88,2.18,4.88,4.88l0,60.45c0,2.69-2.18,4.88-4.88,4.88l-60.45-0.03
	c-2.69,0-4.87-2.19-4.87-4.88l0.03-60.43C144.55,8.2,146.73,6.02,149.43,6.02z"/>
<circle class="st7" cx="37.6" cy="40.93" r="21.96"/>
<line class="st7" x1="37.6" y1="29.56" x2="37.6" y2="52.29"/>
<circle class="st7" cx="47.19" cy="131.85" r="21.96"/>
<line class="st7" x1="47.19" y1="120.49" x2="47.19" y2="143.22"/>
<line class="st8" x1="179.62" y1="14.71" x2="179.62" y2="29.78"/>
<line class="st8" x1="179.7" y1="53.53" x2="179.7" y2="68.53"/>
<line class="st8" x1="191.7" y1="41.53" x2="206.7" y2="41.53"/>
<line class="st8" x1="153.56" y1="41.78" x2="168.62" y2="41.78"/>
<line class="st9" x1="186.58" y1="34.41" x2="195.05" y2="25.95"/>
<line class="st9" x1="172.86" y1="34.78" x2="164.39" y2="26.31"/>
<line class="st9" x1="163.75" y1="57.24" x2="172.22" y2="48.78"/>
<line class="st9" x1="195.14" y1="57.01" x2="186.67" y2="48.54"/>
<line class="st8" x1="188.7" y1="104.94" x2="188.7" y2="120.01"/>
<line class="st8" x1="188.78" y1="143.76" x2="188.78" y2="158.76"/>
<line class="st8" x1="200.78" y1="131.76" x2="215.78" y2="131.76"/>
<line class="st8" x1="162.64" y1="132.01" x2="177.7" y2="132.01"/>
<line class="st9" x1="195.66" y1="124.65" x2="204.13" y2="116.18"/>
<line class="st9" x1="181.93" y1="125.01" x2="173.47" y2="116.54"/>
<line class="st9" x1="172.83" y1="147.48" x2="181.3" y2="139.01"/>
<line class="st9" x1="204.21" y1="147.24" x2="195.74" y2="138.77"/>
<path class="st10" d="M169.23,12.69c-3.43,0.89-7.56,2.6-10.64,6.21c-4.93,5.78-4.59,13.37-5.62,13.28
	c-0.63-0.06-0.48-2.84-1.19-11.4c-0.43-5.13-0.68-6.62,0.41-7.69c1.38-1.34,3.48-0.59,8.78-0.31
	C164.49,12.96,167.36,12.83,169.23,12.69z"/>
<path class="st10" d="M178.14,103.38c-3.43,0.89-7.56,2.6-10.64,6.21c-4.93,5.78-4.59,13.37-5.62,13.28
	c-0.63-0.06-0.48-2.84-1.19-11.4c-0.43-5.13-0.68-6.62,0.41-7.69c1.38-1.34,3.48-0.59,8.78-0.31
	C173.4,103.65,176.27,103.52,178.14,103.38z"/>
</svg>
