<?xml version="1.0" encoding="utf-8"?>
<!-- Generator: Adobe Illustrator 27.4.0, SVG Export Plug-In . SVG Version: 6.00 Build 0)  -->
<svg version="1.1" id="Layer_1" xmlns="http://www.w3.org/2000/svg" xmlns:xlink="http://www.w3.org/1999/xlink" x="0px" y="0px"
	 viewBox="0 0 112.52 101.99" style="enable-background:new 0 0 112.52 101.99;" xml:space="preserve">
<style type="text/css">
	.st0{fill:#009E9C;}
	.st1{fill:#2CF0D6;}
	.st2{fill:#92FFEA;}
	.st3{fill:none;stroke:#004544;stroke-width:3;stroke-linecap:round;stroke-linejoin:round;stroke-miterlimit:10;}
	.st4{fill:#E5FFFB;}
	.st5{fill:none;stroke:#004544;stroke-width:2;stroke-linecap:round;stroke-linejoin:round;stroke-miterlimit:10;}
</style>
<g id="Layer_7">
	<path class="st0" d="M3,12.85c4.77-7.8,17.85-11.13,20.01-8.52c0.6,0.72,0.25,1.76,0,2.64c-3.03,10.76,3.26,18.96,0,20.85
		c-2.54,1.47-5.46-4.03-15.74-6.08c-2.11-0.42-4.41-0.68-5.45-2.32C0.38,17.14,2.42,13.79,3,12.85z"/>
	<path class="st0" d="M2.45,48.48c4.77-7.8,17.85-11.13,20.01-8.52c0.6,0.72,0.25,1.76,0,2.64c-3.03,10.76,3.26,18.96,0,20.85
		c-2.54,1.47-5.46-4.03-15.74-6.08c-2.11-0.42-4.41-0.68-5.45-2.32C-0.17,52.76,1.87,49.42,2.45,48.48z"/>
	<path class="st0" d="M3.19,83.33c4.77-7.8,17.85-11.13,20.01-8.52c0.6,0.72,0.25,1.76,0,2.64c-3.03,10.76,3.26,18.96,0,20.85
		c-2.54,1.47-5.46-4.03-15.74-6.08c-2.11-0.42-4.41-0.68-5.45-2.32C0.57,87.61,2.61,84.27,3.19,83.33z"/>
	<g>
		<g>
			<path class="st0" d="M20.99,40.84c1.93,0,1.93-3,0-3S19.06,40.84,20.99,40.84L20.99,40.84z"/>
		</g>
	</g>
	<g>
		<g>
			<path class="st0" d="M20.99,76.58c1.93,0,1.93-3,0-3S19.06,76.58,20.99,76.58L20.99,76.58z"/>
		</g>
	</g>
	<path class="st1" d="M20.99,3.33c-1.19,0.95-3.56,3.11-4.95,6.72c-0.3,0.79-1.65,4.47-0.7,9.04c1.13,5.42,4.65,8.03,4.01,8.71
		c-0.82,0.88-5.21-5.02-13.08-7.05c-1.25-0.32-3.24-0.72-4.32-2.37C1,16.92,0.94,14.75,1.86,13.27c1.08-1.72,3.21-2.07,4.69-2.43
		c2.77-0.68,6.57-2.21,10.93-6.02"/>
	<path class="st2" d="M13.93,10.19c0.3,0.39-1.21,1.39-1.79,3.66c-0.44,1.7,0.09,2.4-0.51,2.89c-0.83,0.69-2.55-0.07-4.68-1.02
		c-1.1-0.49-1.66-0.74-1.7-1.11c-0.04-0.33,0.19-0.89,5.19-3.23C13.06,10.15,13.75,9.95,13.93,10.19z"/>
	<path class="st1" d="M20.99,38.47c-1.19,0.95-3.56,3.11-4.95,6.72c-0.3,0.79-1.65,4.47-0.7,9.04c1.13,5.42,4.65,8.03,4.01,8.71
		c-0.82,0.88-5.21-5.02-13.08-7.05c-1.25-0.32-3.24-0.72-4.32-2.37C1,52.06,0.94,49.89,1.86,48.41c1.08-1.72,3.21-2.07,4.69-2.43
		c2.77-0.68,6.57-2.21,10.93-6.02"/>
	<path class="st2" d="M13.93,45.33c0.3,0.39-1.21,1.39-1.79,3.66c-0.44,1.7,0.09,2.4-0.51,2.89c-0.83,0.69-2.55-0.07-4.68-1.02
		c-1.1-0.49-1.66-0.74-1.7-1.11c-0.04-0.33,0.19-0.89,5.19-3.23C13.06,45.29,13.75,45.1,13.93,45.33z"/>
	<path class="st1" d="M20.99,73.75c-1.19,0.95-3.56,3.11-4.95,6.72c-0.3,0.79-1.65,4.47-0.7,9.04c1.13,5.42,4.65,8.03,4.01,8.71
		c-0.82,0.88-5.21-5.02-13.08-7.05c-1.25-0.32-3.24-0.72-4.32-2.37C1,87.34,0.94,85.17,1.86,83.69c1.08-1.72,3.21-2.07,4.69-2.43
		c2.77-0.68,6.57-2.21,10.93-6.02"/>
	<path class="st2" d="M13.93,80.6c0.3,0.39-1.21,1.39-1.79,3.66c-0.44,1.7,0.09,2.4-0.51,2.89c-0.83,0.69-2.55-0.07-4.68-1.02
		c-1.1-0.49-1.66-0.74-1.7-1.11c-0.04-0.33,0.19-0.89,5.19-3.23C13.06,80.57,13.75,80.37,13.93,80.6z"/>
	<polyline class="st3" points="1.5,6.93 1.5,24.6 2.07,19.18 22.69,30.02 22.69,1.51 2.07,12.34 	"/>
	<path class="st3" d="M27.76,10.81c0.22,0.18,2.6,2.26,2.28,5.45c-0.25,2.41-1.88,3.84-2.25,4.14"/>
	<path class="st3" d="M31.97,6.31c0.42,0.35,5.05,4.38,4.41,10.57c-0.48,4.68-3.65,7.44-4.35,8.03"/>
	<polyline class="st3" points="1.5,42.07 1.5,59.74 2.07,54.32 22.69,65.16 22.69,36.65 2.07,47.49 	"/>
	<path class="st3" d="M27.76,45.95c0.22,0.18,2.6,2.26,2.28,5.45c-0.25,2.41-1.88,3.84-2.25,4.14"/>
	<polyline class="st3" points="1.5,77.4 1.5,95.07 2.07,89.65 22.69,100.49 22.69,71.98 2.07,82.82 	"/>
</g>
<g id="Layer_9">
	<path class="st0" d="M53.44,2.07c-1.3,0.13-1,1.72-3.49,3.68c-2.13,1.68-4.75,2.41-6.19,2.81c-2.18,0.61-2.35,0.32-2.78,0.74
		c-2.55,2.54,4.18,12.17,7.06,16.3c1.24,1.78,2.25,3.05,3.96,3.51c2.59,0.7,5.68-0.78,7.4-2.87c2.44-2.97,0.31-4.96,3.06-9.38
		c0.6-0.97,1.6-2.31,2.13-4.48c0.3-1.23,0.58-2.44-0.02-3.37c-0.83-1.28-2.46-0.65-4.66-1.47C55.94,6.05,55.55,1.85,53.44,2.07z"/>
	<path class="st1" d="M54.04,2.67C53.32,4.2,52.4,6.48,51.8,9.35c-0.37,1.76-1.35,7.15,0.22,13.83c0.65,2.74,1.57,5.03,2.46,6.85
		h-2.69l-5.94-5.69L41.83,9.27l0.24-1.08l7.31-2.32L54.04,2.67z"/>
	<path class="st2" d="M45.17,11.36c0.6-0.76,2.95,0.43,4.34-0.83c0.19-0.17,0.29-0.32,0.38-0.29c0.42,0.14-0.87,3.12-0.64,6.96
		c0.13,2.05,0.61,3.09,0.35,3.19c-0.23,0.09-0.62-0.71-3.61-6.32C45.3,12.75,44.8,11.82,45.17,11.36z"/>
	<path class="st3" d="M53.12,30.02c9.5-2.84,12.29-21.59,12.29-21.59c-1.83-0.04-6.96-0.44-10.58-4.5c-0.71-0.8-1.27-1.63-1.71-2.43
		c-0.44,0.8-0.99,1.63-1.71,2.43c-3.63,4.06-8.75,4.45-10.58,4.5C40.83,8.43,43.62,27.18,53.12,30.02z"/>
	<g>
		<g>
			<path class="st1" d="M52.13,19.31c1.93,0,1.93-3,0-3S50.19,19.31,52.13,19.31L52.13,19.31z"/>
		</g>
	</g>
	<g>
		<g>
			<path class="st1" d="M51.93,20.84c1.93,0,1.93-3,0-3S50,20.84,51.93,20.84L51.93,20.84z"/>
		</g>
	</g>
	<g>
		<g>
			<path class="st1" d="M51.87,20.77c1.93,0,1.93-3,0-3S49.94,20.77,51.87,20.77L51.87,20.77z"/>
		</g>
	</g>
	<g>
		<g>
			<path class="st1" d="M52.25,16.05c1.93,0,1.93-3,0-3S50.32,16.05,52.25,16.05L52.25,16.05z"/>
		</g>
	</g>
	<g>
		<g>
			<path class="st1" d="M52.19,14.14c1.93,0,1.93-3,0-3S50.26,14.14,52.19,14.14L52.19,14.14z"/>
		</g>
	</g>
	<g>
		<g>
			<path class="st1" d="M52.25,12.73c1.93,0,1.93-3,0-3S50.32,12.73,52.25,12.73L52.25,12.73z"/>
		</g>
	</g>
	<line class="st3" x1="53.12" y1="1.51" x2="53.12" y2="30.02"/>
	<line class="st3" x1="42.39" y1="15.11" x2="63.01" y2="15.11"/>
</g>
<g id="Layer_12">
	<rect x="79.9" y="2.3" class="st1" width="31.12" height="18.81"/>
	<rect x="79.04" y="2.99" class="st0" width="30.74" height="18.17"/>
	<path class="st1" d="M86.81,2.99c0.14,1.7-0.07,7.33,4.41,11.06c3.57,2.97,7.8,3.31,11.47,3.61c3.23,0.26,5.94-0.06,7.82-0.4
		l-0.13,4.01l-5.75,0.69l-11.67-0.85c0,0-8.12,0.56-8.26,0.56s-5.52-0.56-5.52-0.56l-0.14-2.22l1.88-1.59l0.13-3.15l2.65-0.23
		l1.07-10.8L86.81,2.99z"/>
	<polyline class="st3" points="111.02,1.81 79.6,1.81 79.6,21.88 111.02,21.88 111.02,2.05 	"/>
	<line class="st3" x1="95.31" y1="22.48" x2="95.31" y2="30.03"/>
	<line class="st3" x1="89.02" y1="30.03" x2="101.61" y2="30.03"/>
	<rect x="76.38" y="3.86" class="st0" width="8.11" height="10.48"/>
	<g>
		<g>
			<path class="st0" d="M78.11,15.14c0,0.72,0,1.44,0,2.16c0,0.38,0.17,0.79,0.44,1.06c0.26,0.26,0.69,0.46,1.06,0.44
				c0.39-0.02,0.79-0.14,1.06-0.44c0.27-0.29,0.44-0.65,0.44-1.06c0-0.72,0-1.44,0-2.16c0-0.38-0.17-0.79-0.44-1.06
				c-0.26-0.26-0.69-0.46-1.06-0.44c-0.39,0.02-0.79,0.14-1.06,0.44C78.28,14.38,78.11,14.74,78.11,15.14L78.11,15.14z"/>
		</g>
	</g>
	<g>
		<g>
			<path class="st0" d="M81.1,20.21c1.93,0,1.93-3,0-3C79.17,17.21,79.17,20.21,81.1,20.21L81.1,20.21z"/>
		</g>
	</g>
	<g>
		<g>
			<path class="st0" d="M81.04,17.22c-0.46,0-0.91,0-1.37,0c-0.21-0.01-0.4,0.04-0.58,0.13c-0.19,0.06-0.35,0.16-0.48,0.31
				c-0.15,0.14-0.25,0.3-0.31,0.48c-0.09,0.18-0.14,0.37-0.13,0.58c0.02,0.13,0.04,0.27,0.05,0.4c0.07,0.25,0.2,0.47,0.39,0.66
				c0.1,0.08,0.2,0.16,0.3,0.23c0.23,0.14,0.49,0.2,0.76,0.2c0.46,0,0.91,0,1.37,0c0.21,0.01,0.4-0.04,0.58-0.13
				c0.19-0.06,0.35-0.16,0.48-0.31c0.15-0.14,0.25-0.3,0.31-0.48c0.09-0.18,0.14-0.37,0.13-0.58c-0.02-0.13-0.04-0.27-0.05-0.4
				c-0.07-0.25-0.2-0.47-0.39-0.66c-0.1-0.08-0.2-0.16-0.3-0.23C81.57,17.29,81.31,17.22,81.04,17.22L81.04,17.22z"/>
		</g>
	</g>
	<g>
		<g>
			<path class="st0" d="M78.1,15.44c0,0.8,0,1.6,0,2.41c0,0.38,0.17,0.79,0.44,1.06c0.26,0.26,0.69,0.46,1.06,0.44
				c0.39-0.02,0.79-0.14,1.06-0.44c0.27-0.29,0.44-0.65,0.44-1.06c0-0.8,0-1.6,0-2.41c0-0.38-0.17-0.79-0.44-1.06
				c-0.26-0.26-0.69-0.46-1.06-0.44c-0.39,0.02-0.79,0.14-1.06,0.44S78.1,15.04,78.1,15.44L78.1,15.44z"/>
		</g>
	</g>
	<g>
		<g>
			<path class="st0" d="M79.04,20.21c0.9,0,1.8,0,2.71,0c0.38,0,0.79-0.17,1.06-0.44c0.26-0.26,0.46-0.69,0.44-1.06
				c-0.02-0.39-0.14-0.79-0.44-1.06c-0.29-0.27-0.65-0.44-1.06-0.44c-0.75,0-1.49,0-2.24,0c-0.38,0-0.79,0.17-1.06,0.44
				c-0.26,0.26-0.46,0.69-0.44,1.06c0.02,0.39,0.14,0.79,0.44,1.06c0.29,0.27,0.65,0.44,1.06,0.44c0.75,0,1.49,0,2.24,0
				c0.38,0,0.79-0.17,1.06-0.44c0.26-0.26,0.46-0.69,0.44-1.06c-0.02-0.39-0.14-0.79-0.44-1.06c-0.29-0.27-0.65-0.44-1.06-0.44
				c-0.9,0-1.8,0-2.71,0c-0.38,0-0.79,0.17-1.06,0.44c-0.26,0.26-0.46,0.69-0.44,1.06c0.02,0.39,0.14,0.79,0.44,1.06
				C78.27,20.04,78.63,20.21,79.04,20.21L79.04,20.21z"/>
		</g>
	</g>
	<g>
		<g>
			<path class="st0" d="M81.18,19.27c-0.81,0-1.61,0-2.42,0c-0.26,0-0.51,0.23-0.5,0.5s0.22,0.5,0.5,0.5c0.81,0,1.61,0,2.42,0
				c0.26,0,0.51-0.23,0.5-0.5S81.46,19.27,81.18,19.27L81.18,19.27z"/>
		</g>
	</g>
	<g>
		<g>
			<path class="st4" d="M78.7,17.99c2.57,0,2.58-4,0-4S76.12,17.99,78.7,17.99L78.7,17.99z"/>
		</g>
	</g>
	<g>
		<g>
			<path class="st1" d="M83.27,17.22c-1.34,0-2.68,0-4.02,0c-0.78,0-1.54,0.69-1.5,1.5s0.66,1.5,1.5,1.5c1.34,0,2.68,0,4.02,0
				c0.78,0,1.54-0.69,1.5-1.5S84.11,17.22,83.27,17.22L83.27,17.22z"/>
		</g>
	</g>
	<rect x="76.96" y="4.09" class="st1" width="3.48" height="9.67"/>
	<path class="st2" d="M92.99,9.44"/>
	<path class="st2" d="M87.14,8.97"/>
	<path class="st2" d="M86.84,12.09c0.34,1.48,1.09,2.49,1.56,3.12c1.16,1.56,2.69,2.26,3.81,2.76c3.32,1.49,6.14,1.25,6.13,1.4
		c-0.01,0.19-4.42-0.4-10.34-0.04c-2.78,0.16-4.27,0.44-4.73-0.36c-0.62-1.07,1.51-2.56,2.56-6.66c0.13-0.52,0.39-1.62,0.62-1.6
		C86.64,10.72,86.68,11.39,86.84,12.09z"/>
	<path class="st2" d="M78.94,6.99c-0.01,0.1-0.05,0.77,0.22,1.39C79.47,9.09,80,9.31,79.9,9.52c-0.08,0.17-0.47,0.15-0.79,0.13
		c-0.29-0.01-0.45-0.02-0.57-0.13c-0.17-0.16-0.24-0.37-0.22-0.89c0.03-0.99,0-1.09,0.15-1.54c0.15-0.44,0.45-0.8,0.53-0.77
		C79.07,6.35,78.97,6.59,78.94,6.99z"/>
	<rect x="76.38" y="3.55" class="st3" width="8.11" height="10.34"/>
	<path class="st3" d="M80.28,13.89c0.17,0.1,0.83,0.5,1.09,1.34c0.06,0.18,0.2,0.67,0.03,1.24c-0.18,0.64-0.63,0.97-0.82,1.12
		c-0.5,0.38-0.71,0.16-1.34,0.48c-0.24,0.12-0.88,0.46-1.25,1.21c-0.08,0.17-0.43,0.88-0.18,1.69c0.06,0.19,0.21,0.69,0.7,1.02
		c0.5,0.34,0.9,0.03,1.46,0.19c0.92,0.27,1.28,1.37,1.34,1.53c0.1,0.27,0.22,0.62,0.12,1.05c-0.12,0.53-0.51,0.83-0.64,0.92
		c-0.34,0.26-0.48,0.12-0.85,0.35c-0.44,0.28-0.66,0.71-0.79,0.99c-0.2,0.42-0.26,0.76-0.33,1.31c-0.06,0.42-0.11,0.99-0.09,1.69"/>
	<line class="st5" x1="80.44" y1="3.86" x2="80.44" y2="7.79"/>
</g>
</svg>
