<?xml version="1.0" encoding="utf-8"?>
<!-- Generator: Adobe Illustrator 27.4.1, SVG Export Plug-In . SVG Version: 6.00 Build 0)  -->
<svg version="1.1" id="Layer_1" xmlns="http://www.w3.org/2000/svg" xmlns:xlink="http://www.w3.org/1999/xlink" x="0px" y="0px"
	 viewBox="0 0 126.77 133.1" style="enable-background:new 0 0 126.77 133.1;" xml:space="preserve">
<style type="text/css">
	.st0{fill:#808080;}
	.st1{fill:#DBDBDB;stroke:#4C4C4C;stroke-width:3;stroke-miterlimit:10;}
	.st2{fill:none;stroke:#4C4C4C;stroke-width:5;stroke-miterlimit:10;}
	.st3{fill:#DBDBDB;}
	.st4{fill:none;stroke:#4C4C4C;stroke-width:3;stroke-miterlimit:10;}
	.st5{fill:#3C3C3C;stroke:#3C3C3C;stroke-width:3;stroke-miterlimit:10;}
	.st6{fill:#9C9C9C;stroke:#3C3C3C;stroke-width:3;stroke-miterlimit:10;}
</style>
<path class="st0" d="M85.51,2.5H6.92C4.48,2.5,2.5,4.48,2.5,6.92v119.26c0,2.44,1.98,4.42,4.42,4.42h93.78
	c2.44,0,4.42-1.98,4.42-4.42V22.11L85.51,2.5z"/>
<path class="st1" d="M85.51,22.11h19.36c0.09,0,0.13-0.11,0.07-0.17L85.68,2.67c-0.06-0.06-0.17-0.02-0.17,0.07V22.11z"/>
<path class="st2" d="M84.84,2.5H6.92C4.48,2.5,2.5,4.48,2.5,6.92v119.26c0,2.44,1.98,4.42,4.42,4.42h93.78
	c2.44,0,4.42-1.98,4.42-4.42V22.78c0-0.43-0.17-0.84-0.48-1.15L85.98,2.98C85.68,2.67,85.27,2.5,84.84,2.5z"/>
<path class="st3" d="M120,108.18h-81.3c-2.91,0-5.27-2.36-5.27-5.27V44.15c0-2.91,2.36-5.27,5.27-5.27H120
	c2.91,0,5.27,2.36,5.27,5.27v58.76C125.27,105.82,122.91,108.18,120,108.18z"/>
<path class="st4" d="M120,108.18h-81.3c-2.91,0-5.27-2.36-5.27-5.27V44.15c0-2.91,2.36-5.27,5.27-5.27H120
	c2.91,0,5.27,2.36,5.27,5.27v58.76C125.27,105.82,122.91,108.18,120,108.18z"/>
<path class="st5" d="M104.69,85.89h-3.44V45.87c0-0.49,0.4-0.89,0.89-0.89h1.97c0.32,0,0.58,0.26,0.58,0.58V85.89z"/>
<ellipse class="st6" cx="95.55" cy="88.05" rx="9.13" ry="7.22"/>
<path class="st6" d="M65.24,53.56c-1.08-9.19,26.82-7.5,36.01-8.58c0.85-0.1,3.34-0.85,3.44,0c1.08,9.19-36.01,8.58-36.01,8.58
	S65.34,54.41,65.24,53.56z"/>
<path class="st5" d="M68.68,94.46h-3.44V54.14c0-0.32,0.26-0.58,0.58-0.58h2.86V94.46z"/>
<ellipse class="st6" cx="59.54" cy="95.27" rx="9.13" ry="7.22"/>
</svg>
