<?xml version="1.0" encoding="utf-8"?>
<!-- Generator: Adobe Illustrator 27.4.1, SVG Export Plug-In . SVG Version: 6.00 Build 0)  -->
<svg version="1.1" id="Layer_1" xmlns="http://www.w3.org/2000/svg" xmlns:xlink="http://www.w3.org/1999/xlink" x="0px" y="0px"
	 viewBox="0 0 126.77 133.1" style="enable-background:new 0 0 126.77 133.1;" xml:space="preserve">
<style type="text/css">
	.st0{fill:#808080;}
	.st1{fill:#DBDBDB;stroke:#4C4C4C;stroke-width:3;stroke-miterlimit:10;}
	.st2{fill:none;stroke:#4C4C4C;stroke-width:5;stroke-miterlimit:10;}
	.st3{fill:#DBDBDB;}
	.st4{fill:none;stroke:#4C4C4C;stroke-width:3;stroke-miterlimit:10;}
	.st5{fill:#C4C4C4;stroke:#424242;stroke-width:3;stroke-miterlimit:10;}
	.st6{fill:none;stroke:#424242;stroke-width:3;stroke-miterlimit:10;}
</style>
<path class="st0" d="M85.51,2.5H6.92C4.48,2.5,2.5,4.48,2.5,6.92v119.26c0,2.44,1.98,4.42,4.42,4.42h93.78
	c2.44,0,4.42-1.98,4.42-4.42V22.11L85.51,2.5z"/>
<path class="st1" d="M85.51,22.11h19.36c0.09,0,0.13-0.11,0.07-0.17L85.68,2.67c-0.06-0.06-0.17-0.02-0.17,0.07V22.11z"/>
<path class="st2" d="M84.84,2.5H6.92C4.48,2.5,2.5,4.48,2.5,6.92v119.26c0,2.44,1.98,4.42,4.42,4.42h93.78
	c2.44,0,4.42-1.98,4.42-4.42V22.78c0-0.43-0.17-0.84-0.48-1.15L85.98,2.98C85.68,2.67,85.27,2.5,84.84,2.5z"/>
<path class="st3" d="M120,108.18h-81.3c-2.91,0-5.27-2.36-5.27-5.27V44.15c0-2.91,2.36-5.27,5.27-5.27H120
	c2.91,0,5.27,2.36,5.27,5.27v58.76C125.27,105.82,122.91,108.18,120,108.18z"/>
<path class="st4" d="M120,108.18h-81.3c-2.91,0-5.27-2.36-5.27-5.27V44.15c0-2.91,2.36-5.27,5.27-5.27H120
	c2.91,0,5.27,2.36,5.27,5.27v58.76C125.27,105.82,122.91,108.18,120,108.18z"/>
<path class="st5" d="M77.58,56.26L54.71,63.1c-0.51,0.15-1.07,0.07-1.51-0.24c-0.95-0.67-2-1.04-3.09-1.04
	c-4.51,0-8.17,6.23-8.17,13.92c0,7.69,3.66,13.92,8.17,13.92c1.1,0,2.14-0.37,3.09-1.04c0.44-0.31,1-0.39,1.51-0.24l22.87,6.84
	c1.37,0.41,2.76-0.62,2.76-2.05V58.31C80.33,56.88,78.95,55.85,77.58,56.26z"/>
<ellipse class="st5" cx="80.33" cy="75.74" rx="11.92" ry="20.31"/>
<path class="st6" d="M97.27,68.18c0,0,6.42,7.75,0,14.17"/>
<path class="st6" d="M103.09,63.46c0,0,11.44,12.98,0,24.42"/>
<path class="st6" d="M109.23,58.49c0,0,14.85,18.55,0,34.5"/>
<ellipse class="st5" cx="78.73" cy="75.74" rx="3.59" ry="7.45"/>
</svg>
