<?xml version="1.0" encoding="utf-8"?>
<!-- Generator: Adobe Illustrator 27.4.1, SVG Export Plug-In . SVG Version: 6.00 Build 0)  -->
<svg version="1.1" id="Layer_1" xmlns="http://www.w3.org/2000/svg" xmlns:xlink="http://www.w3.org/1999/xlink" x="0px" y="0px"
	 viewBox="0 0 115 115" style="enable-background:new 0 0 115 115;" xml:space="preserve">
<style type="text/css">
	.st0{fill:#808080;stroke:#424242;stroke-width:5;stroke-miterlimit:10;}
	.st1{fill:#C4C4C4;stroke:#424242;stroke-width:3;stroke-miterlimit:10;}
	.st2{fill:#424242;}
</style>
<path class="st0" d="M76.9,112.5H7.72c-2.89,0-5.22-2.34-5.22-5.22V38.1c0-19.66,15.94-35.6,35.6-35.6h69.18
	c2.89,0,5.22,2.34,5.22,5.22V76.9C112.5,96.56,96.56,112.5,76.9,112.5z"/>
<rect x="20.09" y="19.12" class="st1" width="73.91" height="73.91"/>
<g>
	<g>
		<path class="st2" d="M63.45,47.43c-0.53-1.9-1.25-3.85-1.9-4.92c-0.95-1.6-1.54-2.02-4.8-2.02h-5.93v28.88
			c0,4.62,0.47,5.28,6.11,5.63v1.66H39.68V75c5.51-0.36,5.99-0.95,5.99-5.63V40.49h-5.4c-3.26,0-4.21,0.36-5.22,2.13
			c-0.71,1.19-1.19,2.61-1.96,4.8h-1.78c0.36-3.62,0.71-7.35,0.89-10.67h1.36c0.89,1.42,1.54,1.36,3.2,1.36h23.48
			c1.66,0,2.13-0.24,3.02-1.36h1.42c0,2.79,0.24,7.06,0.53,10.5L63.45,47.43z"/>
		<path class="st2" d="M80.65,76.6c-1.01,0.53-1.96,0.77-2.55,0.77c-3.79,0-5.81-2.31-5.81-7.06V53.06h-4.09l-0.24-0.71l1.6-1.72
			h2.73v-4.98c1.13-1.19,2.85-2.73,3.97-3.91l0.89,0.12c-0.12,2.49-0.18,5.93-0.18,8.78h6.76c0.53,0.59,0.36,1.9-0.36,2.43h-6.4
			v15.18c0,4.8,1.9,5.69,3.44,5.69c1.42,0,2.79-0.53,3.62-0.95l0.53,1.54L80.65,76.6z"/>
	</g>
</g>
</svg>
