<?xml version="1.0" encoding="utf-8"?>
<!-- Generator: Adobe Illustrator 27.4.0, SVG Export Plug-In . SVG Version: 6.00 Build 0)  -->
<svg version="1.1" id="Layer_8" xmlns="http://www.w3.org/2000/svg" xmlns:xlink="http://www.w3.org/1999/xlink" x="0px" y="0px"
	 viewBox="0 0 92.52 144.96" style="enable-background:new 0 0 92.52 144.96;" xml:space="preserve">
<style type="text/css">
	.st0{fill:#004544;stroke:#004544;stroke-width:3;stroke-linecap:round;stroke-linejoin:round;stroke-miterlimit:10;}
	.st1{fill:#009E9C;}
	.st2{fill:none;stroke:#2CF0D6;stroke-width:3;stroke-linecap:round;stroke-linejoin:round;stroke-miterlimit:10;}
	.st3{fill:#2CF0D6;}
	.st4{fill:none;stroke:#92FFEA;stroke-linecap:round;stroke-linejoin:round;stroke-miterlimit:10;}
	.st5{fill:none;stroke:#004544;stroke-width:4;stroke-linecap:round;stroke-linejoin:round;stroke-miterlimit:10;}
	.st6{fill:#004544;}
	.st7{fill:#92FFEA;}
</style>
<path class="st0" d="M78.46,40.85c6.33,0,11.45,1.26,11.45,2.81c0,7.22-14.31,18.17-23.59,18.17L18.47,11.44
	c0,0,6.28-2.78,6.28-2.78c1.2,0.19,3.07,0.64,5.08,1.78c1.91,1.08,3.2,2.37,3.98,3.27L43,6.06l0.05-1.58l6.68-2.98
	c2.22,1.36,5.18,3.52,7.94,6.85c1.62,1.95,2.8,3.85,3.67,5.49l5.29-2.68l5.7-2.51l0.79-0.17c2.36,0,4.26,5.85,4.26,13.08l1,0.24
	l5.8-0.24l0,0c0,10.66-3.49,19.29-7.12,19.29"/>
<path class="st1" d="M43.07,5.04c-2.41,1.02-5.87,2.89-8.67,6.4c-3.15,3.95-4,8.14-5.75,8.02c-1.48-0.11-1.33-3.15-4.42-5.56
	c-0.61-0.47-3.68-2.76-6.15-1.7c-2.24,0.96-2.84,4.18-3.18,5.96c-0.77,4.13,0.64,6.19-0.63,7.35c-1.63,1.49-4.75-1.14-6.13,0
	c-3.02,2.49,7.38,18.84,4.85,20.72c-0.67,0.5-1.55-0.53-4.46-0.68c-1.8-0.09-5.59,0.08-6.44,1.65c-1.28,2.36,4.09,7.89,7.26,10.46
	c3.09,2.5,8.22,5.21,33.77,6.53c12.56,0.65,17.02,0.27,21.98-1.2c1.88-0.56,8.4-2.62,14-8.29c1.38-1.4,5.24-5.31,4.14-7.5
	c-1.03-2.05-5.97-1.69-6.54-1.65c-3.62,0.29-5.31,1.93-5.99,1.27c-0.87-0.85,1.55-3.89,3.68-9.15c0.56-1.38,4.29-10.58,1.71-12.57
	c-1.56-1.2-4.23,1.18-5.8-0.19c-1.28-1.12-0.03-3.16-0.68-6.93c-0.11-0.64-1.03-5.94-3.4-6.52c-3.37-0.82-6.82,8.58-10.35,7.81
	c-1.77-0.38-1.88-2.96-4.11-6.45C49.27,8.9,45.84,6.51,43.07,5.04z"/>
<path class="st2" d="M45.65,9.31c-1.16,0.4-5.13,1.94-7.74,6.21c-2.12,3.46-2.14,6.82-2.13,8.77c0.07,8.41,5.57,14.34,7.32,16.09"/>
<path class="st2" d="M24.72,15.06c-2.04-0.52-2.54-0.36-3.09-0.11c-3.27,1.5-4.25,6.32-3.62,9.59c0.46,2.4,4.3,4.49,4.15,4.58
	c-0.29,0.18-7.34-4.96-6.65-9.66c0.31-2.12,1.62-3.66,2.53-4.54"/>
<path class="st2" d="M67.95,16.88c-0.83-0.36-2.89-1.09-4.85-0.26c-2.91,1.23-4.65,5.48-3.32,10.13"/>
<path class="st2" d="M23.78,29.56c-2.86-1.24-5.18,0.11-6.98,2.3c-0.49,0.6-3.02,3.84-0.17,10.46c1.9,4.4,7.47,11.44,17.87,18.89"/>
<path class="st2" d="M9.48,46.5c-2.09,0-1.94,2.37-2,2.84c-0.67,5.11,5.44,8.91,8.98,11.6c1.66,1.26,3.15,2.06,4.01,2.5"/>
<path class="st2" d="M45.65,9.31c-1.27-1.3-2.4-1.72-3.32-1.79c-7.53-0.56-17.91,16.22-14.04,21.7c0.57,0.81,0.96,0.65,2.55,1.7
	c6.87,4.52,6.82,12.13,10.47,12.6c0.95,0.12,2.35-0.22,4.25-2.34"/>
<path class="st2" d="M66.59,14.92c-0.84-0.29-1.94-0.5-3.15-0.26c-2.66,0.55-4.79,3.1-5.45,6.47"/>
<path class="st2" d="M25.05,28.88c-12.85-4.56-15.08-3.39-15.57-2.55c-0.15,0.26-0.16,0.75-0.17,1.7c-0.03,2.86,0.43,5.15,0.6,5.87
	c0.65,2.74,3.55,9.58,8.73,18"/>
<path class="st2" d="M11.1,46.12c-6.39-1.35-7.98,0.41-8.34,1.06c-1.44,2.56,5.84,9.14,8.34,11.32"/>
<path class="st2" d="M45.99,60.03c-2.6-6.18-2.6-11.08-2.29-14c0.1-0.9,0.19-1.76,0.5-2.85c0.84-2.94,2.97-6.66,10.13-11.06
	c7.5-4.62,16.2-7.33,16.68-6.3c0.45,0.96-6.95,3.62-13.28,10.3c-7.43,7.84-9.89,17.56-10.81,24.51"/>
<g>
	<g>
		<path class="st3" d="M60.3,28.6c-0.67,0.87-1.95,1.33-2.82,1.97c-0.98,0.73-1.88,1.55-2.73,2.43c-1.84,1.87-3.66,3.79-5.29,5.85
			c-3.19,4.02-5.7,8.94-5,14.22c0.19,1.47,1.89,2.04,2.8,0.76c1.39-1.96,1.88-4.31,2.54-6.58c0.67-2.31,1.78-4.37,3.43-6.13
			c1.32-1.41-0.8-3.54-2.12-2.12c-1.72,1.84-3.03,3.97-3.85,6.35c-0.82,2.36-1.11,4.88-2.58,6.96c0.93,0.25,1.86,0.5,2.8,0.76
			c-0.67-5.11,1.97-9.64,5.19-13.38c1.57-1.82,3.22-3.62,4.96-5.29c1.65-1.59,3.9-2.46,5.3-4.28c0.5-0.65,0.09-1.67-0.54-2.05
			C61.58,27.61,60.79,27.97,60.3,28.6L60.3,28.6z"/>
	</g>
</g>
<g>
	<g>
		<path class="st3" d="M40.73,8.32c-0.24,0.38-0.95,0.65-1.31,0.9c-0.53,0.37-1.04,0.76-1.53,1.17c-0.99,0.82-1.91,1.75-2.73,2.74
			c-1.69,2.01-3.07,4.25-4.16,6.64c-0.55,1.2-1.05,2.42-1.49,3.66c-0.43,1.19-1.04,2.53-1.05,3.8c-0.02,1.33,0.87,2.27,1.76,3.13
			c1.09,1.06,2.19,2.11,3.28,3.17c1.16,1.12,2.73-0.05,2.51-1.46c-0.56-3.62-0.81-7.28-0.78-10.94c0.01-1.93-2.99-1.93-3,0
			c-0.03,3.94,0.29,7.85,0.89,11.74c0.84-0.49,1.67-0.97,2.51-1.46c-0.93-0.9-1.86-1.8-2.79-2.7c-0.38-0.36-1.06-0.79-1.28-1.27
			c-0.18-0.38,0.06-0.84,0.18-1.23c0.73-2.35,1.63-4.65,2.8-6.81c1.07-1.98,2.35-3.84,3.93-5.45c0.77-0.78,1.59-1.52,2.49-2.15
			c0.87-0.61,1.81-1.05,2.39-1.97C44.35,8.19,41.75,6.69,40.73,8.32L40.73,8.32z"/>
	</g>
</g>
<g>
	<g>
		<path class="st3" d="M34.29,34.25c1.01,1.41,1.56,3.08,2.51,4.52c0.51,0.77,1.11,1.44,1.83,2.02c0.31,0.25,0.63,0.49,0.92,0.76
			c0.07,0.07,0.14,0.13,0.21,0.2c0.03,0.03,0.26,0.27,0.11,0.11c-0.14-0.15,0.06,0.09,0.08,0.13c0.04,0.07,0.2,0.39,0.06,0.06
			c0.3,0.72,1.01,1.32,1.85,1.05c0.69-0.22,1.37-1.07,1.05-1.85c-0.41-0.97-1.01-1.68-1.83-2.32c-0.31-0.25-0.63-0.49-0.92-0.77
			c-0.15-0.14-0.3-0.3-0.44-0.46c-0.03-0.03-0.27-0.36-0.08-0.09c-0.06-0.09-0.12-0.17-0.18-0.26c-1-1.46-1.55-3.18-2.59-4.62
			c-0.45-0.64-1.33-1-2.05-0.54C34.19,32.61,33.8,33.57,34.29,34.25L34.29,34.25z"/>
	</g>
</g>
<g>
	<g>
		<path class="st3" d="M11.58,30.01c-0.37,0.06,0.08,0.01,0.16,0c0.12,0,0.25,0,0.37,0.01c0.08,0.01,0.53,0,0.16,0.01
			c0.12,0,0.26,0.04,0.37,0.07c0.52,0.11,1.03,0.26,1.54,0.4c1.08,0.31,2.17,0.61,3.25,0.92c0.75,0.21,1.67-0.26,1.85-1.05
			c0.18-0.8-0.24-1.62-1.05-1.85c-1.17-0.33-2.33-0.66-3.5-0.99c-0.55-0.15-1.09-0.31-1.65-0.4c-0.79-0.13-1.49-0.14-2.28-0.02
			c-0.35,0.05-0.73,0.4-0.9,0.69c-0.19,0.32-0.27,0.8-0.15,1.16C10.01,29.81,10.75,30.13,11.58,30.01L11.58,30.01z"/>
	</g>
</g>
<g>
	<g>
		<path class="st3" d="M10.81,29.29c0.13,0.61,0.26,1.22,0.39,1.83c0.06,0.27,0.1,0.54,0.18,0.8c0.17,0.56,0.49,1.04,1,1.34
			c0.33,0.2,0.78,0.25,1.16,0.15c0.35-0.1,0.73-0.36,0.9-0.69c0.18-0.35,0.28-0.77,0.15-1.16c-0.12-0.37-0.35-0.69-0.69-0.9
			c-0.02-0.01-0.05-0.03-0.07-0.05c0.1,0.08,0.2,0.16,0.3,0.23c-0.03-0.03-0.06-0.06-0.09-0.09c0.08,0.1,0.16,0.2,0.23,0.3
			c-0.04-0.06-0.08-0.12-0.1-0.19c0.05,0.12,0.1,0.24,0.15,0.36c-0.07-0.19-0.11-0.38-0.15-0.58c-0.05-0.25-0.1-0.49-0.16-0.74
			c-0.1-0.48-0.2-0.96-0.31-1.44c-0.08-0.36-0.38-0.72-0.69-0.9c-0.32-0.19-0.8-0.27-1.16-0.15c-0.36,0.12-0.71,0.34-0.9,0.69
			C10.77,28.5,10.72,28.88,10.81,29.29L10.81,29.29z"/>
	</g>
</g>
<g>
	<g>
		<path class="st3" d="M12.66,30.79c-0.38,0.93-0.57,1.94-0.61,2.94c-0.02,0.37,0.18,0.8,0.44,1.06c0.26,0.26,0.69,0.46,1.06,0.44
			c0.39-0.02,0.79-0.14,1.06-0.44c0.28-0.3,0.42-0.65,0.44-1.06c0.01-0.23,0.03-0.47,0.06-0.7c-0.02,0.13-0.04,0.27-0.05,0.4
			c0.09-0.63,0.25-1.25,0.49-1.84c0.06-0.2,0.07-0.4,0.03-0.6c-0.01-0.2-0.07-0.39-0.18-0.56c-0.18-0.31-0.54-0.61-0.9-0.69
			c-0.38-0.09-0.81-0.07-1.16,0.15c-0.1,0.08-0.2,0.16-0.3,0.23C12.86,30.32,12.73,30.54,12.66,30.79L12.66,30.79z"/>
	</g>
</g>
<g>
	<g>
		<path class="st3" d="M10.17,32.47c0.7,2.31,1.29,4.7,2.2,6.93c0.86,2.11,2.29,3.91,3.24,5.98c0.89,1.94,1.75,3.86,3.24,5.42
			c1.37,1.44,3.14,2.52,4.02,4.37c0.84,1.74,3.42,0.22,2.59-1.51c-0.85-1.77-2.36-2.96-3.77-4.26c-1.58-1.47-2.46-3.25-3.34-5.19
			c-0.89-1.95-2.23-3.66-3.09-5.6c-0.97-2.2-1.51-4.64-2.21-6.93C12.5,29.83,9.61,30.61,10.17,32.47L10.17,32.47z"/>
	</g>
</g>
<g>
	<g>
		<path class="st3" d="M4.46,49.27c1.93,0,1.93-3,0-3C2.53,46.27,2.52,49.27,4.46,49.27L4.46,49.27z"/>
	</g>
</g>
<path class="st2" d="M13.5,46.01c-0.35-0.07-1.98-0.42-3.45,0.49c-1.46,0.9-1.98,2.11-2.11,2.54c-0.11,0.4-0.58,1.83-0.02,3.49
	c0.26,0.75,0.63,1.29,0.91,1.63"/>
<g>
	<g>
		<path class="st3" d="M5.31,51.21c1.93,0,1.93-3,0-3C3.38,48.21,3.38,51.21,5.31,51.21L5.31,51.21z"/>
	</g>
</g>
<path class="st2" d="M79.32,54.42c0.09-0.27,1.09-1.18,0.19-2.39c-0.77-1.03-2.11-1.13-3.23-1.19c-2.44-0.14-4.35,0.74-5.11,1.11
	c-4.61,2.22-10.12,5.14-11.85,6.69"/>
<g>
	<g>
		<path class="st3" d="M80.79,47.17c-0.8-0.35-1.61-0.54-2.49-0.47c-0.84,0.07-1.64,0.28-2.45,0.52c-0.36,0.1-0.72,0.2-1.09,0.28
			c-0.19,0.04-0.37,0.08-0.56,0.11c-0.11,0.02-0.21,0.03-0.32,0.05c0.1-0.01,0.1-0.02-0.01,0c-0.78,0.09-1.57,0.1-2.36,0.05
			c-0.78-0.05-1.53,0.73-1.5,1.5c0.04,0.86,0.66,1.45,1.5,1.5c1.51,0.1,3.05-0.05,4.52-0.42c0.66-0.17,1.31-0.4,1.99-0.53
			c0.08-0.02,0.15-0.03,0.23-0.04c-0.15,0.02-0.14,0.02,0.04,0c0.15-0.01,0.3-0.02,0.44-0.02c0.07,0,0.45,0.05,0.19,0
			c0.06,0.01,0.57,0.17,0.34,0.07c0.72,0.31,1.64,0.23,2.05-0.54C81.67,48.57,81.55,47.51,80.79,47.17L80.79,47.17z"/>
	</g>
</g>
<path class="st4" d="M34.98,18.69c-0.29,2.51-1.06,5.93,0.29,9.64c1.59,4.37,2.58,5.56,2.26,5.87c-0.25,0.24-0.27,0.48-7.23-5.93"/>
<path class="st4" d="M30.27,28.16c-0.02-1.02,0.07-2.65,0.76-4.48c0.87-2.33,3.15-4.24,3.95-4.99"/>
<path class="st4" d="M37.29,15.16c0.36-0.67,0.63-0.93,1.61-1.86c1-0.95,2.17-1.63,2.86-1.95"/>
<path class="st4" d="M40.09,11.16c0.52,0.12,1.16,0.08,1.68,0.19"/>
<path class="st4" d="M37.29,15.16c0.63-1.47,1.64-2.49,2.79-4"/>
<path class="st4" d="M17.23,22.44c-0.02-0.18-0.05-0.44-0.05-0.74c0-0.35,0-1.43,0.57-2.51c0.44-0.83,1.11-1.46,1.21-1.37
	c0.12,0.1-0.65,1.03-0.88,2.46c-0.16,0.99-0.12,1.97,0.07,2.6"/>
<path class="st4" d="M17.29,22.65c0.29,0.08,0.58,0.15,0.87,0.23"/>
<path class="st4" d="M17.51,30.6c-0.09-0.41-2.01-0.33-3.12-0.29c-0.89,0.03-1.33,0.05-1.52,0.18c-1.37,0.88-0.36,5.26,1.46,8.25
	c0.54,0.89,1.06,1.51,1.21,1.43c0.25-0.13-0.94-2.04-0.86-4.71c0.02-0.91,0.07-2.46,1.11-3.57C16.6,31.02,17.57,30.89,17.51,30.6z"
	/>
<path class="st4" d="M7.9,48.89c-0.35-0.3-1.5-0.01-1.73-0.1c0,0-0.01,0-0.02,0c-0.08,0.04,0.17,0.9,0.78,1.52
	c0.23,0.23,0.38,0.38,0.55,0.36C7.95,50.59,8.3,49.23,7.9,48.89z"/>
<path class="st4" d="M61.95,32.66c0.01,0.03-0.22,0.16-0.36,0.24c-1.84,1.05-4.28,3.41-5.36,4.59c-3.68,4.04-4.23,8.44-5.31,8.23
	c-0.68-0.13-0.89-1.97-0.94-2.39c-0.03-0.3-0.14-1.43,0.45-2.88c0.9-2.21,2.74-3.45,4.64-4.7C58.43,33.54,61.9,32.55,61.95,32.66z"
	/>
<path class="st4" d="M62.84,17.07c-0.45,0.32-1.1,0.87-1.67,1.74c-0.65,1-0.81,1.83-1.2,1.87c-0.36,0.03-0.78-0.65-0.72-1.23
	C59.41,17.96,62.67,17.11,62.84,17.07z"/>
<path class="st4" d="M77.18,50.67c-0.05,0.14-1.11-0.46-2.6-0.13c-1.38,0.31-1.99,1.18-2.32,0.94c-0.34-0.25-0.19-1.47,0.5-2
	C74.14,48.41,77.26,50.43,77.18,50.67z"/>
<path class="st5" d="M14.2,25.52c-0.19-1.53-0.32-4.22,0.63-7.35c0.86-2.81,2.24-4.81,3.18-5.96"/>
<path class="st5" d="M28.58,19.46c-0.57-1.17-1.67-2.72-4.09-4.58c-2.33-1.79-5.22-2.42-6.49-2.68"/>
<path class="st5" d="M25.82,29.5c0.25-2.58,0.91-6.03,2.67-9.72C32.66,11,40.16,6.42,43,5.05"/>
<path class="st5" d="M57.64,29.32c-0.07-2.51-0.5-6.02-2.07-9.86C52.22,11.32,45.57,6.58,43,5.05"/>
<path class="st5" d="M70.19,25.35c0.19-1.53,0.32-4.22-0.63-7.35c-0.86-2.81-2.24-4.81-3.18-5.96"/>
<path class="st5" d="M55.81,19.29c0.57-1.17,1.67-2.72,4.09-4.58c2.33-1.79,5.22-2.42,6.49-2.68"/>
<path class="st5" d="M45.26,63.28c0-20.87-16.63-37.76-37.19-37.76"/>
<path class="st5" d="M8.08,25.52c0,20.87,16.63,37.76,37.19,37.76"/>
<path class="st5" d="M76.03,25.52c0,20.87-14.42,37.76-32.23,37.76"/>
<path class="st5" d="M43.13,50.65c0-13.76,14.84-25.54,32.9-25.54"/>
<path class="st5" d="M44.78,63.28C39.85,64,33.15,65.13,25.4,63.99c-4.98-0.73-7.5-1.42-11.37-3.28c-4.11-1.98-7.02-5.04-7.48-5.55
	c-2.83-3.11-4.11-6.08-4.53-7.94"/>
<path class="st5" d="M14.55,46.83c-1.27-0.54-3.59-1.34-6.56-1.27C5.31,45.62,3.23,46.34,2,46.88"/>
<path class="st5" d="M40.42,63.28c4.93,0.72,11.62,1.85,19.38,0.71c4.98-0.73,7.5-1.42,11.37-3.28c4.11-1.98,7.02-5.04,7.48-5.55
	c2.83-3.11,4.11-6.08,4.53-7.94"/>
<path class="st5" d="M70.64,46.83c1.27-0.54,3.59-1.34,6.56-1.27c2.67,0.06,4.76,0.78,5.99,1.31"/>
<g>
	<g>
		<path class="st3" d="M11.18,30.66c0.64,0,0.64-1,0-1C10.54,29.66,10.54,30.66,11.18,30.66L11.18,30.66z"/>
	</g>
</g>
<g>
	<g>
		<path class="st3" d="M11.18,30.57c0.64,0,0.64-1,0-1C10.54,29.57,10.54,30.57,11.18,30.57L11.18,30.57z"/>
	</g>
</g>
<g>
	<g>
		<path class="st3" d="M11.01,31.08c0.64,0,0.64-1,0-1C10.37,30.08,10.37,31.08,11.01,31.08L11.01,31.08z"/>
	</g>
</g>
<g>
	<g>
		<path class="st3" d="M6.06,51.18c0.16,0,0.16-0.25,0-0.25C5.9,50.93,5.89,51.18,6.06,51.18L6.06,51.18z"/>
	</g>
</g>
<g>
	<g>
		<path class="st3" d="M6.02,51.14c0.16,0,0.16-0.25,0-0.25C5.86,50.89,5.86,51.14,6.02,51.14L6.02,51.14z"/>
	</g>
</g>
<g>
	<g>
		<path class="st3" d="M6.04,51.17c0.16,0,0.16-0.25,0-0.25C5.88,50.92,5.88,51.17,6.04,51.17L6.04,51.17z"/>
	</g>
</g>
<g>
	<g>
		<path class="st3" d="M6.05,51.19c0.16,0,0.16-0.25,0-0.25C5.89,50.94,5.89,51.19,6.05,51.19L6.05,51.19z"/>
	</g>
</g>
<g>
	<g>
		<path class="st3" d="M6.08,51.22c0.16,0,0.16-0.25,0-0.25C5.91,50.97,5.91,51.22,6.08,51.22L6.08,51.22z"/>
	</g>
</g>
<g>
	<g>
		<path class="st3" d="M6.1,51.25c0.16,0,0.16-0.25,0-0.25C5.94,51,5.94,51.25,6.1,51.25L6.1,51.25z"/>
	</g>
</g>
<g>
	<g>
		<path class="st3" d="M6.1,51.26c0.16,0,0.16-0.25,0-0.25C5.94,51.01,5.94,51.26,6.1,51.26L6.1,51.26z"/>
	</g>
</g>
<g>
	<g>
		<path class="st3" d="M6.1,51.26c0.16,0,0.16-0.25,0-0.25C5.94,51.01,5.94,51.26,6.1,51.26L6.1,51.26z"/>
	</g>
</g>
<g>
	<g>
		<path class="st3" d="M6.12,51.29c0.16,0,0.16-0.25,0-0.25C5.96,51.04,5.96,51.29,6.12,51.29L6.12,51.29z"/>
	</g>
</g>
<g>
	<g>
		<path class="st3" d="M6.43,48.02c-0.17,0.07-0.36,0.07-0.54,0.13C5.7,48.2,5.51,48.27,5.32,48.3c-0.07,0.01-0.1,0.09-0.09,0.15
			c0.02,0.07,0.09,0.1,0.15,0.09c0.2-0.03,0.38-0.1,0.57-0.15c0.18-0.05,0.37-0.06,0.54-0.13c0.06-0.02,0.11-0.08,0.09-0.15
			C6.56,48.05,6.49,48,6.43,48.02L6.43,48.02z"/>
	</g>
</g>
<g>
	<g>
		<path class="st3" d="M6.02,47.93C6.01,47.93,6.02,47.93,6.02,47.93C6.03,47.93,6.02,47.93,6.02,47.93
			C6.01,47.93,6,47.93,5.99,47.93c-0.02,0-0.04,0.01-0.07,0.01c-0.04,0.01-0.09,0.02-0.13,0.03c-0.04,0.01-0.09,0.02-0.13,0.04
			c-0.04,0.01-0.08,0.03-0.12,0.04c-0.06,0.01-0.11,0.09-0.09,0.15c0.02,0.07,0.08,0.1,0.15,0.09c0.04-0.01,0.09-0.03,0.13-0.04
			c0.04-0.01,0.09-0.03,0.13-0.04C5.91,48.2,5.96,48.19,6,48.18c0.05-0.01,0.1-0.01,0.15-0.04c0.06-0.03,0.08-0.11,0.04-0.17
			C6.16,47.91,6.09,47.89,6.02,47.93L6.02,47.93z"/>
	</g>
</g>
<g>
	<g>
		<path class="st3" d="M6.15,47.76c-0.18,0.03-0.36,0.06-0.54,0.11c-0.06,0.02-0.11,0.09-0.09,0.15c0.02,0.06,0.09,0.11,0.15,0.09
			c0.18-0.05,0.36-0.08,0.54-0.11c0.03,0,0.06-0.03,0.07-0.06c0.02-0.03,0.02-0.07,0.01-0.1c-0.01-0.03-0.03-0.06-0.06-0.07
			C6.21,47.76,6.18,47.76,6.15,47.76L6.15,47.76z"/>
	</g>
</g>
<g>
	<g>
		<path class="st3" d="M6.21,47.97c0.16,0,0.16-0.25,0-0.25C6.05,47.72,6.05,47.97,6.21,47.97L6.21,47.97z"/>
	</g>
</g>
<g>
	<g>
		<path class="st3" d="M5.94,48.01c0.16,0,0.16-0.25,0-0.25C5.78,47.76,5.78,48.01,5.94,48.01L5.94,48.01z"/>
	</g>
</g>
<g>
	<g>
		<path class="st3" d="M5.98,48.01c0.16,0,0.16-0.25,0-0.25C5.82,47.76,5.82,48.01,5.98,48.01L5.98,48.01z"/>
	</g>
</g>
<g>
	<g>
		<path class="st3" d="M6.02,48C6.02,48,6.02,48,6.02,48c0.03,0,0.07-0.01,0.09-0.04c0.02-0.02,0.04-0.06,0.04-0.09
			c0-0.03-0.01-0.07-0.04-0.09c-0.02-0.02-0.05-0.04-0.09-0.04c0,0,0,0,0,0c-0.03,0-0.07,0.01-0.09,0.04
			c-0.02,0.02-0.04,0.06-0.04,0.09c0,0.03,0.01,0.07,0.04,0.09C5.96,47.98,5.99,48,6.02,48L6.02,48z"/>
	</g>
</g>
<g>
	<g>
		<path class="st3" d="M6.05,47.99c0.16,0,0.16-0.25,0-0.25C5.89,47.74,5.89,47.99,6.05,47.99L6.05,47.99z"/>
	</g>
</g>
<g>
	<g>
		<path class="st3" d="M6.1,47.98c0.16,0,0.16-0.25,0-0.25C5.94,47.73,5.94,47.98,6.1,47.98L6.1,47.98z"/>
	</g>
</g>
<g>
	<g>
		<path class="st3" d="M70.61,50.32c-0.52,0.58-0.83,1.33-0.87,2.11c-0.01,0.16,0.24,0.16,0.25,0c0.04-0.71,0.32-1.4,0.8-1.93
			C70.9,50.38,70.72,50.2,70.61,50.32L70.61,50.32z"/>
	</g>
</g>
<g>
	<g>
		<path class="st3" d="M70.66,50.54c0.16,0,0.16-0.25,0-0.25C70.5,50.29,70.5,50.54,70.66,50.54L70.66,50.54z"/>
	</g>
</g>
<g>
	<g>
		<path class="st3" d="M70.63,50.58c0.16,0,0.16-0.25,0-0.25C70.47,50.33,70.47,50.58,70.63,50.58L70.63,50.58z"/>
	</g>
</g>
<g>
	<g>
		<path class="st3" d="M70.61,50.61c0.16,0,0.16-0.25,0-0.25C70.45,50.36,70.45,50.61,70.61,50.61L70.61,50.61z"/>
	</g>
</g>
<g>
	<g>
		<path class="st3" d="M70.58,50.65c0.16,0,0.16-0.25,0-0.25C70.42,50.4,70.42,50.65,70.58,50.65L70.58,50.65z"/>
	</g>
</g>
<g>
	<g>
		<path class="st3" d="M70.56,50.68c0.16,0,0.16-0.25,0-0.25C70.4,50.43,70.4,50.68,70.56,50.68L70.56,50.68z"/>
	</g>
</g>
<g>
	<g>
		<path class="st3" d="M70.53,50.73c0.16,0,0.16-0.25,0-0.25C70.37,50.48,70.37,50.73,70.53,50.73L70.53,50.73z"/>
	</g>
</g>
<g>
	<g>
		<path class="st3" d="M70.51,50.76c0.16,0,0.16-0.25,0-0.25C70.34,50.51,70.34,50.76,70.51,50.76L70.51,50.76z"/>
	</g>
</g>
<g>
	<g>
		<path class="st3" d="M70.49,50.54C70.49,50.54,70.49,50.54,70.49,50.54c-0.03,0-0.07,0.01-0.09,0.04
			c-0.02,0.02-0.04,0.06-0.04,0.09c0,0.03,0.01,0.07,0.04,0.09c0.02,0.02,0.05,0.04,0.09,0.04c0,0,0,0,0,0
			c0.03,0,0.07-0.01,0.09-0.04c0.02-0.02,0.04-0.06,0.04-0.09c0-0.03-0.01-0.07-0.04-0.09C70.55,50.55,70.52,50.54,70.49,50.54
			L70.49,50.54z"/>
	</g>
</g>
<g>
	<g>
		<path class="st3" d="M78.61,49.86c0.14,0,0.27,0,0.41,0c0.07,0,0.13,0,0.2,0c0.01,0,0.03,0,0.04,0c0,0,0.04,0,0.02,0
			c0.01,0,0.03,0.01,0.04,0.01c0.01,0,0.02,0.01,0.03,0.01c0.02,0.01,0.02,0.01-0.01-0.01c-0.01-0.03-0.02-0.06-0.04-0.09
			c0,0,0,0.01,0,0.01c0.01-0.02,0.01-0.04,0.02-0.06c0.01-0.01-0.02,0.02-0.03,0.02c-0.01,0.01-0.01,0.01-0.01,0.01
			c-0.01,0-0.01,0.01-0.02,0.01c-0.03,0.02-0.06,0.03-0.09,0.05c-0.06,0.02-0.07,0.11-0.05,0.16c0.02,0.05,0.09,0.09,0.15,0.07
			c0.07-0.02,0.12-0.06,0.16-0.12c0.03-0.05,0.02-0.11-0.02-0.15c-0.04-0.04-0.1-0.04-0.15-0.02c-0.07,0.03-0.14,0.08-0.2,0.14
			c-0.05,0.05-0.05,0.13,0,0.18c0.05,0.05,0.12,0.04,0.18,0c0.09-0.07,0.08-0.2,0.01-0.28c-0.01,0.07-0.02,0.13-0.03,0.2
			c-0.01,0,0.02-0.01,0.02-0.01c0.07-0.02,0.1-0.09,0.09-0.15c-0.02-0.07-0.09-0.1-0.15-0.09c-0.03,0.01-0.06,0.02-0.08,0.03
			c-0.07,0.04-0.08,0.14-0.03,0.2c-0.01-0.01-0.02-0.02-0.02-0.04c0-0.01,0.01-0.02,0.01-0.04c0.01-0.01,0.01-0.01,0,0
			c0.06,0.06,0.12,0.12,0.18,0.18c0.04-0.04,0.08-0.07,0.15-0.1c-0.06-0.06-0.11-0.11-0.17-0.17c-0.01,0.01-0.01,0.01,0,0.01
			c0-0.01,0,0-0.01,0.01c0.02,0-0.02,0,0,0c0.03,0.08,0.06,0.15,0.1,0.23c0.04-0.02,0.08-0.04,0.12-0.07
			c0.05-0.04,0.12-0.09,0.13-0.16c0.02-0.16-0.17-0.19-0.29-0.2c-0.21-0.02-0.43,0-0.65,0c-0.07,0-0.13,0.06-0.12,0.12
			C78.49,49.8,78.54,49.86,78.61,49.86L78.61,49.86z"/>
	</g>
</g>
<g>
	<g>
		<path class="st3" d="M79.53,49.67c-0.04,0.03-0.07,0.08-0.1,0.12c-0.03,0.04-0.06,0.08-0.08,0.13c-0.05,0.09-0.12,0.17-0.14,0.27
			c-0.02,0.07,0.04,0.16,0.12,0.16c0.07,0,0.14-0.04,0.17-0.1c0.03-0.06,0.02-0.14-0.04-0.17c-0.06-0.03-0.14-0.02-0.17,0.04
			c-0.01,0.01,0,0.01,0.01-0.01c-0.01,0.01-0.01,0.01,0.01-0.01c-0.01,0.01-0.01,0,0.01,0c-0.01,0-0.01,0,0.01,0
			c0.04,0.05,0.08,0.11,0.12,0.16c0-0.01,0.01-0.02,0.01-0.03c0-0.01,0-0.01,0,0.01c0,0,0-0.01,0.01-0.01
			c0.01-0.02,0.02-0.04,0.03-0.06c0.02-0.04,0.05-0.08,0.07-0.12c0.03-0.04,0.05-0.08,0.08-0.12c0.01-0.01,0.01-0.02,0.02-0.03
			c0,0,0.01-0.01,0.01-0.01c-0.01,0.01-0.01,0.02,0,0.01c0.01-0.02,0.03-0.03,0.05-0.04c0.02-0.02,0.04-0.06,0.04-0.09
			c0-0.03-0.01-0.07-0.04-0.09c-0.02-0.02-0.06-0.04-0.09-0.04C79.58,49.64,79.55,49.65,79.53,49.67L79.53,49.67z"/>
	</g>
</g>
<g>
	<g>
		<path class="st3" d="M79.59,49.79c0,0.01,0,0.03,0,0.04c0-0.02,0-0.02,0-0.01c0,0,0,0.01,0,0.01c0,0.02-0.01,0.04-0.02,0.06
			c-0.01,0.02-0.01,0.04-0.02,0.06c0,0.01-0.01,0.03,0,0c0,0.01-0.01,0.02-0.01,0.03c-0.04,0.08-0.07,0.17-0.11,0.25
			c-0.01,0.03-0.02,0.06-0.01,0.1c0.01,0.03,0.03,0.06,0.06,0.07c0.06,0.03,0.14,0.02,0.17-0.04c0.01-0.01,0.02-0.03,0.02-0.04
			c0.03-0.06,0.02-0.14-0.04-0.17c-0.06-0.03-0.14-0.02-0.17,0.04c-0.01,0.01-0.02,0.03-0.02,0.04c0.07,0.04,0.14,0.08,0.22,0.13
			c0.04-0.09,0.08-0.18,0.12-0.27c0.04-0.1,0.08-0.2,0.09-0.31c0-0.07-0.06-0.13-0.12-0.12C79.65,49.66,79.59,49.72,79.59,49.79
			L79.59,49.79z"/>
	</g>
</g>
<g>
	<g>
		<path class="st3" d="M79.73,49.74c-0.03,0.06-0.06,0.11-0.1,0.17c-0.04,0.06-0.07,0.11-0.11,0.17c-0.08,0.12-0.15,0.23-0.23,0.35
			c-0.04,0.05-0.01,0.14,0.04,0.17c0.06,0.03,0.13,0.01,0.17-0.04c0.08-0.12,0.15-0.23,0.23-0.35c0.04-0.06,0.07-0.11,0.11-0.17
			c0.04-0.05,0.07-0.11,0.1-0.17c0.03-0.06,0.02-0.14-0.04-0.17C79.84,49.67,79.75,49.68,79.73,49.74L79.73,49.74z"/>
	</g>
</g>
<g>
	<g>
		<path class="st3" d="M79.74,49.81c0,0.01-0.01,0.01-0.01,0.02c0.01-0.02,0,0,0,0c-0.01,0.01-0.01,0.03-0.02,0.04
			c-0.01,0.03-0.03,0.05-0.04,0.08c-0.03,0.06-0.07,0.11-0.11,0.16c-0.08,0.1-0.16,0.21-0.23,0.31c-0.03,0.06-0.01,0.14,0.04,0.17
			c0.06,0.03,0.13,0.01,0.17-0.04c0.07-0.11,0.15-0.22,0.23-0.32c0.08-0.11,0.15-0.23,0.2-0.36c0.02-0.06-0.03-0.14-0.09-0.15
			C79.82,49.71,79.77,49.75,79.74,49.81L79.74,49.81z"/>
	</g>
</g>
<g>
	<g>
		<path class="st3" d="M79.61,50.06c0,0.01-0.01,0.02-0.01,0.04C79.6,50.08,79.61,50.07,79.61,50.06c-0.03,0.07-0.07,0.12-0.11,0.17
			c0.01-0.01,0.01-0.02,0.02-0.03c-0.05,0.06-0.09,0.12-0.14,0.17c-0.02,0.03-0.04,0.05-0.04,0.09c0,0.03,0.01,0.07,0.04,0.09
			c0.02,0.02,0.06,0.04,0.09,0.04c0.03,0,0.07-0.01,0.09-0.04c0.06-0.07,0.11-0.14,0.17-0.21c0.05-0.07,0.11-0.14,0.13-0.22
			c0.01-0.06-0.02-0.14-0.09-0.15C79.7,49.96,79.63,49.99,79.61,50.06L79.61,50.06z"/>
	</g>
</g>
<g>
	<g>
		<path class="st3" d="M63.15,29.58c0.16,0,0.16-0.25,0-0.25C62.99,29.33,62.99,29.58,63.15,29.58L63.15,29.58z"/>
	</g>
</g>
<g>
	<g>
		<path class="st3" d="M63.2,29.57c0.16,0,0.16-0.25,0-0.25C63.04,29.32,63.04,29.57,63.2,29.57L63.2,29.57z"/>
	</g>
</g>
<g>
	<g>
		<path class="st3" d="M63.28,29.54c0.06-0.03,0.09-0.04,0.15-0.06c0.06-0.02,0.11-0.03,0.17-0.05c0.12-0.04,0.25-0.07,0.37-0.11
			c0.06-0.02,0.11-0.09,0.09-0.15c-0.02-0.06-0.09-0.11-0.15-0.09c-0.13,0.04-0.26,0.07-0.39,0.11c-0.13,0.04-0.25,0.07-0.37,0.13
			c-0.06,0.03-0.08,0.11-0.04,0.17C63.15,29.55,63.22,29.58,63.28,29.54L63.28,29.54z"/>
	</g>
</g>
<g>
	<g>
		<path class="st3" d="M29.23,24.57c-0.04-0.26,0.02-0.49,0.12-0.73c0.1-0.25,0.2-0.49,0.3-0.73c0.2-0.49,0.41-0.98,0.62-1.47
			c0.06-0.15-0.15-0.27-0.22-0.13c-0.23,0.53-0.45,1.06-0.67,1.59c-0.21,0.5-0.47,0.98-0.4,1.54
			C29.01,24.79,29.25,24.72,29.23,24.57L29.23,24.57z"/>
	</g>
</g>
<g>
	<g>
		<path class="st3" d="M29.66,22.83c0.34-1.11,1.08-2.03,1.65-3.02c0.08-0.14-0.13-0.27-0.22-0.13c-0.59,1.01-1.33,1.95-1.68,3.08
			C29.38,22.91,29.62,22.98,29.66,22.83L29.66,22.83z"/>
	</g>
</g>
<g>
	<g>
		<path class="st3" d="M32.78,16.44c-1.24,1.66-2.26,3.47-3.05,5.39c-0.06,0.15,0.18,0.21,0.24,0.07c0.78-1.89,1.8-3.68,3.02-5.33
			C33.09,16.44,32.88,16.32,32.78,16.44L32.78,16.44z"/>
	</g>
</g>
<g>
	<g>
		<path class="st3" d="M31.1,19.23c-0.38,0.68-0.7,1.4-0.94,2.14c-0.05,0.15,0.19,0.22,0.24,0.07c0.24-0.72,0.54-1.42,0.92-2.08
			C31.4,19.22,31.18,19.09,31.1,19.23L31.1,19.23z"/>
	</g>
</g>
<g>
	<g>
		<path class="st3" d="M29.81,22.08c0.16,0,0.16-0.25,0-0.25C29.65,21.83,29.65,22.08,29.81,22.08L29.81,22.08z"/>
	</g>
</g>
<g>
	<g>
		<path class="st6" d="M10.03,46.76c-0.65-0.09-1.37,0.07-2.02,0.16c-0.67,0.09-1.33,0.22-2,0.33c-1.46,0.23-2.91,0.18-4.38,0.04
			c-0.32-0.03-0.32,0.47,0,0.5c1.4,0.14,2.8,0.19,4.2-0.01c0.67-0.09,1.34-0.23,2.01-0.33c0.69-0.11,1.49-0.28,2.19-0.19
			C10.35,47.3,10.34,46.8,10.03,46.76L10.03,46.76z"/>
	</g>
</g>
<g>
	<g>
		<path class="st6" d="M4.52,50.76c0.28,0.46,0.57,0.92,0.85,1.38c0.13,0.22,0.26,0.44,0.38,0.67c0.12,0.23,0.22,0.45,0.29,0.62
			c0.09,0.24,0.34,0.44,0.62,0.35c0.24-0.08,0.45-0.35,0.35-0.62c-0.4-1.04-1.04-1.96-1.63-2.9c-0.14-0.22-0.45-0.33-0.68-0.18
			C4.47,50.22,4.37,50.52,4.52,50.76L4.52,50.76z"/>
	</g>
</g>
<g>
	<g>
		<path class="st7" d="M7.19,49.03c-0.06,0.04-0.13,0.09-0.19,0.13c-0.06,0.03-0.11,0.07-0.14,0.13c-0.04,0.05-0.07,0.1-0.09,0.17
			c-0.02,0.07-0.02,0.13-0.01,0.2c0,0.07,0.02,0.13,0.06,0.19c0.03,0.03,0.05,0.07,0.08,0.1c0.06,0.06,0.14,0.1,0.22,0.13
			c0.04,0.01,0.09,0.01,0.13,0.02c0.09,0,0.17-0.02,0.25-0.07c0.06-0.04,0.13-0.09,0.19-0.13c0.06-0.03,0.11-0.07,0.14-0.13
			c0.04-0.05,0.07-0.1,0.09-0.17c0.02-0.07,0.02-0.13,0.01-0.2c0-0.07-0.02-0.13-0.06-0.19c-0.03-0.03-0.05-0.07-0.08-0.1
			c-0.06-0.06-0.14-0.1-0.22-0.13c-0.04-0.01-0.09-0.01-0.13-0.02C7.35,48.96,7.26,48.98,7.19,49.03L7.19,49.03z"/>
	</g>
</g>
<g>
	<g>
		<path class="st7" d="M14.77,37.01c-0.03-0.52-0.47-0.77-0.61-1.24c-0.14-0.48-0.17-1-0.21-1.5c-0.11-1.17-0.14-2.34-0.11-3.51
			c0.01-0.49-0.69-0.69-0.93-0.25c-0.56,1.01-0.57,2.2-0.05,3.24c0.29,0.58,1.15,0.07,0.86-0.5c-0.35-0.7-0.32-1.54,0.05-2.23
			c-0.31-0.08-0.62-0.17-0.93-0.25c-0.03,1.17,0.01,2.34,0.11,3.51c0.05,0.53,0.09,1.06,0.2,1.58c0.05,0.23,0.13,0.46,0.24,0.67
			c0.07,0.12,0.15,0.23,0.24,0.34c0.02,0.03,0.15,0.17,0.15,0.16C13.81,37.65,14.81,37.65,14.77,37.01L14.77,37.01z"/>
	</g>
</g>
<g>
	<g>
		<path class="st7" d="M13.56,31.39c0.4,0.02,0.8-0.09,1.18-0.2c0.33-0.09,0.66-0.2,1-0.11c-0.07-0.28-0.15-0.56-0.22-0.84
			c-0.55,0.43-1.11,0.84-1.67,1.24c-0.34,0.25-0.32,0.78,0.12,0.91c0.32,0.1,0.64,0.01,0.87-0.23c-0.28-0.12-0.57-0.24-0.85-0.35
			c-0.16,1.37-0.33,2.73-0.49,4.1c0.25-0.14,0.5-0.29,0.75-0.43c0.26,0.12,0.04,0.2,0.09,0.09c0.03-0.07,0-0.23,0-0.31
			c0-0.21,0-0.42,0-0.63c0-0.42-0.01-0.84-0.01-1.25c-0.01-0.84-0.01-1.67-0.02-2.51c0-0.64-1-0.64-1,0
			c0.01,0.98,0.01,1.95,0.02,2.93c0,0.49,0.01,0.98,0.01,1.46c0,0.4-0.02,0.88,0.41,1.09c0.37,0.18,0.71-0.04,0.75-0.43
			c0.16-1.37,0.33-2.73,0.49-4.1c0.05-0.45-0.57-0.64-0.85-0.35c0.03-0.01,0.07-0.02,0.1-0.03c0.04,0.3,0.08,0.61,0.12,0.91
			c0.63-0.45,1.26-0.92,1.87-1.4c0.31-0.24,0.1-0.74-0.22-0.84c-0.43-0.13-0.86-0.08-1.29,0.04c-0.39,0.1-0.76,0.25-1.16,0.23
			C12.92,30.36,12.92,31.36,13.56,31.39L13.56,31.39z"/>
	</g>
</g>
<g>
	<g>
		<path class="st7" d="M60.57,19.5c-0.02-0.03-0.03-0.06-0.04-0.09c0.02,0.04,0.03,0.08,0.05,0.12c-0.03-0.07-0.05-0.15-0.06-0.23
			c0.01,0.04,0.01,0.09,0.02,0.13c-0.01-0.08-0.01-0.16,0-0.24c-0.01,0.04-0.01,0.09-0.02,0.13c0.01-0.09,0.04-0.18,0.07-0.26
			c-0.02,0.04-0.03,0.08-0.05,0.12c0.03-0.07,0.07-0.14,0.12-0.21c-0.03,0.03-0.05,0.07-0.08,0.1c0.04-0.05,0.09-0.1,0.15-0.15
			c-0.03,0.03-0.07,0.05-0.1,0.08c0.01-0.01,0.03-0.02,0.04-0.03c0.11-0.08,0.19-0.17,0.23-0.3c0.03-0.12,0.02-0.28-0.05-0.39
			c-0.07-0.11-0.17-0.2-0.3-0.23c-0.13-0.03-0.28-0.03-0.39,0.05c-0.29,0.2-0.51,0.5-0.59,0.85c-0.08,0.35-0.04,0.72,0.14,1.04
			c0.06,0.11,0.18,0.2,0.3,0.23c0.12,0.03,0.28,0.02,0.39-0.05C60.62,20.03,60.7,19.74,60.57,19.5L60.57,19.5z"/>
	</g>
</g>
<g>
	<g>
		<path class="st7" d="M73.33,50.69c0.05-0.07-0.05,0.06-0.01,0.02c0.01-0.02,0.03-0.03,0.04-0.05c0.03-0.03,0.06-0.07,0.09-0.1
			c0.03-0.03,0.06-0.06,0.1-0.09c0.02-0.02,0.04-0.03,0.06-0.05c0.05-0.04-0.01,0.01-0.03,0.02c0.08-0.04,0.15-0.1,0.23-0.15
			c0.04-0.02,0.09-0.05,0.13-0.07c0.06-0.03-0.02,0.01-0.04,0.01c0.02,0,0.05-0.02,0.07-0.03c0.08-0.03,0.17-0.06,0.26-0.08
			c0.04-0.01,0.09-0.02,0.13-0.03c0.07-0.01-0.03,0.01-0.04,0.01c0.02,0,0.05-0.01,0.07-0.01c0.09-0.01,0.18-0.01,0.27,0
			c0.02,0,0.04,0,0.06,0c0.08,0.01,0.01,0-0.03-0.01c0.05,0.01,0.1,0.02,0.15,0.03c0.25,0.06,0.55-0.08,0.62-0.35
			c0.06-0.25-0.08-0.55-0.35-0.62c-0.47-0.1-0.98-0.08-1.43,0.09c-0.49,0.19-0.89,0.49-1.2,0.92c-0.15,0.21-0.04,0.57,0.18,0.68
			C72.91,51.01,73.17,50.92,73.33,50.69L73.33,50.69z"/>
	</g>
</g>
<g>
	<g>
		<path class="st7" d="M36.85,31.59c-0.06-0.03-0.12-0.05-0.17-0.09c-0.21-0.12,0-0.03-0.01,0.01c0-0.01-0.25-0.24-0.27-0.26
			c-0.03-0.03-0.06-0.07-0.08-0.1c0.03,0.03,0.05,0.07,0.08,0.1c-0.02,0-0.1-0.14-0.12-0.16c-0.08-0.11-0.15-0.22-0.22-0.33
			c-0.38-0.59-0.78-1.1-1.35-1.51c-0.14-0.1-0.28-0.19-0.41-0.29c0.14,0.11,0-0.01-0.05-0.06c-0.06-0.06-0.11-0.12-0.16-0.18
			c0.11,0.13,0.02,0.02-0.03-0.05c-0.05-0.06-0.09-0.13-0.14-0.2c-0.12-0.18-0.25-0.35-0.39-0.52c-0.22-0.27-0.5-0.47-0.79-0.66
			c-0.12-0.08-0.24-0.16-0.36-0.24c-0.06-0.04-0.04-0.03,0.06,0.05c-0.03-0.02-0.05-0.05-0.08-0.07c-0.05-0.05-0.19-0.25-0.05-0.04
			c-0.29-0.43-0.89-0.67-1.37-0.36c-0.43,0.28-0.67,0.91-0.36,1.37c0.25,0.37,0.56,0.63,0.93,0.88c0.12,0.08,0.24,0.16,0.36,0.24
			c0.19,0.13-0.14-0.14,0.02,0.02c0.06,0.06,0.11,0.11,0.16,0.17c0.15,0.16-0.08-0.12,0.04,0.05c0.04,0.07,0.09,0.13,0.14,0.2
			c0.13,0.19,0.27,0.38,0.41,0.56c0.25,0.31,0.59,0.54,0.91,0.77c0.02,0.02,0.24,0.18,0.07,0.04c0.06,0.05,0.12,0.1,0.18,0.15
			c0.07,0.07,0.23,0.2,0.26,0.29c-0.09-0.11-0.1-0.13-0.04-0.04c0.02,0.03,0.04,0.05,0.06,0.08c0.04,0.06,0.08,0.11,0.11,0.17
			c0.08,0.12,0.16,0.24,0.24,0.37c0.36,0.55,0.79,1.11,1.4,1.38c0.48,0.21,1.1,0.15,1.37-0.36C37.44,32.52,37.36,31.82,36.85,31.59
			L36.85,31.59z"/>
	</g>
</g>
<g>
	<g>
		<path class="st7" d="M32.63,26.78c-0.08-0.37-0.03-0.86,0.08-1.28c0.14-0.54,0.34-1.06,0.54-1.58c0.3-0.75,0.8-1.82,1.31-2.44
			c0.33-0.41,0.43-1.02,0-1.41c-0.37-0.34-1.06-0.43-1.41,0c-0.81,1-1.35,2.13-1.82,3.33c-0.5,1.26-0.9,2.55-0.62,3.92
			c0.11,0.51,0.74,0.86,1.23,0.7C32.47,27.83,32.74,27.33,32.63,26.78L32.63,26.78z"/>
	</g>
</g>
<g>
	<g>
		<path class="st7" d="M32.71,22.38c0.16,1.51-0.27,3-0.15,4.51c0.12,1.44,0.62,2.73,1.79,3.62c0.43,0.33,1.12,0.07,1.37-0.36
			c0.3-0.51,0.07-1.04-0.36-1.37c0.11,0.08-0.15-0.16-0.18-0.18c-0.08-0.09-0.09-0.1-0.04-0.03c-0.04-0.05-0.08-0.11-0.11-0.17
			c-0.07-0.11-0.14-0.23-0.2-0.36c-0.09-0.18,0,0.04-0.06-0.14c-0.08-0.27-0.16-0.53-0.2-0.81c0.02,0.15-0.02-0.22-0.03-0.26
			c-0.01-0.12-0.01-0.25-0.02-0.37c-0.02-1.37,0.31-2.72,0.17-4.08c-0.06-0.54-0.42-1-1-1C33.21,21.38,32.65,21.84,32.71,22.38
			L32.71,22.38z"/>
	</g>
</g>
<g>
	<g>
		<path class="st7" d="M51.71,44.92c0.37-0.75,0.31-1.47,0.29-2.28c-0.02-0.62,0.11-1.17,0.42-1.71c0.33-0.56,0.88-1,1.37-1.46
			c0.6-0.55,1.21-1.11,1.81-1.66c0.4-0.37,0.37-1.04,0-1.41c-0.4-0.4-1.01-0.37-1.41,0c-0.6,0.55-1.21,1.11-1.81,1.66
			c-0.59,0.54-1.19,1.07-1.62,1.76c-0.42,0.67-0.65,1.43-0.73,2.21c-0.04,0.37-0.01,0.73,0.01,1.1c0.01,0.16,0.01,0.33,0.01,0.49
			c0,0.09-0.02,0.23-0.05,0.3c-0.24,0.49-0.13,1.08,0.36,1.37C50.78,45.54,51.47,45.41,51.71,44.92L51.71,44.92z"/>
	</g>
</g>
<g>
	<g>
		<path class="st7" d="M52.47,42.88c0-0.4,0.03-0.78,0.22-1.14c0.18-0.34,0.44-0.63,0.71-0.91c0.58-0.6,1.29-1.18,1.46-2.04
			c0.05-0.26-0.08-0.54-0.35-0.62c-0.25-0.07-0.56,0.08-0.62,0.35c-0.15,0.78-0.93,1.29-1.44,1.85c-0.28,0.31-0.54,0.65-0.72,1.04
			c-0.21,0.47-0.27,0.95-0.27,1.46C51.47,43.53,52.47,43.53,52.47,42.88L52.47,42.88z"/>
	</g>
</g>
<g>
	<g>
		<path class="st7" d="M55.97,36.41c0.07,0.04,0.09,0.04,0.04,0.02c0.02,0.01,0.04,0.03,0.06,0.04c-0.03-0.04-0.03-0.03,0.03,0.04
			c-0.02-0.04-0.02-0.03,0,0.01c0.04,0.1,0-0.1,0,0.02c0.01,0.1,0.01-0.02,0-0.04c0-0.04,0-0.02-0.01,0.06
			c0-0.02,0.01-0.04,0.01-0.06c0.02-0.09-0.04,0.1,0,0.01c0.01-0.01,0.01-0.02,0.02-0.03c-0.04,0.05-0.04,0.05,0,0.01
			c0.03-0.02,0.06-0.05,0.09-0.08c-0.06,0.06-0.01,0.01,0.03-0.01c0.03-0.02,0.07-0.04,0.1-0.06c0.07-0.04,0.13-0.08,0.2-0.13
			c0.15-0.1,0.3-0.22,0.44-0.34c0.23-0.2,0.45-0.41,0.69-0.6c0.1-0.08-0.09,0.06,0.02-0.01c0.03-0.02,0.06-0.04,0.09-0.06
			c0.06-0.04,0.12-0.08,0.18-0.12c0.03-0.02,0.06-0.03,0.1-0.05c0.02-0.01,0.04-0.02,0.07-0.03c-0.02,0.01-0.04,0.01-0.05,0.02
			c0.06-0.04,0.17-0.06,0.24-0.08c0.25-0.06,0.43-0.36,0.35-0.62c-0.09-0.27-0.34-0.41-0.62-0.35c-0.42,0.1-0.78,0.34-1.11,0.61
			c-0.15,0.12-0.28,0.24-0.42,0.37c-0.07,0.06-0.13,0.12-0.2,0.17c-0.04,0.03-0.08,0.06-0.11,0.1c-0.02,0.02-0.04,0.03-0.06,0.05
			c0.05-0.04,0.06-0.04,0.03-0.02c-0.38,0.27-0.82,0.47-1,0.93c-0.08,0.2-0.08,0.43-0.02,0.63c0.09,0.27,0.28,0.46,0.55,0.55
			c0.25,0.09,0.56-0.1,0.62-0.35C56.38,36.74,56.23,36.5,55.97,36.41L55.97,36.41z"/>
	</g>
</g>
<g>
	<g>
		<path class="st7" d="M56.72,36.82c0.23-0.17,0.44-0.36,0.63-0.58c0.18-0.22,0.35-0.45,0.47-0.71c0.06-0.12,0.09-0.25,0.05-0.39
			c-0.03-0.12-0.12-0.24-0.23-0.3c-0.12-0.06-0.26-0.09-0.39-0.05c-0.12,0.04-0.24,0.11-0.3,0.23c-0.09,0.19-0.21,0.36-0.33,0.53
			c0.03-0.03,0.05-0.07,0.08-0.1c-0.16,0.21-0.35,0.4-0.56,0.56c0.03-0.03,0.07-0.05,0.1-0.08c-0.01,0.01-0.02,0.02-0.03,0.02
			c-0.06,0.03-0.11,0.07-0.14,0.13c-0.04,0.05-0.07,0.1-0.09,0.17c-0.03,0.12-0.02,0.28,0.05,0.39c0.07,0.11,0.17,0.2,0.3,0.23
			C56.46,36.9,56.62,36.9,56.72,36.82L56.72,36.82z"/>
	</g>
</g>
<path class="st1" d="M50.39,83.53c-2.41,1.02-5.87,2.89-8.67,6.4c-3.15,3.95-4,8.14-5.75,8.02c-1.48-0.11-1.33-3.15-4.42-5.56
	c-0.61-0.47-3.68-2.76-6.15-1.7c-2.24,0.96-2.84,4.18-3.18,5.96c-0.77,4.13,0.64,6.19-0.63,7.35c-1.63,1.49-4.75-1.14-6.13,0
	c-3.02,2.49,7.38,18.84,4.85,20.72c-0.67,0.5-1.55-0.53-4.46-0.68c-1.8-0.09-5.59,0.08-6.44,1.65c-1.28,2.36,4.09,7.89,7.26,10.46
	c3.09,2.5,8.22,5.21,33.77,6.53c12.56,0.65,17.02,0.27,21.98-1.2c1.88-0.56,8.4-2.62,14-8.29c1.38-1.4,5.24-5.31,4.14-7.5
	c-1.03-2.05-5.97-1.69-6.54-1.65c-3.62,0.29-5.31,1.93-5.99,1.27c-0.87-0.85,1.55-3.89,3.68-9.15c0.56-1.38,4.29-10.58,1.71-12.57
	c-1.56-1.2-4.23,1.18-5.8-0.19c-1.28-1.12-0.03-3.16-0.68-6.93c-0.11-0.64-1.03-5.94-3.4-6.52c-3.37-0.82-6.82,8.58-10.35,7.81
	c-1.77-0.38-1.88-2.96-4.11-6.45C56.6,87.39,53.17,85,50.39,83.53z"/>
<path class="st2" d="M52.98,87.79c-1.16,0.4-5.13,1.94-7.74,6.21c-2.12,3.46-2.14,6.82-2.13,8.77c0.07,8.41,5.57,14.34,7.32,16.09"
	/>
<path class="st2" d="M32.05,93.55c-2.04-0.52-2.54-0.36-3.09-0.11c-3.27,1.5-4.25,6.32-3.62,9.59c0.46,2.4,4.3,4.49,4.15,4.58
	c-0.29,0.18-7.34-4.96-6.65-9.66c0.31-2.12,1.62-3.66,2.53-4.54"/>
<path class="st2" d="M75.28,95.37c-0.83-0.36-2.89-1.09-4.85-0.26c-2.91,1.23-4.65,5.48-3.32,10.13"/>
<path class="st2" d="M31.11,108.05c-2.86-1.24-5.18,0.11-6.98,2.3c-0.49,0.6-3.02,3.84-0.17,10.46c1.9,4.4,7.47,11.44,17.87,18.89"
	/>
<path class="st2" d="M16.81,124.99c-2.09,0-1.94,2.37-2,2.84c-0.67,5.11,5.44,8.91,8.98,11.6c1.66,1.26,3.15,2.06,4.01,2.5"/>
<path class="st2" d="M52.98,87.79c-1.27-1.3-2.4-1.72-3.32-1.79c-7.53-0.56-17.91,16.22-14.04,21.7c0.57,0.81,0.96,0.65,2.55,1.7
	c6.87,4.52,6.82,12.13,10.47,12.6c0.95,0.12,2.35-0.22,4.25-2.34"/>
<path class="st2" d="M73.91,93.41c-0.84-0.29-1.94-0.5-3.15-0.26c-2.66,0.55-4.79,3.1-5.45,6.47"/>
<path class="st2" d="M32.38,107.37c-12.85-4.56-15.08-3.39-15.57-2.55c-0.15,0.26-0.16,0.75-0.17,1.7c-0.03,2.86,0.43,5.15,0.6,5.87
	c0.65,2.74,3.55,9.58,8.73,18"/>
<path class="st2" d="M18.42,124.61c-6.39-1.35-7.98,0.41-8.34,1.06c-1.44,2.56,5.84,9.14,8.34,11.32"/>
<path class="st2" d="M53.32,138.52c-2.6-6.18-2.6-11.08-2.29-14c0.1-0.9,0.19-1.76,0.5-2.85c0.84-2.94,2.97-6.66,10.13-11.06
	c7.5-4.62,16.2-7.33,16.68-6.3c0.45,0.96-6.95,3.62-13.28,10.3c-7.43,7.84-9.89,17.56-10.81,24.51"/>
<g>
	<g>
		<path class="st3" d="M67.63,107.09c-0.67,0.87-1.95,1.33-2.82,1.97c-0.98,0.73-1.88,1.55-2.73,2.43
			c-1.84,1.87-3.66,3.79-5.29,5.85c-3.19,4.02-5.7,8.94-5,14.22c0.19,1.47,1.89,2.04,2.8,0.76c1.39-1.96,1.88-4.31,2.54-6.58
			c0.67-2.31,1.78-4.37,3.43-6.13c1.32-1.41-0.8-3.54-2.12-2.12c-1.72,1.84-3.03,3.97-3.85,6.35c-0.82,2.36-1.11,4.88-2.58,6.96
			c0.93,0.25,1.86,0.5,2.8,0.76c-0.67-5.11,1.97-9.64,5.19-13.38c1.57-1.82,3.22-3.62,4.96-5.29c1.65-1.59,3.9-2.46,5.3-4.28
			c0.5-0.65,0.09-1.67-0.54-2.05C68.91,106.1,68.12,106.46,67.63,107.09L67.63,107.09z"/>
	</g>
</g>
<g>
	<g>
		<path class="st3" d="M48.06,86.81c-0.24,0.38-0.95,0.65-1.31,0.9c-0.53,0.37-1.04,0.76-1.53,1.17c-0.99,0.82-1.91,1.75-2.73,2.74
			c-1.69,2.01-3.07,4.25-4.16,6.64c-0.55,1.2-1.05,2.42-1.49,3.66c-0.43,1.19-1.04,2.53-1.05,3.8c-0.02,1.33,0.87,2.27,1.76,3.13
			c1.09,1.06,2.19,2.11,3.28,3.17c1.16,1.12,2.73-0.05,2.51-1.46c-0.56-3.62-0.81-7.28-0.78-10.94c0.01-1.93-2.99-1.93-3,0
			c-0.03,3.94,0.29,7.85,0.89,11.74c0.84-0.49,1.67-0.97,2.51-1.46c-0.93-0.9-1.86-1.8-2.79-2.7c-0.38-0.36-1.06-0.79-1.28-1.27
			c-0.18-0.38,0.06-0.84,0.18-1.23c0.73-2.35,1.63-4.65,2.8-6.81c1.07-1.98,2.35-3.84,3.93-5.45c0.77-0.78,1.59-1.52,2.49-2.15
			c0.87-0.61,1.81-1.05,2.39-1.97C51.68,86.68,49.08,85.18,48.06,86.81L48.06,86.81z"/>
	</g>
</g>
<g>
	<g>
		<path class="st3" d="M41.62,112.74c1.01,1.41,1.56,3.08,2.51,4.52c0.51,0.77,1.11,1.44,1.83,2.02c0.31,0.25,0.63,0.49,0.92,0.76
			c0.07,0.07,0.14,0.13,0.21,0.2c0.03,0.03,0.26,0.27,0.11,0.11c-0.14-0.15,0.06,0.09,0.08,0.13c0.04,0.07,0.2,0.39,0.06,0.06
			c0.3,0.72,1.01,1.32,1.85,1.05c0.69-0.22,1.37-1.07,1.05-1.85c-0.41-0.97-1.01-1.68-1.83-2.32c-0.31-0.25-0.63-0.49-0.92-0.77
			c-0.15-0.14-0.3-0.3-0.44-0.46c-0.03-0.03-0.27-0.36-0.08-0.09c-0.06-0.09-0.12-0.17-0.18-0.26c-1-1.46-1.55-3.18-2.59-4.62
			c-0.45-0.64-1.33-1-2.05-0.54C41.52,111.1,41.13,112.06,41.62,112.74L41.62,112.74z"/>
	</g>
</g>
<g>
	<g>
		<path class="st3" d="M18.91,108.5c-0.37,0.06,0.08,0.01,0.16,0c0.12,0,0.25,0,0.37,0.01c0.08,0.01,0.53,0,0.16,0.01
			c0.12,0,0.26,0.04,0.37,0.07c0.52,0.11,1.03,0.26,1.54,0.4c1.08,0.31,2.17,0.61,3.25,0.92c0.75,0.21,1.67-0.26,1.85-1.05
			c0.18-0.8-0.24-1.62-1.05-1.85c-1.17-0.33-2.33-0.66-3.5-0.99c-0.55-0.15-1.09-0.31-1.65-0.4c-0.79-0.13-1.49-0.14-2.28-0.02
			c-0.35,0.05-0.73,0.4-0.9,0.69c-0.19,0.32-0.27,0.8-0.15,1.16C17.34,108.3,18.08,108.62,18.91,108.5L18.91,108.5z"/>
	</g>
</g>
<g>
	<g>
		<path class="st3" d="M18.14,107.78c0.13,0.61,0.26,1.22,0.39,1.83c0.06,0.27,0.1,0.54,0.18,0.8c0.17,0.56,0.49,1.04,1,1.34
			c0.33,0.2,0.78,0.25,1.16,0.15c0.35-0.1,0.73-0.36,0.9-0.69c0.18-0.35,0.28-0.77,0.15-1.16c-0.12-0.37-0.35-0.69-0.69-0.9
			c-0.02-0.01-0.05-0.03-0.07-0.05c0.1,0.08,0.2,0.16,0.3,0.23c-0.03-0.03-0.06-0.06-0.09-0.09c0.08,0.1,0.16,0.2,0.23,0.3
			c-0.04-0.06-0.08-0.12-0.1-0.19c0.05,0.12,0.1,0.24,0.15,0.36c-0.07-0.19-0.11-0.38-0.15-0.58c-0.05-0.25-0.1-0.49-0.16-0.74
			c-0.1-0.48-0.2-0.96-0.31-1.44c-0.08-0.36-0.38-0.72-0.69-0.9c-0.32-0.19-0.8-0.27-1.16-0.15c-0.36,0.12-0.71,0.34-0.9,0.69
			C18.1,106.99,18.05,107.37,18.14,107.78L18.14,107.78z"/>
	</g>
</g>
<g>
	<g>
		<path class="st3" d="M19.99,109.28c-0.38,0.93-0.57,1.94-0.61,2.94c-0.02,0.37,0.18,0.8,0.44,1.06c0.26,0.26,0.69,0.46,1.06,0.44
			c0.39-0.02,0.79-0.14,1.06-0.44c0.28-0.3,0.42-0.65,0.44-1.06c0.01-0.23,0.03-0.47,0.06-0.7c-0.02,0.13-0.04,0.27-0.05,0.4
			c0.09-0.63,0.25-1.25,0.49-1.84c0.06-0.2,0.07-0.4,0.03-0.6c-0.01-0.2-0.07-0.39-0.18-0.56c-0.18-0.31-0.54-0.61-0.9-0.69
			c-0.38-0.09-0.81-0.07-1.16,0.15c-0.1,0.08-0.2,0.16-0.3,0.23C20.18,108.81,20.06,109.03,19.99,109.28L19.99,109.28z"/>
	</g>
</g>
<g>
	<g>
		<path class="st3" d="M17.5,110.96c0.7,2.31,1.29,4.7,2.2,6.93c0.86,2.11,2.29,3.91,3.24,5.98c0.89,1.94,1.75,3.86,3.24,5.42
			c1.37,1.44,3.14,2.52,4.02,4.37c0.84,1.74,3.42,0.22,2.59-1.51c-0.85-1.77-2.36-2.96-3.77-4.26c-1.58-1.47-2.46-3.25-3.34-5.19
			c-0.89-1.95-2.23-3.66-3.09-5.6c-0.97-2.2-1.51-4.64-2.21-6.93C19.83,108.32,16.93,109.1,17.5,110.96L17.5,110.96z"/>
	</g>
</g>
<g>
	<g>
		<path class="st3" d="M11.79,127.76c1.93,0,1.93-3,0-3C9.86,124.76,9.85,127.76,11.79,127.76L11.79,127.76z"/>
	</g>
</g>
<path class="st2" d="M20.83,124.5c-0.35-0.07-1.98-0.42-3.45,0.49c-1.46,0.9-1.98,2.11-2.11,2.54c-0.11,0.4-0.58,1.83-0.02,3.49
	c0.26,0.75,0.63,1.29,0.91,1.63"/>
<g>
	<g>
		<path class="st3" d="M12.64,129.7c1.93,0,1.93-3,0-3C10.71,126.7,10.71,129.7,12.64,129.7L12.64,129.7z"/>
	</g>
</g>
<path class="st2" d="M86.65,132.91c0.09-0.27,1.09-1.18,0.19-2.39c-0.77-1.03-2.11-1.13-3.23-1.19c-2.44-0.14-4.35,0.74-5.11,1.11
	c-4.61,2.22-10.12,5.14-11.85,6.69"/>
<g>
	<g>
		<path class="st3" d="M88.12,125.66c-0.8-0.35-1.61-0.54-2.49-0.47c-0.84,0.07-1.64,0.28-2.45,0.52c-0.36,0.1-0.72,0.2-1.09,0.28
			c-0.19,0.04-0.37,0.08-0.56,0.11c-0.11,0.02-0.21,0.03-0.32,0.05c0.1-0.01,0.1-0.02-0.01,0c-0.78,0.09-1.57,0.1-2.36,0.05
			c-0.78-0.05-1.53,0.73-1.5,1.5c0.04,0.86,0.66,1.45,1.5,1.5c1.51,0.1,3.05-0.05,4.52-0.42c0.66-0.17,1.31-0.4,1.99-0.53
			c0.08-0.02,0.15-0.03,0.23-0.04c-0.15,0.02-0.14,0.02,0.04,0c0.15-0.01,0.3-0.02,0.44-0.02c0.07,0,0.45,0.05,0.19,0
			c0.06,0.01,0.57,0.17,0.34,0.07c0.72,0.31,1.64,0.23,2.05-0.54C89,127.06,88.88,126,88.12,125.66L88.12,125.66z"/>
	</g>
</g>
<path class="st4" d="M42.31,97.18c-0.29,2.51-1.06,5.93,0.29,9.64c1.59,4.37,2.58,5.56,2.26,5.87c-0.25,0.24-0.27,0.48-7.23-5.93"/>
<path class="st4" d="M37.59,106.65c-0.02-1.02,0.07-2.65,0.76-4.48c0.87-2.33,3.15-4.24,3.95-4.99"/>
<path class="st4" d="M44.62,93.65c0.36-0.67,0.63-0.93,1.61-1.86c1-0.95,2.17-1.63,2.86-1.95"/>
<path class="st4" d="M47.41,89.65c0.52,0.12,1.16,0.08,1.68,0.19"/>
<path class="st4" d="M44.62,93.65c0.63-1.47,1.64-2.49,2.79-4"/>
<path class="st4" d="M24.56,100.93c-0.02-0.18-0.05-0.44-0.05-0.74c0-0.35,0-1.43,0.57-2.51c0.44-0.83,1.11-1.46,1.21-1.37
	c0.12,0.1-0.65,1.03-0.88,2.46c-0.16,0.99-0.12,1.97,0.07,2.6"/>
<path class="st4" d="M24.61,101.14c0.29,0.08,0.58,0.15,0.87,0.23"/>
<path class="st4" d="M24.84,109.09c-0.09-0.41-2.01-0.33-3.12-0.29c-0.89,0.03-1.33,0.05-1.52,0.18c-1.37,0.88-0.36,5.26,1.46,8.25
	c0.54,0.89,1.06,1.51,1.21,1.43c0.25-0.13-0.94-2.04-0.86-4.71c0.02-0.91,0.07-2.46,1.11-3.57
	C23.93,109.51,24.9,109.38,24.84,109.09z"/>
<path class="st4" d="M15.23,127.38c-0.35-0.3-1.5-0.01-1.73-0.1c0,0-0.01,0-0.02,0c-0.08,0.04,0.17,0.9,0.78,1.52
	c0.23,0.23,0.38,0.38,0.55,0.36C15.27,129.08,15.63,127.72,15.23,127.38z"/>
<path class="st4" d="M69.28,111.15c0.01,0.03-0.22,0.16-0.36,0.24c-1.84,1.05-4.28,3.41-5.36,4.59c-3.68,4.04-4.23,8.44-5.31,8.23
	c-0.68-0.13-0.89-1.97-0.94-2.39c-0.03-0.3-0.14-1.43,0.45-2.88c0.9-2.21,2.74-3.45,4.64-4.7
	C65.76,112.03,69.23,111.04,69.28,111.15z"/>
<path class="st4" d="M70.17,95.56c-0.45,0.32-1.1,0.87-1.67,1.74c-0.65,1-0.81,1.83-1.2,1.87c-0.36,0.03-0.78-0.65-0.72-1.23
	C66.74,96.45,69.99,95.6,70.17,95.56z"/>
<path class="st4" d="M84.51,129.16c-0.05,0.14-1.11-0.46-2.6-0.13c-1.38,0.31-1.99,1.18-2.32,0.94c-0.34-0.25-0.19-1.47,0.5-2
	C81.46,126.9,84.59,128.92,84.51,129.16z"/>
<path class="st5" d="M21.53,104.01c-0.19-1.53-0.32-4.22,0.63-7.35c0.86-2.81,2.24-4.81,3.18-5.96"/>
<path class="st5" d="M35.91,97.95c-0.57-1.17-1.67-2.72-4.09-4.58c-2.33-1.79-5.22-2.42-6.49-2.68"/>
<path class="st5" d="M33.14,107.98c0.25-2.58,0.91-6.03,2.67-9.72c4.18-8.78,11.67-13.35,14.52-14.72"/>
<path class="st5" d="M64.97,107.81c-0.07-2.51-0.5-6.02-2.07-9.86c-3.34-8.14-10-12.88-12.56-14.41"/>
<path class="st5" d="M77.52,103.84c0.19-1.53,0.32-4.22-0.63-7.35c-0.86-2.81-2.24-4.81-3.18-5.96"/>
<path class="st5" d="M63.14,97.78c0.57-1.17,1.67-2.72,4.09-4.58c2.33-1.79,5.22-2.42,6.49-2.68"/>
<path class="st5" d="M52.59,141.77c0-20.87-16.63-37.76-37.19-37.76"/>
<path class="st5" d="M15.4,104.01c0,20.87,16.63,37.76,37.19,37.76"/>
<path class="st5" d="M83.36,104.01c0,20.87-14.42,37.76-32.23,37.76"/>
<path class="st5" d="M50.46,129.14c0-13.76,14.84-25.54,32.9-25.54"/>
<path class="st5" d="M52.11,141.77c-4.93,0.72-11.62,1.85-19.38,0.71c-4.98-0.73-7.5-1.42-11.37-3.28
	c-4.11-1.98-7.02-5.04-7.48-5.55c-2.83-3.11-4.11-6.08-4.53-7.94"/>
<path class="st5" d="M21.88,125.32c-1.27-0.54-3.59-1.34-6.56-1.27c-2.67,0.06-4.76,0.78-5.99,1.31"/>
<path class="st5" d="M47.74,141.77c4.93,0.72,11.62,1.85,19.38,0.71c4.98-0.73,7.5-1.42,11.37-3.28c4.11-1.98,7.02-5.04,7.48-5.55
	c2.83-3.11,4.11-6.08,4.53-7.94"/>
<path class="st5" d="M77.97,125.32c1.27-0.54,3.59-1.34,6.56-1.27c2.67,0.06,4.76,0.78,5.99,1.31"/>
<g>
	<g>
		<path class="st3" d="M18.51,109.15c0.64,0,0.64-1,0-1C17.87,108.15,17.86,109.15,18.51,109.15L18.51,109.15z"/>
	</g>
</g>
<g>
	<g>
		<path class="st3" d="M18.51,109.06c0.64,0,0.64-1,0-1C17.87,108.06,17.86,109.06,18.51,109.06L18.51,109.06z"/>
	</g>
</g>
<g>
	<g>
		<path class="st3" d="M18.34,109.57c0.64,0,0.64-1,0-1C17.7,108.57,17.69,109.57,18.34,109.57L18.34,109.57z"/>
	</g>
</g>
<g>
	<g>
		<path class="st3" d="M13.38,129.66c0.16,0,0.16-0.25,0-0.25C13.22,129.41,13.22,129.66,13.38,129.66L13.38,129.66z"/>
	</g>
</g>
<g>
	<g>
		<path class="st3" d="M13.35,129.63c0.16,0,0.16-0.25,0-0.25C13.19,129.38,13.19,129.63,13.35,129.63L13.35,129.63z"/>
	</g>
</g>
<g>
	<g>
		<path class="st3" d="M13.37,129.66c0.16,0,0.16-0.25,0-0.25C13.21,129.41,13.21,129.66,13.37,129.66L13.37,129.66z"/>
	</g>
</g>
<g>
	<g>
		<path class="st3" d="M13.38,129.68c0.16,0,0.16-0.25,0-0.25C13.22,129.43,13.22,129.68,13.38,129.68L13.38,129.68z"/>
	</g>
</g>
<g>
	<g>
		<path class="st3" d="M13.4,129.71c0.16,0,0.16-0.25,0-0.25C13.24,129.46,13.24,129.71,13.4,129.71L13.4,129.71z"/>
	</g>
</g>
<g>
	<g>
		<path class="st3" d="M13.42,129.74c0.16,0,0.16-0.25,0-0.25C13.26,129.49,13.26,129.74,13.42,129.74L13.42,129.74z"/>
	</g>
</g>
<g>
	<g>
		<path class="st3" d="M13.43,129.75c0.16,0,0.16-0.25,0-0.25C13.27,129.5,13.27,129.75,13.43,129.75L13.43,129.75z"/>
	</g>
</g>
<g>
	<g>
		<path class="st3" d="M13.43,129.75c0.16,0,0.16-0.25,0-0.25C13.27,129.5,13.27,129.75,13.43,129.75L13.43,129.75z"/>
	</g>
</g>
<g>
	<g>
		<path class="st3" d="M13.45,129.78c0.16,0,0.16-0.25,0-0.25C13.29,129.53,13.29,129.78,13.45,129.78L13.45,129.78z"/>
	</g>
</g>
<g>
	<g>
		<path class="st3" d="M13.75,126.51c-0.17,0.07-0.36,0.07-0.54,0.13c-0.19,0.05-0.37,0.12-0.57,0.15c-0.07,0.01-0.1,0.09-0.09,0.15
			c0.02,0.07,0.09,0.1,0.15,0.09c0.2-0.03,0.38-0.1,0.57-0.15c0.18-0.05,0.37-0.06,0.54-0.13c0.06-0.02,0.11-0.08,0.09-0.15
			C13.89,126.54,13.82,126.49,13.75,126.51L13.75,126.51z"/>
	</g>
</g>
<g>
	<g>
		<path class="st3" d="M13.35,126.42C13.34,126.42,13.34,126.42,13.35,126.42C13.35,126.42,13.35,126.42,13.35,126.42
			c-0.02,0.01-0.03,0.01-0.04,0.01c-0.02,0-0.04,0.01-0.07,0.01c-0.04,0.01-0.09,0.02-0.13,0.03c-0.04,0.01-0.09,0.02-0.13,0.04
			c-0.04,0.01-0.08,0.03-0.12,0.04c-0.06,0.01-0.11,0.09-0.09,0.15c0.02,0.07,0.08,0.1,0.15,0.09c0.04-0.01,0.09-0.03,0.13-0.04
			c0.04-0.01,0.09-0.03,0.13-0.04c0.04-0.01,0.09-0.02,0.13-0.03c0.05-0.01,0.1-0.01,0.15-0.04c0.06-0.03,0.08-0.11,0.04-0.17
			C13.49,126.4,13.41,126.38,13.35,126.42L13.35,126.42z"/>
	</g>
</g>
<g>
	<g>
		<path class="st3" d="M13.48,126.25c-0.18,0.03-0.36,0.06-0.54,0.11c-0.06,0.02-0.11,0.09-0.09,0.15c0.02,0.06,0.09,0.11,0.15,0.09
			c0.18-0.05,0.36-0.08,0.54-0.11c0.03,0,0.06-0.03,0.07-0.06c0.02-0.03,0.02-0.07,0.01-0.1c-0.01-0.03-0.03-0.06-0.06-0.07
			C13.54,126.25,13.51,126.25,13.48,126.25L13.48,126.25z"/>
	</g>
</g>
<g>
	<g>
		<path class="st3" d="M13.53,126.46c0.16,0,0.16-0.25,0-0.25C13.37,126.21,13.37,126.46,13.53,126.46L13.53,126.46z"/>
	</g>
</g>
<g>
	<g>
		<path class="st3" d="M13.27,126.5c0.16,0,0.16-0.25,0-0.25C13.11,126.25,13.11,126.5,13.27,126.5L13.27,126.5z"/>
	</g>
</g>
<g>
	<g>
		<path class="st3" d="M13.31,126.5c0.16,0,0.16-0.25,0-0.25C13.15,126.25,13.15,126.5,13.31,126.5L13.31,126.5z"/>
	</g>
</g>
<g>
	<g>
		<path class="st3" d="M13.35,126.49C13.35,126.49,13.35,126.49,13.35,126.49c0.03,0,0.07-0.01,0.09-0.04
			c0.02-0.02,0.04-0.06,0.04-0.09c0-0.03-0.01-0.07-0.04-0.09c-0.02-0.02-0.05-0.04-0.09-0.04c0,0,0,0,0,0
			c-0.03,0-0.07,0.01-0.09,0.04c-0.02,0.02-0.04,0.06-0.04,0.09c0,0.03,0.01,0.07,0.04,0.09C13.28,126.47,13.31,126.49,13.35,126.49
			L13.35,126.49z"/>
	</g>
</g>
<g>
	<g>
		<path class="st3" d="M13.38,126.48c0.16,0,0.16-0.25,0-0.25C13.22,126.23,13.22,126.48,13.38,126.48L13.38,126.48z"/>
	</g>
</g>
<g>
	<g>
		<path class="st3" d="M13.43,126.47c0.16,0,0.16-0.25,0-0.25C13.27,126.22,13.27,126.47,13.43,126.47L13.43,126.47z"/>
	</g>
</g>
<g>
	<g>
		<path class="st3" d="M77.94,128.81c-0.52,0.58-0.83,1.33-0.87,2.11c-0.01,0.16,0.24,0.16,0.25,0c0.04-0.71,0.32-1.4,0.8-1.93
			C78.22,128.87,78.05,128.69,77.94,128.81L77.94,128.81z"/>
	</g>
</g>
<g>
	<g>
		<path class="st3" d="M77.99,129.03c0.16,0,0.16-0.25,0-0.25C77.82,128.78,77.82,129.03,77.99,129.03L77.99,129.03z"/>
	</g>
</g>
<g>
	<g>
		<path class="st3" d="M77.96,129.07c0.16,0,0.16-0.25,0-0.25C77.8,128.82,77.8,129.07,77.96,129.07L77.96,129.07z"/>
	</g>
</g>
<g>
	<g>
		<path class="st3" d="M77.94,129.1c0.16,0,0.16-0.25,0-0.25C77.78,128.85,77.78,129.1,77.94,129.1L77.94,129.1z"/>
	</g>
</g>
<g>
	<g>
		<path class="st3" d="M77.91,129.14c0.16,0,0.16-0.25,0-0.25C77.75,128.89,77.75,129.14,77.91,129.14L77.91,129.14z"/>
	</g>
</g>
<g>
	<g>
		<path class="st3" d="M77.89,129.17c0.16,0,0.16-0.25,0-0.25C77.73,128.92,77.73,129.17,77.89,129.17L77.89,129.17z"/>
	</g>
</g>
<g>
	<g>
		<path class="st3" d="M77.86,129.21c0.16,0,0.16-0.25,0-0.25C77.7,128.96,77.7,129.21,77.86,129.21L77.86,129.21z"/>
	</g>
</g>
<g>
	<g>
		<path class="st3" d="M77.83,129.25c0.16,0,0.16-0.25,0-0.25C77.67,129,77.67,129.25,77.83,129.25L77.83,129.25z"/>
	</g>
</g>
<g>
	<g>
		<path class="st3" d="M77.82,129.03C77.82,129.03,77.81,129.03,77.82,129.03c-0.03,0-0.07,0.01-0.09,0.04
			c-0.02,0.02-0.04,0.06-0.04,0.09c0,0.03,0.01,0.07,0.04,0.09c0.02,0.02,0.05,0.04,0.09,0.04c0,0,0,0,0,0
			c0.03,0,0.07-0.01,0.09-0.04c0.02-0.02,0.04-0.06,0.04-0.09c0-0.03-0.01-0.07-0.04-0.09C77.88,129.04,77.85,129.03,77.82,129.03
			L77.82,129.03z"/>
	</g>
</g>
<g>
	<g>
		<path class="st3" d="M85.94,128.35c0.14,0,0.27,0,0.41,0c0.07,0,0.13,0,0.2,0c0.01,0,0.03,0,0.04,0c0,0,0.04,0,0.02,0
			c0.01,0,0.03,0.01,0.04,0.01c0.01,0,0.02,0.01,0.03,0.01c0.02,0.01,0.02,0.01-0.01-0.01c-0.01-0.03-0.02-0.06-0.04-0.09
			c0,0,0,0.01,0,0.01c0.01-0.02,0.01-0.04,0.02-0.06c0.01-0.01-0.02,0.02-0.03,0.02c-0.01,0.01-0.01,0.01-0.01,0.01
			c-0.01,0-0.01,0.01-0.02,0.01c-0.03,0.02-0.06,0.03-0.09,0.05c-0.06,0.02-0.07,0.11-0.05,0.16c0.02,0.05,0.09,0.09,0.15,0.07
			c0.07-0.02,0.12-0.06,0.16-0.12c0.03-0.05,0.02-0.11-0.02-0.15c-0.04-0.04-0.1-0.04-0.15-0.02c-0.07,0.03-0.14,0.08-0.2,0.14
			c-0.05,0.05-0.05,0.13,0,0.18c0.05,0.05,0.12,0.04,0.18,0c0.09-0.07,0.08-0.2,0.01-0.28c-0.01,0.07-0.02,0.13-0.03,0.2
			c-0.01,0,0.02-0.01,0.02-0.01c0.07-0.02,0.1-0.09,0.09-0.15c-0.02-0.07-0.09-0.1-0.15-0.09c-0.03,0.01-0.06,0.02-0.08,0.03
			c-0.07,0.04-0.08,0.14-0.03,0.2c-0.01-0.01-0.02-0.02-0.02-0.04c0-0.01,0.01-0.02,0.01-0.04c0.01-0.01,0.01-0.01,0,0
			c0.06,0.06,0.12,0.12,0.18,0.18c0.04-0.04,0.08-0.07,0.15-0.1c-0.06-0.06-0.11-0.11-0.17-0.17c-0.01,0.01-0.01,0.01,0,0.01
			c0-0.01,0,0-0.01,0.01c0.02,0-0.02,0,0,0c0.03,0.08,0.06,0.15,0.1,0.23c0.04-0.02,0.08-0.04,0.12-0.07
			c0.05-0.04,0.12-0.09,0.13-0.16c0.02-0.16-0.17-0.19-0.29-0.2c-0.21-0.02-0.43,0-0.65,0c-0.07,0-0.13,0.06-0.12,0.12
			C85.82,128.29,85.87,128.35,85.94,128.35L85.94,128.35z"/>
	</g>
</g>
<g>
	<g>
		<path class="st3" d="M86.85,128.16c-0.04,0.03-0.07,0.08-0.1,0.12c-0.03,0.04-0.06,0.08-0.08,0.13c-0.05,0.09-0.12,0.17-0.14,0.27
			c-0.02,0.07,0.04,0.16,0.12,0.16c0.07,0,0.14-0.04,0.17-0.1c0.03-0.06,0.02-0.14-0.04-0.17c-0.06-0.03-0.14-0.02-0.17,0.04
			c-0.01,0.01,0,0.01,0.01-0.01c-0.01,0.01-0.01,0.01,0.01-0.01c-0.01,0.01-0.01,0,0.01,0c-0.01,0-0.01,0,0.01,0
			c0.04,0.05,0.08,0.11,0.12,0.16c0-0.01,0.01-0.02,0.01-0.03c0-0.01,0-0.01,0,0.01c0,0,0-0.01,0.01-0.01
			c0.01-0.02,0.02-0.04,0.03-0.06c0.02-0.04,0.05-0.08,0.07-0.12c0.03-0.04,0.05-0.08,0.08-0.12c0.01-0.01,0.01-0.02,0.02-0.03
			c0,0,0.01-0.01,0.01-0.01c-0.01,0.01-0.01,0.02,0,0.01c0.01-0.02,0.03-0.03,0.05-0.04c0.02-0.02,0.04-0.06,0.04-0.09
			c0-0.03-0.01-0.07-0.04-0.09c-0.02-0.02-0.06-0.04-0.09-0.04C86.91,128.13,86.88,128.14,86.85,128.16L86.85,128.16z"/>
	</g>
</g>
<g>
	<g>
		<path class="st3" d="M86.92,128.28c0,0.01,0,0.03,0,0.04c0-0.02,0-0.02,0-0.01c0,0,0,0.01,0,0.01c0,0.02-0.01,0.04-0.02,0.06
			c-0.01,0.02-0.01,0.04-0.02,0.06c0,0.01-0.01,0.03,0,0c0,0.01-0.01,0.02-0.01,0.03c-0.04,0.08-0.07,0.17-0.11,0.25
			c-0.01,0.03-0.02,0.06-0.01,0.1c0.01,0.03,0.03,0.06,0.06,0.07c0.06,0.03,0.14,0.02,0.17-0.04c0.01-0.01,0.02-0.03,0.02-0.04
			c0.03-0.06,0.02-0.14-0.04-0.17c-0.06-0.03-0.14-0.02-0.17,0.04c-0.01,0.01-0.02,0.03-0.02,0.04c0.07,0.04,0.14,0.08,0.22,0.13
			c0.04-0.09,0.08-0.18,0.12-0.27c0.04-0.1,0.08-0.2,0.09-0.31c0-0.07-0.06-0.13-0.12-0.12C86.97,128.15,86.92,128.21,86.92,128.28
			L86.92,128.28z"/>
	</g>
</g>
<g>
	<g>
		<path class="st3" d="M87.05,128.23c-0.03,0.06-0.06,0.11-0.1,0.17c-0.04,0.06-0.07,0.11-0.11,0.17c-0.08,0.12-0.15,0.23-0.23,0.35
			c-0.04,0.05-0.01,0.14,0.04,0.17c0.06,0.03,0.13,0.01,0.17-0.04c0.08-0.12,0.15-0.23,0.23-0.35c0.04-0.06,0.07-0.11,0.11-0.17
			c0.04-0.05,0.07-0.11,0.1-0.17c0.03-0.06,0.02-0.14-0.04-0.17C87.17,128.16,87.08,128.17,87.05,128.23L87.05,128.23z"/>
	</g>
</g>
<g>
	<g>
		<path class="st3" d="M87.07,128.3c0,0.01-0.01,0.01-0.01,0.02c0.01-0.02,0,0,0,0c-0.01,0.01-0.01,0.03-0.02,0.04
			c-0.01,0.03-0.03,0.05-0.04,0.08c-0.03,0.06-0.07,0.11-0.11,0.16c-0.08,0.1-0.16,0.21-0.23,0.31c-0.03,0.06-0.01,0.14,0.04,0.17
			c0.06,0.03,0.13,0.01,0.17-0.04c0.07-0.11,0.15-0.22,0.23-0.32c0.08-0.11,0.15-0.23,0.2-0.36c0.02-0.06-0.03-0.14-0.09-0.15
			C87.15,128.2,87.09,128.24,87.07,128.3L87.07,128.3z"/>
	</g>
</g>
<g>
	<g>
		<path class="st3" d="M86.94,128.55c0,0.01-0.01,0.02-0.01,0.04C86.93,128.57,86.94,128.56,86.94,128.55
			c-0.03,0.07-0.07,0.12-0.11,0.17c0.01-0.01,0.01-0.02,0.02-0.03c-0.05,0.06-0.09,0.12-0.14,0.17c-0.02,0.03-0.04,0.05-0.04,0.09
			c0,0.03,0.01,0.07,0.04,0.09c0.02,0.02,0.06,0.04,0.09,0.04c0.03,0,0.07-0.01,0.09-0.04c0.06-0.07,0.11-0.14,0.17-0.21
			c0.05-0.07,0.11-0.14,0.13-0.22c0.01-0.06-0.02-0.14-0.09-0.15C87.03,128.44,86.95,128.48,86.94,128.55L86.94,128.55z"/>
	</g>
</g>
<g>
	<g>
		<path class="st3" d="M70.48,108.07c0.16,0,0.16-0.25,0-0.25C70.32,107.82,70.32,108.07,70.48,108.07L70.48,108.07z"/>
	</g>
</g>
<g>
	<g>
		<path class="st3" d="M70.53,108.06c0.16,0,0.16-0.25,0-0.25C70.37,107.81,70.37,108.06,70.53,108.06L70.53,108.06z"/>
	</g>
</g>
<g>
	<g>
		<path class="st3" d="M70.61,108.03c0.06-0.03,0.09-0.04,0.15-0.06c0.06-0.02,0.11-0.03,0.17-0.05c0.12-0.04,0.25-0.07,0.37-0.11
			c0.06-0.02,0.11-0.09,0.09-0.15c-0.02-0.06-0.09-0.11-0.15-0.09c-0.13,0.04-0.26,0.07-0.39,0.11c-0.13,0.04-0.25,0.07-0.37,0.13
			c-0.06,0.03-0.08,0.11-0.04,0.17C70.48,108.04,70.55,108.06,70.61,108.03L70.61,108.03z"/>
	</g>
</g>
<g>
	<g>
		<path class="st3" d="M36.56,103.06c-0.04-0.26,0.02-0.49,0.12-0.73c0.1-0.25,0.2-0.49,0.3-0.73c0.2-0.49,0.41-0.98,0.62-1.47
			c0.06-0.15-0.15-0.27-0.22-0.13c-0.23,0.53-0.45,1.06-0.67,1.59c-0.21,0.5-0.47,0.98-0.4,1.54
			C36.34,103.28,36.58,103.21,36.56,103.06L36.56,103.06z"/>
	</g>
</g>
<g>
	<g>
		<path class="st3" d="M36.99,101.32c0.34-1.11,1.08-2.03,1.65-3.02c0.08-0.14-0.13-0.27-0.22-0.13c-0.59,1.01-1.33,1.95-1.68,3.08
			C36.7,101.4,36.95,101.47,36.99,101.32L36.99,101.32z"/>
	</g>
</g>
<g>
	<g>
		<path class="st3" d="M40.11,94.93c-1.24,1.66-2.26,3.47-3.05,5.39c-0.06,0.15,0.18,0.21,0.24,0.07c0.78-1.89,1.8-3.68,3.02-5.33
			C40.42,94.93,40.2,94.8,40.11,94.93L40.11,94.93z"/>
	</g>
</g>
<g>
	<g>
		<path class="st3" d="M38.43,97.72c-0.38,0.68-0.7,1.4-0.94,2.14c-0.05,0.15,0.19,0.22,0.24,0.07c0.24-0.72,0.54-1.42,0.92-2.08
			C38.72,97.71,38.51,97.58,38.43,97.72L38.43,97.72z"/>
	</g>
</g>
<g>
	<g>
		<path class="st3" d="M37.14,100.57c0.16,0,0.16-0.25,0-0.25C36.98,100.32,36.98,100.57,37.14,100.57L37.14,100.57z"/>
	</g>
</g>
<g>
	<g>
		<path class="st6" d="M17.36,125.25c-0.65-0.09-1.37,0.07-2.02,0.16c-0.67,0.09-1.33,0.22-2,0.33c-1.46,0.23-2.91,0.18-4.38,0.04
			c-0.32-0.03-0.32,0.47,0,0.5c1.4,0.14,2.8,0.19,4.2-0.01c0.67-0.09,1.34-0.23,2.01-0.33c0.69-0.11,1.49-0.28,2.19-0.19
			C17.68,125.79,17.67,125.29,17.36,125.25L17.36,125.25z"/>
	</g>
</g>
<g>
	<g>
		<path class="st6" d="M11.84,129.25c0.28,0.46,0.57,0.92,0.85,1.38c0.13,0.22,0.26,0.44,0.38,0.67c0.12,0.23,0.22,0.45,0.29,0.62
			c0.09,0.24,0.34,0.44,0.62,0.35c0.24-0.08,0.45-0.35,0.35-0.62c-0.4-1.04-1.04-1.96-1.63-2.9c-0.14-0.22-0.45-0.33-0.68-0.18
			C11.8,128.71,11.7,129.01,11.84,129.25L11.84,129.25z"/>
	</g>
</g>
<g>
	<g>
		<path class="st7" d="M14.51,127.51c-0.06,0.04-0.13,0.09-0.19,0.13c-0.06,0.03-0.11,0.07-0.14,0.13c-0.04,0.05-0.07,0.1-0.09,0.17
			c-0.02,0.07-0.02,0.13-0.01,0.2c0,0.07,0.02,0.13,0.06,0.19c0.03,0.03,0.05,0.07,0.08,0.1c0.06,0.06,0.14,0.1,0.22,0.13
			c0.04,0.01,0.09,0.01,0.13,0.02c0.09,0,0.17-0.02,0.25-0.07c0.06-0.04,0.13-0.09,0.19-0.13c0.06-0.03,0.11-0.07,0.14-0.13
			c0.04-0.05,0.07-0.1,0.09-0.17c0.02-0.07,0.02-0.13,0.01-0.2c0-0.07-0.02-0.13-0.06-0.19c-0.03-0.03-0.05-0.07-0.08-0.1
			c-0.06-0.06-0.14-0.1-0.22-0.13c-0.04-0.01-0.09-0.01-0.13-0.02C14.68,127.45,14.59,127.47,14.51,127.51L14.51,127.51z"/>
	</g>
</g>
<g>
	<g>
		<path class="st7" d="M22.1,115.49c-0.03-0.52-0.47-0.77-0.61-1.24c-0.14-0.48-0.17-1-0.21-1.5c-0.11-1.17-0.14-2.34-0.11-3.51
			c0.01-0.49-0.69-0.69-0.93-0.25c-0.56,1.01-0.57,2.2-0.05,3.24c0.29,0.58,1.15,0.07,0.86-0.5c-0.35-0.7-0.32-1.54,0.05-2.23
			c-0.31-0.08-0.62-0.17-0.93-0.25c-0.03,1.17,0.01,2.34,0.11,3.51c0.05,0.53,0.09,1.06,0.2,1.58c0.05,0.23,0.13,0.46,0.24,0.67
			c0.07,0.12,0.15,0.23,0.24,0.34c0.02,0.03,0.15,0.17,0.15,0.16C21.14,116.13,22.14,116.14,22.1,115.49L22.1,115.49z"/>
	</g>
</g>
<g>
	<g>
		<path class="st7" d="M20.89,109.88c0.4,0.02,0.8-0.09,1.18-0.2c0.33-0.09,0.66-0.2,1-0.11c-0.07-0.28-0.15-0.56-0.22-0.84
			c-0.55,0.43-1.11,0.84-1.67,1.24c-0.34,0.25-0.32,0.78,0.12,0.91c0.32,0.1,0.64,0.01,0.87-0.23c-0.28-0.12-0.57-0.24-0.85-0.35
			c-0.16,1.37-0.33,2.73-0.49,4.1c0.25-0.14,0.5-0.29,0.75-0.43c0.26,0.12,0.04,0.2,0.09,0.09c0.03-0.07,0-0.23,0-0.31
			c0-0.21,0-0.42,0-0.63c0-0.42-0.01-0.84-0.01-1.25c-0.01-0.84-0.01-1.67-0.02-2.51c0-0.64-1-0.64-1,0
			c0.01,0.98,0.01,1.95,0.02,2.93c0,0.49,0.01,0.98,0.01,1.46c0,0.4-0.02,0.88,0.41,1.09c0.37,0.18,0.71-0.04,0.75-0.43
			c0.16-1.37,0.33-2.73,0.49-4.1c0.05-0.45-0.57-0.64-0.85-0.35c0.03-0.01,0.07-0.02,0.1-0.03c0.04,0.3,0.08,0.61,0.12,0.91
			c0.63-0.45,1.26-0.92,1.87-1.4c0.31-0.24,0.1-0.74-0.22-0.84c-0.43-0.13-0.86-0.08-1.29,0.04c-0.39,0.1-0.76,0.25-1.16,0.23
			C20.25,108.85,20.25,109.85,20.89,109.88L20.89,109.88z"/>
	</g>
</g>
<g>
	<g>
		<path class="st7" d="M67.89,97.99c-0.02-0.03-0.03-0.06-0.04-0.09c0.02,0.04,0.03,0.08,0.05,0.12c-0.03-0.07-0.05-0.15-0.06-0.23
			c0.01,0.04,0.01,0.09,0.02,0.13c-0.01-0.08-0.01-0.16,0-0.24c-0.01,0.04-0.01,0.09-0.02,0.13c0.01-0.09,0.04-0.18,0.07-0.26
			c-0.02,0.04-0.03,0.08-0.05,0.12c0.03-0.07,0.07-0.14,0.12-0.21c-0.03,0.03-0.05,0.07-0.08,0.1c0.04-0.05,0.09-0.1,0.15-0.15
			c-0.03,0.03-0.07,0.05-0.1,0.08c0.01-0.01,0.03-0.02,0.04-0.03c0.11-0.08,0.19-0.17,0.23-0.3c0.03-0.12,0.02-0.28-0.05-0.39
			c-0.07-0.11-0.17-0.2-0.3-0.23c-0.13-0.03-0.28-0.03-0.39,0.05c-0.29,0.2-0.51,0.5-0.59,0.85c-0.08,0.35-0.04,0.72,0.14,1.04
			c0.06,0.11,0.18,0.2,0.3,0.23c0.12,0.03,0.28,0.02,0.39-0.05C67.94,98.52,68.03,98.23,67.89,97.99L67.89,97.99z"/>
	</g>
</g>
<g>
	<g>
		<path class="st7" d="M80.66,129.18c0.05-0.07-0.05,0.06-0.01,0.02c0.01-0.02,0.03-0.03,0.04-0.05c0.03-0.03,0.06-0.07,0.09-0.1
			c0.03-0.03,0.06-0.06,0.1-0.09c0.02-0.02,0.04-0.03,0.06-0.05c0.05-0.04-0.01,0.01-0.03,0.02c0.08-0.04,0.15-0.1,0.23-0.15
			c0.04-0.02,0.09-0.05,0.13-0.07c0.06-0.03-0.02,0.01-0.04,0.01c0.02,0,0.05-0.02,0.07-0.03c0.08-0.03,0.17-0.06,0.26-0.08
			c0.04-0.01,0.09-0.02,0.13-0.03c0.07-0.01-0.03,0.01-0.04,0.01c0.02,0,0.05-0.01,0.07-0.01c0.09-0.01,0.18-0.01,0.27,0
			c0.02,0,0.04,0,0.06,0c0.08,0.01,0.01,0-0.03-0.01c0.05,0.01,0.1,0.02,0.15,0.03c0.25,0.06,0.55-0.08,0.62-0.35
			c0.06-0.25-0.08-0.55-0.35-0.62c-0.47-0.1-0.98-0.08-1.43,0.09c-0.49,0.19-0.89,0.49-1.2,0.92c-0.15,0.21-0.04,0.57,0.18,0.68
			C80.24,129.5,80.49,129.41,80.66,129.18L80.66,129.18z"/>
	</g>
</g>
<g>
	<g>
		<path class="st7" d="M44.18,110.08c-0.06-0.03-0.12-0.05-0.17-0.09c-0.21-0.12,0-0.03-0.01,0.01c0-0.01-0.25-0.24-0.27-0.26
			c-0.03-0.03-0.06-0.07-0.08-0.1c0.03,0.03,0.05,0.07,0.08,0.1c-0.02,0-0.1-0.14-0.12-0.16c-0.08-0.11-0.15-0.22-0.22-0.33
			c-0.38-0.59-0.78-1.1-1.35-1.51c-0.14-0.1-0.28-0.19-0.41-0.29c0.14,0.11,0-0.01-0.05-0.06c-0.06-0.06-0.11-0.12-0.16-0.18
			c0.11,0.13,0.02,0.02-0.03-0.05c-0.05-0.06-0.09-0.13-0.14-0.2c-0.12-0.18-0.25-0.35-0.39-0.52c-0.22-0.27-0.5-0.47-0.79-0.66
			c-0.12-0.08-0.24-0.16-0.36-0.24c-0.06-0.04-0.04-0.03,0.06,0.05c-0.03-0.02-0.05-0.05-0.08-0.07c-0.05-0.05-0.19-0.25-0.05-0.04
			c-0.29-0.43-0.89-0.67-1.37-0.36c-0.43,0.28-0.67,0.91-0.36,1.37c0.25,0.37,0.56,0.63,0.93,0.88c0.12,0.08,0.24,0.16,0.36,0.24
			c0.19,0.13-0.14-0.14,0.02,0.02c0.06,0.06,0.11,0.11,0.16,0.17c0.15,0.16-0.08-0.12,0.04,0.05c0.04,0.07,0.09,0.13,0.14,0.2
			c0.13,0.19,0.27,0.38,0.41,0.56c0.25,0.31,0.59,0.54,0.91,0.77c0.02,0.02,0.24,0.18,0.07,0.04c0.06,0.05,0.12,0.1,0.18,0.15
			c0.07,0.07,0.23,0.2,0.26,0.29c-0.09-0.11-0.1-0.13-0.04-0.04c0.02,0.03,0.04,0.05,0.06,0.08c0.04,0.06,0.08,0.11,0.11,0.17
			c0.08,0.12,0.16,0.24,0.24,0.37c0.36,0.55,0.79,1.11,1.4,1.38c0.48,0.21,1.1,0.15,1.37-0.36
			C44.76,111.01,44.69,110.3,44.18,110.08L44.18,110.08z"/>
	</g>
</g>
<g>
	<g>
		<path class="st7" d="M39.95,105.27c-0.08-0.37-0.03-0.86,0.08-1.28c0.14-0.54,0.34-1.06,0.54-1.58c0.3-0.75,0.8-1.82,1.31-2.44
			c0.33-0.41,0.43-1.02,0-1.41c-0.37-0.34-1.06-0.43-1.41,0c-0.81,1-1.35,2.13-1.82,3.33c-0.5,1.26-0.9,2.55-0.62,3.92
			c0.11,0.51,0.74,0.86,1.23,0.7C39.8,106.32,40.07,105.82,39.95,105.27L39.95,105.27z"/>
	</g>
</g>
<g>
	<g>
		<path class="st7" d="M40.03,100.87c0.16,1.51-0.27,3-0.15,4.51c0.12,1.44,0.62,2.73,1.79,3.62c0.43,0.33,1.12,0.07,1.37-0.36
			c0.3-0.51,0.07-1.04-0.36-1.37c0.11,0.08-0.15-0.16-0.18-0.18c-0.08-0.09-0.09-0.1-0.04-0.03c-0.04-0.05-0.08-0.11-0.11-0.17
			c-0.07-0.11-0.14-0.23-0.2-0.36c-0.09-0.18,0,0.04-0.06-0.14c-0.08-0.27-0.16-0.53-0.2-0.81c0.02,0.15-0.02-0.22-0.03-0.26
			c-0.01-0.12-0.01-0.25-0.02-0.37c-0.02-1.37,0.31-2.72,0.17-4.08c-0.06-0.54-0.42-1-1-1C40.54,99.87,39.98,100.33,40.03,100.87
			L40.03,100.87z"/>
	</g>
</g>
<g>
	<g>
		<path class="st7" d="M59.04,123.41c0.37-0.75,0.31-1.47,0.29-2.28c-0.02-0.62,0.11-1.17,0.42-1.71c0.33-0.56,0.88-1,1.37-1.46
			c0.6-0.55,1.21-1.11,1.81-1.66c0.4-0.37,0.37-1.04,0-1.41c-0.4-0.4-1.01-0.37-1.41,0c-0.6,0.55-1.21,1.11-1.81,1.66
			c-0.59,0.54-1.19,1.07-1.62,1.76c-0.42,0.67-0.65,1.43-0.73,2.21c-0.04,0.37-0.01,0.73,0.01,1.1c0.01,0.16,0.01,0.33,0.01,0.49
			c0,0.09-0.02,0.23-0.05,0.3c-0.24,0.49-0.13,1.08,0.36,1.37C58.11,124.03,58.8,123.9,59.04,123.41L59.04,123.41z"/>
	</g>
</g>
<g>
	<g>
		<path class="st7" d="M59.8,121.37c0-0.4,0.03-0.78,0.22-1.14c0.18-0.34,0.44-0.63,0.71-0.91c0.58-0.6,1.29-1.18,1.46-2.04
			c0.05-0.26-0.08-0.54-0.35-0.62c-0.25-0.07-0.56,0.08-0.62,0.35c-0.15,0.78-0.93,1.29-1.44,1.85c-0.28,0.31-0.54,0.65-0.72,1.04
			c-0.21,0.47-0.27,0.95-0.27,1.46C58.8,122.02,59.8,122.02,59.8,121.37L59.8,121.37z"/>
	</g>
</g>
<g>
	<g>
		<path class="st7" d="M63.3,114.9c0.07,0.04,0.09,0.04,0.04,0.02c0.02,0.01,0.04,0.03,0.06,0.04c-0.03-0.04-0.03-0.03,0.03,0.04
			c-0.02-0.04-0.02-0.03,0,0.01c0.04,0.1,0-0.1,0,0.02c0.01,0.1,0.01-0.02,0-0.04c0-0.04,0-0.02-0.01,0.06
			c0-0.02,0.01-0.04,0.01-0.06c0.02-0.09-0.04,0.1,0,0.01c0.01-0.01,0.01-0.02,0.02-0.03c-0.04,0.05-0.04,0.05,0,0.01
			c0.03-0.02,0.06-0.05,0.09-0.08c-0.06,0.06-0.01,0.01,0.03-0.01c0.03-0.02,0.07-0.04,0.1-0.06c0.07-0.04,0.13-0.08,0.2-0.13
			c0.15-0.1,0.3-0.22,0.44-0.34c0.23-0.2,0.45-0.41,0.69-0.6c0.1-0.08-0.09,0.06,0.02-0.01c0.03-0.02,0.06-0.04,0.09-0.06
			c0.06-0.04,0.12-0.08,0.18-0.12c0.03-0.02,0.06-0.03,0.1-0.05c0.02-0.01,0.04-0.02,0.07-0.03c-0.02,0.01-0.04,0.01-0.05,0.02
			c0.06-0.04,0.17-0.06,0.24-0.08c0.25-0.06,0.43-0.36,0.35-0.62c-0.09-0.27-0.34-0.41-0.62-0.35c-0.42,0.1-0.78,0.34-1.11,0.61
			c-0.15,0.12-0.28,0.24-0.42,0.37c-0.07,0.06-0.13,0.12-0.2,0.17c-0.04,0.03-0.08,0.06-0.11,0.1c-0.02,0.02-0.04,0.03-0.06,0.05
			c0.05-0.04,0.06-0.04,0.03-0.02c-0.38,0.27-0.82,0.47-1,0.93c-0.08,0.2-0.08,0.43-0.02,0.63c0.09,0.27,0.28,0.46,0.55,0.55
			c0.25,0.09,0.56-0.1,0.62-0.35C63.71,115.23,63.56,114.99,63.3,114.9L63.3,114.9z"/>
	</g>
</g>
<g>
	<g>
		<path class="st7" d="M64.05,115.31c0.23-0.17,0.44-0.36,0.63-0.58c0.18-0.22,0.35-0.45,0.47-0.71c0.06-0.12,0.09-0.25,0.05-0.39
			c-0.03-0.12-0.12-0.24-0.23-0.3c-0.12-0.06-0.26-0.09-0.39-0.05c-0.12,0.04-0.24,0.11-0.3,0.23c-0.09,0.19-0.21,0.36-0.33,0.53
			c0.03-0.03,0.05-0.07,0.08-0.1c-0.16,0.21-0.35,0.4-0.56,0.56c0.03-0.03,0.07-0.05,0.1-0.08c-0.01,0.01-0.02,0.01-0.03,0.02
			c-0.06,0.03-0.11,0.07-0.14,0.13c-0.04,0.05-0.07,0.1-0.09,0.17c-0.03,0.12-0.02,0.28,0.05,0.39c0.07,0.11,0.17,0.2,0.3,0.23
			C63.79,115.39,63.95,115.39,64.05,115.31L64.05,115.31z"/>
	</g>
</g>
</svg>
