<?xml version="1.0" encoding="utf-8"?>
<!-- Generator: Adobe Illustrator 27.4.1, SVG Export Plug-In . SVG Version: 6.00 Build 0)  -->
<svg version="1.1" id="Layer_13" xmlns="http://www.w3.org/2000/svg" xmlns:xlink="http://www.w3.org/1999/xlink" x="0px" y="0px"
	 viewBox="0 0 207 207" style="enable-background:new 0 0 207 207;" xml:space="preserve">
<style type="text/css">
	.st0{fill:#E5FFFB;}
	.st1{fill:#497572;}
	.st2{fill:#009E9C;}
	.st3{fill:#2CF0D6;}
	.st4{fill:#92FFEA;}
	.st5{fill:none;stroke:#497572;stroke-width:5;stroke-miterlimit:10;}
</style>
<path class="st0" d="M189.5,204.5H16c-6.6,0-12-5.4-12-12V14C4,7.4,9.4,2,16,2h173.5c6.6,0,12,5.4,12,12v178.5
	C201.5,199.1,196.1,204.5,189.5,204.5z"/>
<path class="st1" d="M205,154c-7.17-7.06-20.54-16.36-39.5-23.5c-13.39-5.04-25.4-6.6-34-7L114.01,139l90.08,47.6L205,154z"/>
<path class="st1" d="M93,34c4.72-1.88,18.99-5.58,32-2c25.1,6.92,32.88,34.98,34,39c6.11,21.96-2.49,40.57-5,46
	c-3.52,7.61-7.77,13.27-11,17l-22-18L96,35.76L93,34z"/>
<ellipse class="st2" cx="104" cy="86.5" rx="37" ry="52.5"/>
<path class="st2" d="M7,185c7.69-16.79,18.24-25.19,24-29c10.91-7.22,21.24-8.98,39-12c7.09-1.21,19.98-3.33,37-3
	c20.23,0.4,42.38,0.54,65,13c0,0,20.14,11.1,27,28c1.19,2.94,3.15,7.97,1,13c-1.72,4.02-5.23,6.11-7,7H14.44l-8.94-8.53L7,185z"/>
<path class="st3" d="M114,141c0.58,3.2-21.64,4.85-41,24c-4.66,4.61-18.4,18.21-15,32c0.99,4.03,3.19,7.03,5,9l-45.13-1.5
	C7.28,199.26,4.64,193.94,4,190.36c-3-16.9,31.11-37.78,59-46.36C89.28,135.91,113.41,137.71,114,141z"/>
<path class="st4" d="M66,158c-10.07,5.14-14.23,11.03-16,16c-2.92,8.22,0.38,14.9-4,18c-4.28,3.02-11.95-0.15-14-1
	c-3.35-1.39-5.28-2.19-6-4c-2.25-5.69,9.67-15.9,18-21C51.59,161.36,59.3,159.07,66,158z"/>
<path class="st3" d="M112,138c-3.47,0.54-20,2.77-33-8c-11.98-9.92-12.97-24.41-14-35c-0.72-7.42-1.98-33.55,16.64-50.33
	C87.61,39.3,93.82,36.49,98,35c-1.52,4.65-3.5,11.51-5,20c-1.67,9.46-4.04,23.6-1,41c1.42,8.11,2.98,16.66,9,26
	c4.69,7.28,10.12,12.09,14,15L112,138z"/>
<path class="st4" d="M92,121c1.09-0.69-5.95-8.79-9-24c-3.8-18.91,1.84-32.5,0-33c-1.83-0.49-10.17,12.24-9,27
	C75.44,109.12,90.55,121.92,92,121z"/>
<path class="st5" d="M182.34,204.5H24.66c-12.24,0-22.16-9.92-22.16-22.16V24.66C2.5,12.42,12.42,2.5,24.66,2.5h157.68
	c12.24,0,22.16,9.92,22.16,22.16v157.68C204.5,194.58,194.58,204.5,182.34,204.5z"/>
<ellipse class="st5" cx="103" cy="87" rx="38.5" ry="52.5"/>
<path class="st5" d="M201.5,193.5c0-29.85-42.94-54-96-54h-3c-52.51,0-97,24.15-97,54"/>
</svg>
