<?xml version="1.0" encoding="utf-8"?>
<!-- Generator: Adobe Illustrator 27.4.0, SVG Export Plug-In . SVG Version: 6.00 Build 0)  -->
<svg version="1.1" id="Layer_2" xmlns="http://www.w3.org/2000/svg" xmlns:xlink="http://www.w3.org/1999/xlink" x="0px" y="0px"
	 viewBox="0 0 416.35 63.35" style="enable-background:new 0 0 416.35 63.35;" xml:space="preserve">
<style type="text/css">
	.st0{fill:#FFFFFF;}
	.st1{fill:none;stroke:#004544;stroke-width:5;stroke-miterlimit:10;}
</style>
<path class="st0" d="M7.66,2.5l400.56,0c2.69,0,4.88,2.18,4.88,4.88l-0.02,48.11c0,2.69-2.18,4.87-4.88,4.87L7.49,60.34
	c-2.7,0-4.88-2.19-4.88-4.89L2.78,7.36C2.79,4.67,4.97,2.5,7.66,2.5z"/>
<path class="st1" d="M4.26,2.5l408.01,0c0.57,0,1.07,0.59,1.35,1.47c0.15,0.48,0.24,1.04,0.24,1.64l-0.02,52.14
	c0,1.71-0.71,3.1-1.58,3.1L4.08,60.83c-0.88,0-1.59-1.4-1.58-3.13L2.67,5.59C2.68,3.88,3.39,2.5,4.26,2.5z"/>
</svg>
