<?xml version="1.0" encoding="utf-8"?>
<!-- Generator: Adobe Illustrator 27.4.1, SVG Export Plug-In . SVG Version: 6.00 Build 0)  -->
<svg version="1.1" id="Layer_1" xmlns="http://www.w3.org/2000/svg" xmlns:xlink="http://www.w3.org/1999/xlink" x="0px" y="0px"
	 viewBox="0 0 142.76 145.89" style="enable-background:new 0 0 142.76 145.89;" xml:space="preserve">
<style type="text/css">
	.st0{fill:#541D02;stroke:#541D02;stroke-width:3;stroke-miterlimit:10;}
	.st1{fill:#009E9C;stroke:#004545;stroke-width:5;stroke-miterlimit:10;}
	.st2{fill:#2CF0D6;stroke:#004545;stroke-width:5;stroke-miterlimit:10;}
	.st3{fill:#FF6417;stroke:#541D02;stroke-width:3;stroke-miterlimit:10;}
</style>
<path class="st0" d="M141.24,42.81h-3.44V2.8c0-0.49,0.4-0.89,0.89-0.89h1.97c0.32,0,0.58,0.26,0.58,0.58V42.81z"/>
<path class="st1" d="M64.18,20.03C30.12,20.03,2.5,47.64,2.5,81.71s27.62,61.68,61.68,61.68s61.68-27.62,61.68-61.68
	S98.25,20.03,64.18,20.03z M64.18,95c-7.34,0-13.29-5.95-13.29-13.29c0-7.34,5.95-13.29,13.29-13.29c7.34,0,13.29,5.95,13.29,13.29
	C77.47,89.05,71.52,95,64.18,95z"/>
<path class="st2" d="M64.18,57.62c-13.31,0-24.09,10.79-24.09,24.09c0,13.31,10.79,24.09,24.09,24.09
	c13.31,0,24.09-10.79,24.09-24.09C88.27,68.4,77.49,57.62,64.18,57.62z M64.18,96.63c-8.24,0-14.92-6.68-14.92-14.92
	c0-8.24,6.68-14.92,14.92-14.92S79.1,73.47,79.1,81.71C79.1,89.95,72.42,96.63,64.18,96.63z"/>
<ellipse class="st3" cx="132.11" cy="44.97" rx="9.13" ry="7.22"/>
<path class="st3" d="M101.79,10.48c-1.08-9.19,26.82-7.5,36.01-8.58c0.85-0.1,3.34-0.85,3.44,0c1.08,9.19-36.01,8.58-36.01,8.58
	S101.89,11.33,101.79,10.48z"/>
<path class="st0" d="M105.23,51.38h-3.44V11.06c0-0.32,0.26-0.58,0.58-0.58h2.86V51.38z"/>
<ellipse class="st3" cx="96.1" cy="52.19" rx="9.13" ry="7.22"/>
</svg>
