<?xml version="1.0" encoding="utf-8"?>
<!-- Generator: Adobe Illustrator 27.4.1, SVG Export Plug-In . SVG Version: 6.00 Build 0)  -->
<svg version="1.1" id="Layer_2" xmlns="http://www.w3.org/2000/svg" xmlns:xlink="http://www.w3.org/1999/xlink" x="0px" y="0px"
	 viewBox="0 0 143.13 137.89" style="enable-background:new 0 0 143.13 137.89;" xml:space="preserve">
<style type="text/css">
	.st0{fill:#009E9C;}
	.st1{fill:none;stroke:#004544;stroke-width:5;stroke-miterlimit:10;}
	.st2{fill:#92FFEA;}
	.st3{fill:none;stroke:#004544;stroke-width:3;stroke-miterlimit:10;}
	.st4{fill:#E5FFFB;}
	.st5{fill:#009D9C;}
	.st6{fill:#2CF0D6;}
</style>
<path class="st0" d="M1.41,21.48V128.4c0,3.02,2.44,5.46,5.46,5.46h77.46c3.02,0,5.46-2.44,5.46-5.46V21.44c0-3-2.43-5.43-5.43-5.43
	H6.87C3.85,16.02,1.41,18.46,1.41,21.48z"/>
<path class="st1" d="M2.5,20.18v106.92c0,3.02,2.44,5.46,5.46,5.46h77.46c3.02,0,5.46-2.44,5.46-5.46V20.15c0-3-2.43-5.43-5.43-5.43
	H7.96C4.94,14.72,2.5,17.17,2.5,20.18z"/>
<path class="st2" d="M8.17,22.42v106.92c0,3.02,2.3,5.46,5.14,5.46h72.93c2.84,0,5.14-2.44,5.14-5.46V22.39c0-3-2.29-5.43-5.11-5.43
	H13.31C10.47,16.96,8.17,19.4,8.17,22.42z"/>
<path class="st3" d="M8.17,22.2v106.92c0,3.02,2.3,5.46,5.14,5.46h72.93c2.84,0,5.14-2.44,5.14-5.46V22.17c0-3-2.29-5.43-5.11-5.43
	H13.31C10.47,16.74,8.17,19.19,8.17,22.2z"/>
<path class="st4" d="M13.74,24.19v106.75c0,3.01,2.15,5.45,4.8,5.45h68.04c2.65,0,4.8-2.44,4.8-5.45V24.16
	c0-2.99-2.13-5.42-4.77-5.42H18.54C15.89,18.74,13.74,21.18,13.74,24.19z"/>
<path class="st3" d="M13.74,24.19v106.75c0,3.01,2.15,5.45,4.8,5.45h68.04c2.65,0,4.8-2.44,4.8-5.45V24.16
	c0-2.99-2.13-5.42-4.77-5.42H18.54C15.89,18.74,13.74,21.18,13.74,24.19z"/>
<path class="st0" d="M8.01,14.26c-3.46,0-6.05,3.09-5.42,6.43c2.16,11.58,27.54,62.52,36.6,80.32c3.29,6.47,4.92,9.8,9.33,13.52
	c1.28,1.08,7.22,1.94,8.87,1.62l78.13-7.97c4.87-0.97,6.05-7.25,1.87-9.89c-2.02-1.28-4.08-2.68-6.14-4.21
	c-17.52-13.04-36.39-65.82-41.22-76.58c-0.88-1.96-2.86-3.23-5.04-3.23H8.01z"/>
<ellipse class="st1" cx="73.69" cy="14.51" rx="6.52" ry="11.22"/>
<rect x="63.66" y="16.02" class="st5" width="10.03" height="13.14"/>
<ellipse class="st1" cx="55.85" cy="14.26" rx="6.52" ry="11.22"/>
<rect x="46.38" y="16.02" class="st5" width="9.47" height="13.14"/>
<ellipse class="st1" cx="38.06" cy="13.72" rx="6.52" ry="11.22"/>
<rect x="28.08" y="16.02" class="st5" width="9.97" height="13.14"/>
<ellipse class="st1" cx="20.27" cy="13.72" rx="6.52" ry="11.22"/>
<rect x="11.06" y="16.02" class="st5" width="9.97" height="13.14"/>
<path class="st6" d="M8.17,29.44c1.37-0.99,10.89,13.04,23.96,24.17c3.76,3.2,15.51,12.71,33.19,18.72
	c8.72,2.96,19.56,6.51,33.36,4.43c6.83-1.03,12.25-3.12,15.83-4.79l7.49,14.15l9.27,7.94l8.69,7.55l-1.61,6.81l-82.49,7.79l-9.77-4
	c-2.73-5.65-35.7-74-37.91-81.58C8.07,30.31,7.9,29.63,8.17,29.44z"/>
<path class="st2" d="M98.4,89.19c0.75,1.22-1.75,4.04-2.55,4.94c-5.31,5.97-27.59,16.87-41.36,6.81c-2.76-2.02-5.3-6.45-10.38-15.32
	c-3.58-6.26-9.75-17.02-8-18.38c1.76-1.38,7.26,10.22,21.11,15.49c10.45,3.98,31.95,6.74,38.47,5.96
	C96.17,88.62,97.9,88.38,98.4,89.19z"/>
<path class="st1" d="M8.69,14.26c-3.46,0-6.05,3.09-5.42,6.43c2.16,11.58,27.54,62.52,36.6,80.32c3.29,6.47,4.92,9.8,9.33,13.52
	c1.28,1.08,7.22,1.94,8.87,1.62l78.13-7.97c4.87-0.97,6.05-7.25,1.87-9.89c-2.02-1.28-4.08-2.68-6.14-4.21
	c-17.52-13.04-36.39-65.82-41.22-76.58c-0.88-1.96-2.86-3.23-5.04-3.23H8.69z"/>
</svg>
