<?xml version="1.0" encoding="utf-8"?>
<!-- Generator: Adobe Illustrator 27.4.1, SVG Export Plug-In . SVG Version: 6.00 Build 0)  -->
<svg version="1.1" id="Layer_1" xmlns="http://www.w3.org/2000/svg" xmlns:xlink="http://www.w3.org/1999/xlink" x="0px" y="0px"
	 viewBox="0 0 147.58 129.18" style="enable-background:new 0 0 147.58 129.18;" xml:space="preserve">
<style type="text/css">
	.st0{fill:#009E9C;stroke:#004544;stroke-width:3;stroke-miterlimit:10;}
	.st1{fill:#009E9C;}
	.st2{fill:#2CF0D6;}
	.st3{fill:none;stroke:#004544;stroke-width:3;stroke-miterlimit:10;}
	.st4{fill:#92FFEA;}
	.st5{fill:#F48058;stroke:#53200D;stroke-width:3;stroke-miterlimit:10;}
	.st6{fill:#469E9C;stroke:#004545;stroke-width:3;stroke-miterlimit:10;}
	.st7{fill:#9E3500;stroke:#53200D;stroke-width:3;stroke-miterlimit:10;}
	.st8{fill:#F16522;stroke:#53200D;stroke-width:3;stroke-miterlimit:10;}
	.st9{fill:#FF6417;stroke:#53200D;stroke-width:3;stroke-miterlimit:10;}
</style>
<path class="st0" d="M131.4,30.27c0,0-25.48,20.55-39.26,34.33S74.22,80.98,74.22,80.98L71.6,78.1c0,0,43.87-51.66,49.94-57.77l0,0
	L131.4,30.27"/>
<path class="st1" d="M103.59,64.86c-4.55-5.59-7.52-13.83-8-19.82c-0.96-12.07,0.4-18.23-2.68-26.38
	C87.08,3.22,76.97,0.28,58.39,1.89c-4.07,0.35-10.65,1.49-14.6,2.57C32.69,7.51,14.11,15.42,3.52,61.89
	c-6.69,29.37,6.6,46.48,21.57,56.24c14.93,9.74,32,11.07,50.67,8.26c21-3.17,47.03-12.5,46.75-29.54
	C122.28,82.53,109.43,72.03,103.59,64.86z M85.72,83.83c-6.85,2.76-15.6-2.94-19.53-12.72s-1.57-19.95,5.29-22.7
	s15.6,2.94,19.53,12.72S92.58,81.07,85.72,83.83z"/>
<path class="st2" d="M14.91,31.33c-1.23,7.73-14.77,36.26,0.77,60.34c4.29,6.64,14.55,22.55,35.06,28.77
	c14.53,4.4,40.33,4.09,46.33,2.44c14.14-5.84,14.86-10.24-0.6-1.49c-7.46,5.61-7.34,1.55-17.88,5.21
	c-0.48,0.17-1.66-1.76-16.47,1.09c-7.21-1.43,6.17,0.61-9.59-0.32c-8.02-0.47-9.99,0.84-20.53-5.38
	c-14.61-9.76-17.65-9.4-18.97-12.92C4.85,94.25,7.17,99.3,1.74,87.28C4.78,76.39,0,75.87,3.85,57.49c2.22-4.61,4.25-19.92,6.98-21.1
	L14.91,31.33z"/>
<path class="st3" d="M103.59,64.86c-4.55-5.59-7.52-13.83-8-19.82c-0.96-12.07,0.4-18.23-2.68-26.38
	C87.08,3.22,76.97,0.28,58.39,1.89c-4.07,0.35-10.65,1.49-14.6,2.57C32.69,7.51,14.11,15.42,3.52,61.89
	c-6.69,29.37,6.6,46.48,21.57,56.24c14.93,9.74,32,11.07,50.67,8.26c21-3.17,47.03-12.5,46.75-29.54
	C122.28,82.53,109.43,72.03,103.59,64.86z M85.72,83.83c-6.85,2.76-15.6-2.94-19.53-12.72s-1.57-19.95,5.29-22.7
	s15.6,2.94,19.53,12.72S92.58,81.07,85.72,83.83z"/>
<path class="st2" d="M102.83,41.32c-1.38,2.96-0.21,6.15,1.98,7.17c1.5,0.7,3.4,0.35,4.93-0.75l-9.07,7.91L74.08,80.19l-2.33-2.56"
	/>
<path class="st4" d="M78.94,73.1c0.18,0.44,6.25-5.74,6.41-5.78c0.05-0.01,0.07-0.07,0.08-0.07c0.26-0.5,13.58-12.08,13.04-12.75
	c-0.15-0.18-1.17,0.63-1.79,0.2c-0.29-0.2-0.46-0.64-0.4-1.49L78.94,73.1z"/>
<path class="st3" d="M131.4,30.27c0,0-25.48,20.55-39.26,34.33S74.22,80.98,74.22,80.98L71.6,78.1c0,0,43.87-51.66,49.94-57.77l0,0
	L131.4,30.27"/>
<path class="st5" d="M44.58,30.96c0,0,10.28,9.93,15.94,4.74c5.66-5.18,0.6-6.18,4.55-7.35s6.55-8.87,2.62-10.47
	s-10.2,1.36-12.45-0.21s-9.8,2-11.48,5.01C41.24,27.22,41.22,28.22,44.58,30.96z"/>
<path class="st6" d="M129.68,28.54c1.12,1.13,2.78,1.56,4.29,1.09c8.49-2.67,9-9.16,7.95-11.41c-1.05-2.24,3.35-12.5,4.14-14.33
	c0.02-0.06-0.05-0.1-0.09-0.05c-4.6,4.75-11.52,1.43-16.85,2.73c-3.9,0.95-6.13,7.69-7.06,11.38c-0.37,1.46,0.06,2.99,1.12,4.06
	L129.68,28.54z"/>
<path class="st7" d="M129.68,28.54c1.12,1.13,2.78,1.56,4.29,1.09c8.49-2.67,9-9.16,7.95-11.41c-1.05-2.24,3.35-12.5,4.14-14.33
	c0.02-0.06-0.05-0.1-0.09-0.05c-4.6,4.75-11.52,1.43-16.85,2.73c-3.9,0.95-6.13,7.69-7.06,11.38c-0.37,1.46,0.06,2.99,1.12,4.06
	L129.68,28.54z"/>
<path class="st8" d="M142.37,21.33c-0.11,1.92-2.5,2.91-3.79,1.48c-0.18-0.2-0.37-0.37-0.57-0.49c-1.43-0.88-3.93-0.07-6.36-1.97
	c-2.43-1.9-1.29-4.15-2.36-6.12c-0.43-0.79-1.4-1.15-2.42-1.29c-1.64-0.24-2.51-2.06-1.59-3.44c0.84-1.27,2.08-2.5,3.86-2.94
	c3.13-0.77,7.98,0.85,12.53-0.38c1.59-0.43,3.03,1.04,2.48,2.59c-1.28,3.65-1.8,8.18-1.66,9.5
	C142.61,19.4,142.44,20.18,142.37,21.33z"/>
<path class="st2" d="M13.79,62.12"/>
<path class="st8" d="M21.81,86.96c0,0,1.39,14.22,9.06,13.94s4.46-4.32,8.23-2.65c3.76,1.67,10.74-2.51,8.78-6.27
	c-1.95-3.76-8.65-5.58-9.34-8.23c-0.7-2.65-8.76-4.83-11.99-3.63C21.68,81.94,21.02,82.7,21.81,86.96z"/>
<path class="st7" d="M82.41,99.8c0,0-10.84-9.31-16.19-3.81c-5.35,5.5-0.24,6.21-4.11,7.6s-6.02,9.24-2.01,10.61
	s10.1-1.95,12.44-0.51s9.67-2.56,11.17-5.67C85.97,103.34,85.93,102.33,82.41,99.8z"/>
<path class="st9" d="M42.72,60.64c0,0,2.35-14.1-5.13-15.82s-5.43,3.01-8.63,0.42s-11.02-0.37-10.11,3.78s6.9,7.63,6.88,10.37
	s7.2,6.94,10.64,6.62C41.53,65.52,42.37,64.97,42.72,60.64z"/>
<path class="st4" d="M9.47,89.32c1.64-0.4,3.67,5.03,9.19,12.77c7.2,10.08,13.24,12.99,12.74,13.84c-0.48,0.81-6.03-1.65-13.26-8.05
	c-2.87-2.54-9.39-8.48-9.53-16.68C8.61,90.77,8.37,89.59,9.47,89.32z"/>
</svg>
