<?xml version="1.0" encoding="utf-8"?>
<!-- Generator: Adobe Illustrator 27.4.1, SVG Export Plug-In . SVG Version: 6.00 Build 0)  -->
<svg version="1.1" id="Layer_1" xmlns="http://www.w3.org/2000/svg" xmlns:xlink="http://www.w3.org/1999/xlink" x="0px" y="0px"
	 viewBox="0 0 149.35 151.88" style="enable-background:new 0 0 149.35 151.88;" xml:space="preserve">
<style type="text/css">
	.st0{fill:#009E9C;stroke:#004544;stroke-width:5;stroke-miterlimit:10;}
	.st1{fill:#8C2200;stroke:#541D02;stroke-width:5;stroke-miterlimit:10;}
	.st2{fill:#2CF0D6;}
	.st3{fill:#92FFEA;}
	.st4{fill:#9E3500;}
	.st5{fill:#FF6417;}
	.st6{fill:none;stroke:#004544;stroke-width:5;stroke-miterlimit:10;}
	.st7{fill:none;stroke:#541D02;stroke-width:5;stroke-miterlimit:10;}
</style>
<path class="st0" d="M96.2,61.88l-6.83-2.96c1.05-4.78,1.21-9.78,0.4-14.76l5.82-2.3c2.08-0.82,3.1-3.18,2.28-5.26l-3.17-8
	c-0.82-2.08-3.18-3.1-5.26-2.28l-5.74,2.27c-2.76-4.19-6.25-7.73-10.22-10.53l2.81-6.49c0.89-2.05-0.06-4.44-2.11-5.33l-7.89-3.42
	c-2.05-0.89-4.44,0.06-5.33,2.11l-2.85,6.58c-4.66-0.9-9.52-0.99-14.36-0.13l-2.38-6.01c-0.82-2.08-3.18-3.1-5.26-2.28l-8,3.17
	c-2.08,0.82-3.1,3.18-2.28,5.26l2.44,6.16c-4.13,2.81-7.62,6.31-10.35,10.3l-5.84-2.53c-2.05-0.89-4.44,0.06-5.33,2.11l-3.42,7.89
	c-0.89,2.05,0.06,4.44,2.11,5.33l6.13,2.65c-0.8,4.41-0.85,8.98-0.09,13.54l-6.43,2.54c-2.08,0.82-3.1,3.18-2.28,5.26l3.17,8
	c0.82,2.08,3.18,3.1,5.26,2.28l6.43-2.55c2.65,3.97,5.96,7.36,9.71,10.07l-2.8,6.47c-0.89,2.05,0.06,4.44,2.11,5.33l7.89,3.42
	c2.05,0.89,4.44-0.06,5.33-2.11l2.76-6.37c4.58,0.94,9.36,1.08,14.12,0.33l2.45,6.19c0.82,2.08,3.18,3.1,5.26,2.28l8-3.17
	c2.08-0.82,3.1-3.18,2.28-5.26l-2.39-6.04c3.97-2.59,7.36-5.84,10.09-9.53l7.11,3.08c2.05,0.89,4.44-0.06,5.33-2.11l3.42-7.89
	C99.2,65.15,98.25,62.76,96.2,61.88z M31.51,58.24c-4.08-10.32,0.97-22,11.29-26.08c10.32-4.08,22,0.97,26.08,11.29
	c4.08,10.32-0.97,22-11.29,26.08C47.27,73.61,35.6,68.56,31.51,58.24z"/>
<path class="st1" d="M146.7,101.81l-1.42-5.09c-0.6-2.16-2.83-3.42-4.99-2.82l-6.12,1.7c-3.11-5.78-8.07-10.43-14.1-13.14l1.33-6.9
	c0.42-2.2-1.02-4.32-3.21-4.74l-5.18-1c-2.2-0.42-4.32,1.02-4.74,3.21l-1.32,6.84c-5.36,0.16-10.37,1.74-14.67,4.38l-4.21-4.41
	c-1.55-1.62-4.11-1.68-5.73-0.13l-3.82,3.65c-1.62,1.55-1.68,4.11-0.13,5.73l4.32,4.52c-2.87,4.46-4.58,9.75-4.71,15.44
	c-0.02,0.69,0,1.37,0.03,2.04l-6.19,1.72c-2.16,0.6-3.42,2.83-2.82,4.99l1.42,5.09c0.6,2.16,2.83,3.42,4.99,2.82L81.6,124
	c3.16,5.81,8.2,10.47,14.32,13.13l-1.24,6.43c-0.42,2.2,1.02,4.32,3.21,4.74l5.18,1c2.2,0.42,4.32-1.02,4.74-3.21l1.25-6.5
	c4.98-0.2,9.66-1.62,13.73-3.98l5.18,5.42c1.55,1.62,4.11,1.68,5.73,0.13l3.82-3.65c1.62-1.55,1.68-4.11,0.13-5.73l-5.07-5.3
	c3.11-4.59,4.99-10.1,5.13-16.05c0.01-0.64,0-1.27-0.02-1.91l6.18-1.72C146.04,106.2,147.3,103.97,146.7,101.81z M107.36,125.81
	c-8.36-0.19-14.98-7.12-14.79-15.48s7.12-14.98,15.48-14.79s14.98,7.12,14.79,15.48C122.65,119.38,115.72,126,107.36,125.81z"/>
<path class="st2" d="M31.43,46.9"/>
<path class="st2" d="M37.51,35.25l-4.21,4.33c-0.65,0.95-5.4,8.19-2.72,17.19c0.35,1.18,3,9.58,11.74,12.94
	c7.38,2.83,13.87,0.06,15.15-0.51l6.31-3.46c4.25,4.93,8.49,9.86,12.74,14.78c-1.23,1.45-2.45,2.9-3.68,4.35l2,7.55l-13.43,5.99
	l-6.25-8.54l-9.94,0.94l-6.81,5.79l-13.64-3.9l2.24-9.2L16.59,72.94l-9.22,1.14L1.98,62.21l10.72-6.81l-1.36-13.28l-7.15-2.19
	l4.43-15.51l10.04,2.89l6.07-6.91C28.99,25.36,33.25,30.3,37.51,35.25"/>
<polygon class="st3" points="6.52,28.12 65.82,97.59 51.64,90.9 47.81,90.39 3.04,37.53 "/>
<polygon class="st3" points="11.17,50.84 43.98,89.49 42.45,91.92 11.17,55.79 "/>
<path class="st4" d="M127.86,140.9c-2.23-1.47-4.45-2.94-6.68-4.41l-10.42,2.98l-4.6,9.91l-10.9-2.87l-1.1-9.15l-14.19-12.9
	l-7.51,1.35l-2.15-12.17l7.77-5.38l2.55-14.55l0.44-1.79c4.24,4.43,8.47,8.87,12.71,13.31l0.26,0.27l-2,8.04
	c1.34,2.79,4.22,8.02,8.68,10.89c1.02,0.65,1.8,0.98,2.43,1.19c3.77,1.25,7.31-0.08,8.89-0.81"/>
<polygon class="st5" points="79.6,105.58 109.47,140.04 105.64,146.17 76.52,110.04 "/>
<polygon class="st5" points="75.13,112.73 101.05,146.17 96.63,147.83 95.05,139.92 85.98,131.11 80.45,124.91 73.22,113.49 "/>
<path class="st6" d="M96.2,61.88l-6.83-2.96c1.05-4.78,1.21-9.78,0.4-14.76l5.82-2.3c2.08-0.82,3.1-3.18,2.28-5.26l-3.17-8
	c-0.82-2.08-3.18-3.1-5.26-2.28l-5.74,2.27c-2.76-4.19-6.25-7.73-10.22-10.53l2.81-6.49c0.89-2.05-0.06-4.44-2.11-5.33l-7.89-3.42
	c-2.05-0.89-4.44,0.06-5.33,2.11l-2.85,6.58c-4.66-0.9-9.52-0.99-14.36-0.13l-2.38-6.01c-0.82-2.08-3.18-3.1-5.26-2.28l-8,3.17
	c-2.08,0.82-3.1,3.18-2.28,5.26l2.44,6.16c-4.13,2.81-7.62,6.31-10.35,10.3l-5.84-2.53c-2.05-0.89-4.44,0.06-5.33,2.11l-3.42,7.89
	c-0.89,2.05,0.06,4.44,2.11,5.33l6.13,2.65c-0.8,4.41-0.85,8.98-0.09,13.54l-6.43,2.54c-2.08,0.82-3.1,3.18-2.28,5.26l3.17,8
	c0.82,2.08,3.18,3.1,5.26,2.28l6.43-2.55c2.65,3.97,5.96,7.36,9.71,10.07l-2.8,6.47c-0.89,2.05,0.06,4.44,2.11,5.33l7.89,3.42
	c2.05,0.89,4.44-0.06,5.33-2.11l2.76-6.37c4.58,0.94,9.36,1.08,14.12,0.33l2.45,6.19c0.82,2.08,3.18,3.1,5.26,2.28l8-3.17
	c2.08-0.82,3.1-3.18,2.28-5.26l-2.39-6.04c3.97-2.59,7.36-5.84,10.09-9.53l7.11,3.08c2.05,0.89,4.44-0.06,5.33-2.11l3.42-7.89
	C99.2,65.15,98.25,62.76,96.2,61.88z M31.51,58.24c-4.08-10.32,0.97-22,11.29-26.08c10.32-4.08,22,0.97,26.08,11.29
	c4.08,10.32-0.97,22-11.29,26.08C47.27,73.61,35.6,68.56,31.51,58.24z"/>
<path class="st7" d="M146.7,101.81l-1.42-5.09c-0.6-2.16-2.83-3.42-4.99-2.82l-6.12,1.7c-3.11-5.78-8.07-10.43-14.1-13.14l1.33-6.9
	c0.42-2.2-1.02-4.32-3.21-4.74l-5.18-1c-2.2-0.42-4.32,1.02-4.74,3.21l-1.32,6.84c-5.36,0.16-10.37,1.74-14.67,4.38l-4.21-4.41
	c-1.55-1.62-4.11-1.68-5.73-0.13l-3.82,3.65c-1.62,1.55-1.68,4.11-0.13,5.73l4.32,4.52c-2.87,4.46-4.58,9.75-4.71,15.44
	c-0.02,0.69,0,1.37,0.03,2.04l-6.19,1.72c-2.16,0.6-3.42,2.83-2.82,4.99l1.42,5.09c0.6,2.16,2.83,3.42,4.99,2.82L81.6,124
	c3.16,5.81,8.2,10.47,14.32,13.13l-1.24,6.43c-0.42,2.2,1.02,4.32,3.21,4.74l5.18,1c2.2,0.42,4.32-1.02,4.74-3.21l1.25-6.5
	c4.98-0.2,9.66-1.62,13.73-3.98l5.18,5.42c1.55,1.62,4.11,1.68,5.73,0.13l3.82-3.65c1.62-1.55,1.68-4.11,0.13-5.73l-5.07-5.3
	c3.11-4.59,4.99-10.1,5.13-16.05c0.01-0.64,0-1.27-0.02-1.91l6.18-1.72C146.04,106.2,147.3,103.97,146.7,101.81z M107.36,125.81
	c-8.36-0.19-14.98-7.12-14.79-15.48s7.12-14.98,15.48-14.79s14.98,7.12,14.79,15.48C122.65,119.38,115.72,126,107.36,125.81z"/>
</svg>
