<?xml version="1.0" encoding="utf-8"?>
<!-- Generator: Adobe Illustrator 27.4.1, SVG Export Plug-In . SVG Version: 6.00 Build 0)  -->
<svg version="1.1" id="Layer_1" xmlns="http://www.w3.org/2000/svg" xmlns:xlink="http://www.w3.org/1999/xlink" x="0px" y="0px"
	 viewBox="0 0 126.77 133.1" style="enable-background:new 0 0 126.77 133.1;" xml:space="preserve">
<style type="text/css">
	.st0{fill:#009D9C;}
	.st1{fill:#A4D9D5;stroke:#1D4647;stroke-width:3;stroke-miterlimit:10;}
	.st2{fill:none;stroke:#1D4647;stroke-width:5;stroke-miterlimit:10;}
	.st3{fill:#A4D9D5;}
	.st4{fill:none;stroke:#541D02;stroke-width:3;stroke-miterlimit:10;}
	.st5{fill:#F16522;stroke:#53200D;stroke-width:3;stroke-miterlimit:10;}
	.st6{fill:#541D02;stroke:#53200D;stroke-width:3;stroke-miterlimit:10;}
	.st7{fill:#9E3500;stroke:#541D02;stroke-width:3;stroke-miterlimit:10;}
</style>
<path class="st0" d="M85.51,2.5H6.92C4.48,2.5,2.5,4.48,2.5,6.92v119.26c0,2.44,1.98,4.42,4.42,4.42h93.78
	c2.44,0,4.42-1.98,4.42-4.42V22.11L85.51,2.5z"/>
<path class="st1" d="M85.51,22.11h19.36c0.09,0,0.13-0.11,0.07-0.17L85.68,2.67c-0.06-0.06-0.17-0.02-0.17,0.07V22.11z"/>
<path class="st2" d="M84.84,2.5H6.92C4.48,2.5,2.5,4.48,2.5,6.92v119.26c0,2.44,1.98,4.42,4.42,4.42h93.78
	c2.44,0,4.42-1.98,4.42-4.42V22.78c0-0.43-0.17-0.84-0.48-1.15L85.98,2.98C85.68,2.67,85.27,2.5,84.84,2.5z"/>
<path class="st3" d="M120,108.18h-81.3c-2.91,0-5.27-2.36-5.27-5.27V44.15c0-2.91,2.36-5.27,5.27-5.27H120
	c2.91,0,5.27,2.36,5.27,5.27v58.76C125.27,105.82,122.91,108.18,120,108.18z"/>
<path class="st4" d="M120,108.18h-81.3c-2.91,0-5.27-2.36-5.27-5.27V44.15c0-2.91,2.36-5.27,5.27-5.27H120
	c2.91,0,5.27,2.36,5.27,5.27v58.76C125.27,105.82,122.91,108.18,120,108.18z"/>
<path class="st5" d="M38.08,108.18h12.46V38.89H38.08c-2.56,0-4.64,2.08-4.64,4.64v60C33.44,106.1,35.52,108.18,38.08,108.18z"/>
<path class="st5" d="M108.16,108.18h12.46c2.56,0,4.64-2.08,4.64-4.64v-60c0-2.56-2.08-4.64-4.64-4.64h-12.46V108.18z"/>
<path class="st6" d="M33.44,46.51h17.11v-7.63h-13c-2.27,0-4.1,1.84-4.1,4.1V46.51z"/>
<rect x="33.44" y="54.23" class="st6" width="17.11" height="7.63"/>
<rect x="33.44" y="69.58" class="st6" width="17.11" height="7.63"/>
<rect x="33.44" y="84.92" class="st6" width="17.11" height="7.63"/>
<path class="st6" d="M37.54,108.18h13v-7.63H33.44v3.52C33.44,106.34,35.28,108.18,37.54,108.18z"/>
<path class="st6" d="M108.16,46.51h17.11v-3.52c0-2.27-1.84-4.1-4.1-4.1h-13V46.51z"/>
<rect x="108.16" y="54.23" class="st6" width="17.11" height="7.63"/>
<rect x="108.16" y="69.58" class="st6" width="17.11" height="7.63"/>
<rect x="108.16" y="84.92" class="st6" width="17.11" height="7.63"/>
<path class="st6" d="M108.16,108.18h13c2.27,0,4.1-1.84,4.1-4.1v-3.52h-17.11V108.18z"/>
<polygon class="st7" points="90.98,73.39 81.63,78.79 72.29,84.18 72.29,73.39 72.29,62.6 81.63,67.99 "/>
</svg>
