<?xml version="1.0" encoding="utf-8"?>
<!-- Generator: Adobe Illustrator 27.4.1, SVG Export Plug-In . SVG Version: 6.00 Build 0)  -->
<svg version="1.1" id="Layer_1" xmlns="http://www.w3.org/2000/svg" xmlns:xlink="http://www.w3.org/1999/xlink" x="0px" y="0px"
	 viewBox="0 0 115 115" style="enable-background:new 0 0 115 115;" xml:space="preserve">
<style type="text/css">
	.st0{fill:#009E9C;stroke:#004544;stroke-width:5;stroke-miterlimit:10;}
	.st1{fill:#2CF0D6;stroke:#004544;stroke-width:3;stroke-miterlimit:10;}
	.st2{fill:#004544;}
</style>
<path class="st0" d="M76.9,112.5H7.72c-2.89,0-5.22-2.34-5.22-5.22V38.1c0-19.66,15.94-35.6,35.6-35.6h69.18
	c2.89,0,5.22,2.34,5.22,5.22V76.9C112.5,96.56,96.56,112.5,76.9,112.5z"/>
<rect x="20.09" y="19.12" class="st1" width="73.91" height="73.91"/>
<g>
	<g>
		<path class="st2" d="M85.23,38.58c-4.2,0.6-4.8,1.08-6.42,6c-1.98,6-6.78,21.24-10.08,31.98h-2.04
			c-3.12-9.36-7.14-20.94-10.26-29.82c-3.48,10.32-7.02,20.58-10.14,29.82h-1.98c-3-10.32-6.42-21.54-9.66-32.04
			c-1.56-4.86-2.22-5.52-6.12-5.94V36.9h14.82v1.68c-4.44,0.48-4.56,1.14-3.72,4.14c2.34,8.1,4.74,16.08,7.2,24.54
			c3.3-9.54,6.9-19.98,9.96-29.82h1.92c3.36,10.2,6.72,19.68,10.2,29.88c2.52-7.98,5.94-18.66,7.26-23.88
			c0.9-3.48,0.42-4.26-4.68-4.86V36.9h13.74V38.58z"/>
	</g>
</g>
</svg>
