<?xml version="1.0" encoding="utf-8"?>
<!-- Generator: Adobe Illustrator 27.4.0, SVG Export Plug-In . SVG Version: 6.00 Build 0)  -->
<svg version="1.1" id="Layer_10" xmlns="http://www.w3.org/2000/svg" xmlns:xlink="http://www.w3.org/1999/xlink" x="0px" y="0px"
	 viewBox="0 0 112.52 102" style="enable-background:new 0 0 112.52 102;" xml:space="preserve">
<style type="text/css">
	.st0{fill:#8C2200;}
	.st1{fill:#9E3500;}
	.st2{fill:#FF6417;}
	.st3{fill:none;stroke:#541D02;stroke-width:3;stroke-linecap:round;stroke-linejoin:round;stroke-miterlimit:10;}
	.st4{fill:#2CF0D6;}
	.st5{fill:#009E9C;}
	.st6{fill:#E5FFFB;}
	.st7{fill:#92FFEA;}
	.st8{fill:none;stroke:#541D02;stroke-width:2;stroke-linecap:round;stroke-linejoin:round;stroke-miterlimit:10;}
</style>
<path class="st0" d="M3,12.86c4.77-7.8,17.85-11.13,20.01-8.52c0.6,0.72,0.25,1.76,0,2.64c-3.03,10.76,3.26,18.96,0,20.85
	c-2.54,1.47-5.46-4.03-15.74-6.08c-2.11-0.42-4.41-0.68-5.45-2.32C0.38,17.14,2.42,13.8,3,12.86z"/>
<path class="st0" d="M2.45,48.49c4.77-7.8,17.85-11.13,20.01-8.52c0.6,0.72,0.25,1.76,0,2.64c-3.03,10.76,3.26,18.96,0,20.85
	c-2.54,1.47-5.46-4.03-15.74-6.08c-2.11-0.42-4.41-0.68-5.45-2.32C-0.17,52.77,1.87,49.43,2.45,48.49z"/>
<path class="st0" d="M3.18,83.33c4.77-7.8,17.85-11.13,20.01-8.52c0.6,0.72,0.25,1.76,0,2.64c-3.03,10.76,3.26,18.96,0,20.85
	c-2.54,1.47-5.46-4.03-15.74-6.08C5.34,91.8,3.04,91.54,2,89.9C0.56,87.62,2.61,84.27,3.18,83.33z"/>
<g>
	<path class="st1" d="M20.99,39.34"/>
	<g>
		<path class="st0" d="M20.99,40.84c1.93,0,1.93-3,0-3S19.05,40.84,20.99,40.84L20.99,40.84z"/>
	</g>
</g>
<g>
	<path class="st1" d="M20.99,75.09"/>
	<g>
		<path class="st0" d="M20.99,76.59c1.93,0,1.93-3,0-3S19.05,76.59,20.99,76.59L20.99,76.59z"/>
	</g>
</g>
<path class="st1" d="M20.99,3.34c-1.19,0.95-3.56,3.11-4.95,6.72c-0.3,0.79-1.65,4.47-0.7,9.04c1.13,5.42,4.65,8.03,4.01,8.71
	c-0.82,0.88-5.21-5.02-13.08-7.05c-1.25-0.32-3.24-0.72-4.32-2.37C1,16.93,0.94,14.76,1.86,13.28c1.08-1.72,3.21-2.07,4.69-2.43
	c2.77-0.68,6.57-2.21,10.93-6.02"/>
<path class="st2" d="M13.92,10.2c0.3,0.39-1.21,1.39-1.79,3.66c-0.44,1.7,0.09,2.4-0.51,2.89c-0.83,0.69-2.55-0.07-4.68-1.02
	c-1.1-0.49-1.66-0.74-1.7-1.11c-0.04-0.33,0.19-0.89,5.19-3.23C13.06,10.16,13.74,9.96,13.92,10.2z"/>
<path class="st1" d="M20.99,38.48c-1.19,0.95-3.56,3.11-4.95,6.72c-0.3,0.79-1.65,4.47-0.7,9.04c1.13,5.42,4.65,8.03,4.01,8.71
	c-0.82,0.88-5.21-5.02-13.08-7.05c-1.25-0.32-3.24-0.72-4.32-2.37C1,52.07,0.94,49.9,1.86,48.42c1.08-1.72,3.21-2.07,4.69-2.43
	c2.77-0.68,6.57-2.21,10.93-6.02"/>
<path class="st2" d="M13.92,45.34c0.3,0.39-1.21,1.39-1.79,3.66c-0.44,1.7,0.09,2.4-0.51,2.89c-0.83,0.69-2.55-0.07-4.68-1.02
	c-1.1-0.49-1.66-0.74-1.7-1.11c-0.04-0.33,0.19-0.89,5.19-3.23C13.06,45.3,13.74,45.1,13.92,45.34z"/>
<path class="st1" d="M20.99,73.75c-1.19,0.95-3.56,3.11-4.95,6.72c-0.3,0.79-1.65,4.47-0.7,9.04c1.13,5.42,4.65,8.03,4.01,8.71
	c-0.82,0.88-5.21-5.02-13.08-7.05c-1.25-0.32-3.24-0.72-4.32-2.37C1,87.34,0.94,85.17,1.86,83.69c1.08-1.72,3.21-2.07,4.69-2.43
	c2.77-0.68,6.57-2.21,10.93-6.02"/>
<path class="st2" d="M13.92,80.61c0.3,0.39-1.21,1.39-1.79,3.66c-0.44,1.7,0.09,2.4-0.51,2.89c-0.83,0.69-2.55-0.07-4.68-1.02
	c-1.1-0.49-1.66-0.74-1.7-1.11c-0.04-0.33,0.19-0.89,5.19-3.23C13.06,80.57,13.74,80.38,13.92,80.61z"/>
<polyline class="st3" points="1.5,6.93 1.5,24.61 2.07,19.19 22.69,30.02 22.69,1.51 2.07,12.35 "/>
<path class="st3" d="M27.76,10.82c0.22,0.18,2.6,2.26,2.28,5.45c-0.25,2.41-1.88,3.84-2.25,4.14"/>
<path class="st3" d="M31.96,6.31c0.42,0.35,5.05,4.38,4.41,10.57c-0.48,4.68-3.65,7.44-4.35,8.03"/>
<polyline class="st3" points="1.5,42.08 1.5,59.75 2.07,54.33 22.69,65.17 22.69,36.66 2.07,47.5 "/>
<path class="st3" d="M27.76,45.96c0.22,0.18,2.6,2.26,2.28,5.45c-0.25,2.41-1.88,3.84-2.25,4.14"/>
<polyline class="st3" points="1.5,77.41 1.5,95.08 2.07,89.66 22.69,100.5 22.69,71.99 2.07,82.82 "/>
<path class="st0" d="M53.44,2.07c-1.3,0.13-1,1.72-3.49,3.68c-2.13,1.68-4.75,2.41-6.19,2.81c-2.18,0.61-2.35,0.32-2.78,0.74
	c-2.55,2.54,4.18,12.17,7.06,16.3c1.24,1.78,2.25,3.05,3.96,3.51c2.59,0.7,5.68-0.78,7.4-2.87c2.44-2.97,0.31-4.96,3.06-9.38
	c0.6-0.97,1.6-2.31,2.13-4.48c0.3-1.23,0.58-2.44-0.02-3.37c-0.83-1.28-2.46-0.65-4.66-1.47C55.94,6.06,55.54,1.86,53.44,2.07z"/>
<path class="st1" d="M54.03,2.68c-0.72,1.53-1.64,3.81-2.24,6.68c-0.37,1.76-1.35,7.15,0.22,13.83c0.65,2.74,1.57,5.03,2.46,6.85
	h-2.69l-5.94-5.69L41.82,9.28l0.24-1.08l7.31-2.32L54.03,2.68z"/>
<path class="st2" d="M45.16,11.37c0.6-0.76,2.95,0.43,4.34-0.83c0.19-0.17,0.29-0.32,0.38-0.29c0.42,0.14-0.87,3.12-0.64,6.96
	c0.13,2.05,0.61,3.09,0.35,3.19c-0.23,0.09-0.62-0.71-3.61-6.32C45.29,12.76,44.79,11.83,45.16,11.37z"/>
<path class="st3" d="M53.11,30.02C62.61,27.18,65.4,8.43,65.4,8.43c-1.83-0.04-6.96-0.44-10.58-4.5c-0.71-0.8-1.27-1.63-1.71-2.43
	c-0.44,0.8-0.99,1.63-1.71,2.43c-3.63,4.06-8.75,4.45-10.58,4.5C40.83,8.44,43.61,27.19,53.11,30.02z"/>
<g>
	<path class="st1" d="M52.12,17.81"/>
	<g>
		<path class="st1" d="M52.12,19.31c1.93,0,1.93-3,0-3S50.19,19.31,52.12,19.31L52.12,19.31z"/>
	</g>
</g>
<g>
	<g>
		<path class="st4" d="M51.93,20.84c1.93,0,1.93-3,0-3S50,20.84,51.93,20.84L51.93,20.84z"/>
	</g>
</g>
<g>
	<path class="st1" d="M51.87,19.28"/>
	<g>
		<path class="st1" d="M51.87,20.78c1.93,0,1.93-3,0-3S49.93,20.78,51.87,20.78L51.87,20.78z"/>
	</g>
</g>
<g>
	<g>
		<path class="st4" d="M52.25,16.06c1.93,0,1.93-3,0-3C50.32,13.06,50.32,16.06,52.25,16.06L52.25,16.06z"/>
	</g>
</g>
<g>
	<path class="st1" d="M52.19,12.64"/>
	<g>
		<path class="st1" d="M52.19,14.14c1.93,0,1.93-3,0-3C50.25,11.14,50.25,14.14,52.19,14.14L52.19,14.14z"/>
	</g>
</g>
<g>
	<path class="st1" d="M52.25,11.24"/>
	<g>
		<path class="st1" d="M52.25,12.74c1.93,0,1.93-3,0-3C50.32,9.74,50.32,12.74,52.25,12.74L52.25,12.74z"/>
	</g>
</g>
<line class="st3" x1="53.11" y1="1.51" x2="53.11" y2="30.02"/>
<line class="st3" x1="42.39" y1="15.12" x2="63.01" y2="15.12"/>
<rect x="79.9" y="2.31" class="st4" width="31.12" height="18.81"/>
<rect x="79.03" y="3" class="st0" width="30.74" height="18.17"/>
<path class="st1" d="M86.8,3c0.14,1.7-0.07,7.33,4.41,11.06c3.57,2.97,7.8,3.31,11.47,3.61c3.23,0.26,5.94-0.06,7.82-0.4l-0.13,4.01
	l-5.75,0.69l-11.67-0.85c0,0-8.12,0.56-8.26,0.56c-0.13,0-5.52-0.56-5.52-0.56l-0.14-2.22l1.88-1.59l0.13-3.15l2.65-0.23l1.07-10.8
	L86.8,3z"/>
<polyline class="st3" points="111.02,1.82 79.6,1.82 79.6,21.88 111.02,21.88 111.02,2.06 "/>
<line class="st3" x1="95.31" y1="22.48" x2="95.31" y2="30.04"/>
<line class="st3" x1="89.01" y1="30.04" x2="101.6" y2="30.04"/>
<rect x="76.38" y="3.87" class="st0" width="8.11" height="10.48"/>
<g>
	<g>
		<path class="st5" d="M78.11,15.15c0,0.72,0,1.44,0,2.16c0,0.38,0.17,0.79,0.44,1.06c0.26,0.26,0.69,0.46,1.06,0.44
			c0.39-0.02,0.79-0.14,1.06-0.44c0.27-0.29,0.44-0.65,0.44-1.06c0-0.72,0-1.44,0-2.16c0-0.38-0.17-0.79-0.44-1.06
			c-0.26-0.26-0.69-0.46-1.06-0.44c-0.39,0.02-0.79,0.14-1.06,0.44C78.28,14.38,78.11,14.74,78.11,15.15L78.11,15.15z"/>
	</g>
</g>
<g>
	<g>
		<path class="st5" d="M81.1,20.22c1.93,0,1.93-3,0-3S79.16,20.22,81.1,20.22L81.1,20.22z"/>
	</g>
</g>
<g>
	<g>
		<path class="st5" d="M81.04,17.23c-0.46,0-0.91,0-1.37,0c-0.21-0.01-0.4,0.04-0.58,0.13c-0.19,0.06-0.35,0.16-0.48,0.31
			c-0.15,0.14-0.25,0.3-0.31,0.48c-0.09,0.18-0.14,0.37-0.13,0.58c0.02,0.13,0.04,0.27,0.05,0.4c0.07,0.25,0.2,0.47,0.39,0.66
			c0.1,0.08,0.2,0.16,0.3,0.23c0.23,0.14,0.49,0.2,0.76,0.2c0.46,0,0.91,0,1.37,0c0.21,0.01,0.4-0.04,0.58-0.13
			c0.19-0.06,0.35-0.16,0.48-0.31c0.15-0.14,0.25-0.3,0.31-0.48c0.09-0.18,0.14-0.37,0.13-0.58c-0.02-0.13-0.04-0.27-0.05-0.4
			c-0.07-0.25-0.2-0.47-0.39-0.66c-0.1-0.08-0.2-0.16-0.3-0.23C81.56,17.3,81.31,17.23,81.04,17.23L81.04,17.23z"/>
	</g>
</g>
<g>
	<g>
		<path class="st5" d="M78.1,15.45c0,0.8,0,1.6,0,2.41c0,0.38,0.17,0.79,0.44,1.06c0.26,0.26,0.69,0.46,1.06,0.44
			c0.39-0.02,0.79-0.14,1.06-0.44c0.27-0.29,0.44-0.65,0.44-1.06c0-0.8,0-1.6,0-2.41c0-0.38-0.17-0.79-0.44-1.06
			c-0.26-0.26-0.69-0.46-1.06-0.44c-0.39,0.02-0.79,0.14-1.06,0.44C78.27,14.68,78.1,15.04,78.1,15.45L78.1,15.45z"/>
	</g>
</g>
<g>
	<g>
		<path class="st5" d="M79.03,20.21c0.9,0,1.8,0,2.71,0c0.38,0,0.79-0.17,1.06-0.44c0.26-0.26,0.46-0.69,0.44-1.06
			c-0.02-0.39-0.14-0.79-0.44-1.06c-0.29-0.27-0.65-0.44-1.06-0.44c-0.75,0-1.49,0-2.24,0c-0.38,0-0.79,0.17-1.06,0.44
			c-0.26,0.26-0.46,0.69-0.44,1.06c0.02,0.39,0.14,0.79,0.44,1.06c0.29,0.27,0.65,0.44,1.06,0.44c0.75,0,1.49,0,2.24,0
			c0.38,0,0.79-0.17,1.06-0.44c0.26-0.26,0.46-0.69,0.44-1.06c-0.02-0.39-0.14-0.79-0.44-1.06c-0.29-0.27-0.65-0.44-1.06-0.44
			c-0.9,0-1.8,0-2.71,0c-0.38,0-0.79,0.17-1.06,0.44c-0.26,0.26-0.46,0.69-0.44,1.06c0.02,0.39,0.14,0.79,0.44,1.06
			C78.27,20.04,78.63,20.21,79.03,20.21L79.03,20.21z"/>
	</g>
</g>
<g>
	<g>
		<path class="st5" d="M81.18,19.28c-0.81,0-1.61,0-2.42,0c-0.26,0-0.51,0.23-0.5,0.5s0.22,0.5,0.5,0.5c0.81,0,1.61,0,2.42,0
			c0.26,0,0.51-0.23,0.5-0.5S81.46,19.28,81.18,19.28L81.18,19.28z"/>
	</g>
</g>
<g>
	<g>
		<path class="st6" d="M78.69,18c2.57,0,2.58-4,0-4C76.12,14,76.11,18,78.69,18L78.69,18z"/>
	</g>
</g>
<g>
	<path class="st1" d="M83.27,18.73c-1.34,0-2.68,0-4.02,0"/>
	<g>
		<path class="st1" d="M83.27,17.23c-1.34,0-2.68,0-4.02,0c-0.78,0-1.54,0.69-1.5,1.5s0.66,1.5,1.5,1.5c1.34,0,2.68,0,4.02,0
			c0.78,0,1.54-0.69,1.5-1.5C84.73,17.91,84.11,17.23,83.27,17.23L83.27,17.23z"/>
	</g>
</g>
<rect x="76.96" y="4.09" class="st1" width="3.48" height="9.67"/>
<path class="st7" d="M92.98,9.44"/>
<path class="st7" d="M87.13,8.97"/>
<path class="st2" d="M86.83,12.1c0.34,1.48,1.09,2.49,1.56,3.12c1.16,1.56,2.69,2.26,3.81,2.76c3.32,1.49,6.14,1.25,6.13,1.4
	c-0.01,0.19-4.42-0.4-10.34-0.04c-2.78,0.16-4.27,0.44-4.73-0.36c-0.62-1.07,1.51-2.56,2.56-6.66c0.13-0.52,0.39-1.62,0.62-1.6
	C86.63,10.73,86.67,11.4,86.83,12.1z"/>
<path class="st2" d="M78.93,6.99c-0.01,0.1-0.05,0.77,0.22,1.39c0.31,0.71,0.84,0.93,0.74,1.14c-0.08,0.17-0.47,0.15-0.79,0.13
	c-0.29-0.01-0.45-0.02-0.57-0.13c-0.17-0.16-0.24-0.37-0.22-0.89c0.03-0.99,0-1.09,0.15-1.54c0.15-0.44,0.45-0.8,0.53-0.77
	C79.06,6.35,78.96,6.6,78.93,6.99z"/>
<rect x="76.38" y="3.56" class="st3" width="8.11" height="10.34"/>
<path class="st3" d="M80.27,13.9c0.17,0.1,0.83,0.5,1.09,1.34c0.06,0.18,0.2,0.67,0.03,1.24c-0.18,0.64-0.63,0.97-0.82,1.12
	c-0.5,0.38-0.71,0.16-1.34,0.48c-0.24,0.12-0.88,0.46-1.25,1.21c-0.08,0.17-0.43,0.88-0.18,1.69c0.06,0.19,0.21,0.69,0.7,1.02
	c0.5,0.34,0.9,0.03,1.46,0.19c0.92,0.27,1.28,1.37,1.34,1.53c0.1,0.27,0.22,0.62,0.12,1.05c-0.12,0.53-0.51,0.83-0.64,0.92
	c-0.34,0.26-0.48,0.12-0.85,0.35c-0.44,0.28-0.66,0.71-0.79,0.99c-0.2,0.42-0.26,0.76-0.33,1.31c-0.06,0.42-0.11,0.99-0.09,1.69"/>
<line class="st8" x1="80.43" y1="3.87" x2="80.43" y2="7.79"/>
<g>
	<g>
		<path class="st1" d="M50.98,21.09c0.64,0,0.64-1,0-1S50.34,21.09,50.98,21.09L50.98,21.09z"/>
	</g>
</g>
<g>
	<g>
		<path class="st1" d="M51.06,21.2c0.64,0,0.64-1,0-1C50.41,20.2,50.41,21.2,51.06,21.2L51.06,21.2z"/>
	</g>
</g>
<g>
	<g>
		<path class="st1" d="M51.1,21.26c0.64,0,0.64-1,0-1S50.46,21.26,51.1,21.26L51.1,21.26z"/>
	</g>
</g>
<g>
	<g>
		<path class="st1" d="M51.11,21.28c0.64,0,0.64-1,0-1S50.47,21.28,51.11,21.28L51.11,21.28z"/>
	</g>
</g>
<g>
	<g>
		<path class="st1" d="M51.11,21.28c0.64,0,0.64-1,0-1S50.47,21.28,51.11,21.28L51.11,21.28z"/>
	</g>
</g>
<g>
	<g>
		<path class="st1" d="M51.11,21.29c0.64,0,0.64-1,0-1S50.47,21.29,51.11,21.29L51.11,21.29z"/>
	</g>
</g>
<g>
	<g>
		<path class="st1" d="M50.61,20.39c0,0.83,0,1.65,0,2.48c0,0.26,0.23,0.51,0.5,0.5s0.5-0.22,0.5-0.5c0-0.83,0-1.65,0-2.48
			c0-0.26-0.23-0.51-0.5-0.5S50.61,20.11,50.61,20.39L50.61,20.39z"/>
	</g>
</g>
</svg>
