<?xml version="1.0" encoding="utf-8"?>
<!-- Generator: Adobe Illustrator 27.4.1, SVG Export Plug-In . SVG Version: 6.00 Build 0)  -->
<svg version="1.1" id="Layer_1" xmlns="http://www.w3.org/2000/svg" xmlns:xlink="http://www.w3.org/1999/xlink" x="0px" y="0px"
	 viewBox="0 0 86.97 128.9" style="enable-background:new 0 0 86.97 128.9;" xml:space="preserve">
<style type="text/css">
	.st0{fill:#424242;}
	.st1{fill:none;stroke:#424242;stroke-width:5;stroke-miterlimit:10;}
	.st2{fill:#808080;}
	.st3{fill:#C4C4C4;stroke:#424242;stroke-width:3;stroke-miterlimit:10;}
	.st4{fill:#616161;stroke:#3C3C3C;stroke-width:3;stroke-miterlimit:10;}
</style>
<path class="st0" d="M2.5,7.96l0,106.92c0,3.02,2.1,5.46,4.69,5.46l66.49,0c2.59,0,4.69-2.44,4.69-5.46l0-106.96
	c0-3-2.09-5.43-4.66-5.43l-66.52,0C4.6,2.5,2.5,4.94,2.5,7.96z"/>
<path class="st1" d="M2.5,7.96l0,106.92c0,3.02,2.1,5.46,4.69,5.46l66.49,0c2.59,0,4.69-2.44,4.69-5.46l0-106.96
	c0-3-2.09-5.43-4.66-5.43l-66.52,0C4.6,2.5,2.5,4.94,2.5,7.96z"/>
<path class="st2" d="M8.61,14.02l0,106.92c0,3.02,2.1,5.46,4.69,5.46l66.49,0c2.59,0,4.69-2.44,4.69-5.46l0-106.96
	c0-3-2.09-5.43-4.66-5.43l-66.52,0C10.7,8.56,8.61,11,8.61,14.02z"/>
<path class="st1" d="M8.61,14.02l0,106.92c0,3.02,2.1,5.46,4.69,5.46l66.49,0c2.59,0,4.69-2.44,4.69-5.46l0-106.96
	c0-3-2.09-5.43-4.66-5.43l-66.52,0C10.7,8.56,8.61,11,8.61,14.02z"/>
<path class="st1" d="M4.53,3.47l6.09,6.09L4.53,3.47z"/>
<path class="st1" d="M76.36,3.47l6.14,6.09L76.36,3.47z"/>
<path class="st1" d="M4.53,119.38l6.09,6.04L4.53,119.38z"/>
<path class="st3" d="M71.07,49.95H22.01c-0.36,0-0.64-0.29-0.64-0.64V20.72c0-0.36,0.29-0.64,0.64-0.64h49.06
	c0.36,0,0.64,0.29,0.64,0.64v28.58C71.71,49.66,71.42,49.95,71.07,49.95z"/>
<path class="st3" d="M32.61,71.07h-9.22c-1.12,0-2.02-0.9-2.02-2.02v-9.22c0-1.12,0.9-2.02,2.02-2.02h9.22
	c1.12,0,2.02,0.9,2.02,2.02v9.22C34.63,70.16,33.73,71.07,32.61,71.07z"/>
<path class="st3" d="M51.15,71.07h-9.22c-1.12,0-2.02-0.9-2.02-2.02v-9.22c0-1.12,0.9-2.02,2.02-2.02h9.22
	c1.12,0,2.02,0.9,2.02,2.02v9.22C53.17,70.16,52.27,71.07,51.15,71.07z"/>
<path class="st4" d="M69.69,71.07h-9.22c-1.12,0-2.02-0.9-2.02-2.02v-9.22c0-1.12,0.9-2.02,2.02-2.02h9.22
	c1.12,0,2.02,0.9,2.02,2.02v9.22C71.71,70.16,70.81,71.07,69.69,71.07z"/>
<path class="st3" d="M32.61,90.89h-9.22c-1.12,0-2.02-0.9-2.02-2.02v-9.22c0-1.12,0.9-2.02,2.02-2.02h9.22
	c1.12,0,2.02,0.9,2.02,2.02v9.22C34.63,89.99,33.73,90.89,32.61,90.89z"/>
<path class="st3" d="M51.15,90.89h-9.22c-1.12,0-2.02-0.9-2.02-2.02v-9.22c0-1.12,0.9-2.02,2.02-2.02h9.22
	c1.12,0,2.02,0.9,2.02,2.02v9.22C53.17,89.99,52.27,90.89,51.15,90.89z"/>
<path class="st3" d="M69.69,90.89h-9.22c-1.12,0-2.02-0.9-2.02-2.02v-9.22c0-1.12,0.9-2.02,2.02-2.02h9.22
	c1.12,0,2.02,0.9,2.02,2.02v9.22C71.71,89.99,70.81,90.89,69.69,90.89z"/>
<path class="st3" d="M32.61,110.72h-9.22c-1.12,0-2.02-0.9-2.02-2.02v-9.22c0-1.12,0.9-2.02,2.02-2.02h9.22
	c1.12,0,2.02,0.9,2.02,2.02v9.22C34.63,109.82,33.73,110.72,32.61,110.72z"/>
<path class="st3" d="M51.15,110.72h-9.22c-1.12,0-2.02-0.9-2.02-2.02v-9.22c0-1.12,0.9-2.02,2.02-2.02h9.22
	c1.12,0,2.02,0.9,2.02,2.02v9.22C53.17,109.82,52.27,110.72,51.15,110.72z"/>
<path class="st3" d="M69.69,110.72h-9.22c-1.12,0-2.02-0.9-2.02-2.02v-9.22c0-1.12,0.9-2.02,2.02-2.02h9.22
	c1.12,0,2.02,0.9,2.02,2.02v9.22C71.71,109.82,70.81,110.72,69.69,110.72z"/>
</svg>
