<?xml version="1.0" encoding="utf-8"?>
<!-- Generator: Adobe Illustrator 27.4.1, SVG Export Plug-In . SVG Version: 6.00 Build 0)  -->
<svg version="1.1" id="Layer_1" xmlns="http://www.w3.org/2000/svg" xmlns:xlink="http://www.w3.org/1999/xlink" x="0px" y="0px"
	 viewBox="0 0 163.54 166.4" style="enable-background:new 0 0 163.54 166.4;" xml:space="preserve">
<style type="text/css">
	.st0{fill:#808080;stroke:#424242;stroke-width:3;stroke-miterlimit:10;}
	.st1{fill:#999999;stroke:#3F3F3F;stroke-width:3;stroke-miterlimit:10;}
</style>
<path class="st0" d="M107.18,68.46l-7.7-3.33c1.18-5.39,1.36-11.03,0.45-16.65l6.56-2.6c2.35-0.93,3.5-3.58,2.57-5.93l-3.57-9.02
	c-0.93-2.35-3.58-3.5-5.93-2.57l-6.47,2.56c-3.12-4.73-7.05-8.72-11.53-11.87l3.17-7.32c1-2.32-0.06-5.01-2.38-6.01l-8.9-3.85
	c-2.32-1-5.01,0.06-6.01,2.38l-3.21,7.42c-5.26-1.02-10.74-1.11-16.19-0.15l-2.68-6.78c-0.93-2.35-3.58-3.5-5.93-2.57l-9.02,3.57
	c-2.35,0.93-3.5,3.58-2.57,5.93l2.75,6.95c-4.65,3.17-8.59,7.12-11.68,11.62l-6.59-2.85c-2.32-1-5.01,0.06-6.01,2.38l-3.85,8.9
	c-1,2.32,0.06,5.01,2.38,6.01l6.91,2.99c-0.9,4.97-0.96,10.13-0.1,15.27l-7.25,2.87c-2.35,0.93-3.5,3.58-2.57,5.93l3.57,9.02
	c0.93,2.35,3.58,3.5,5.93,2.57l7.25-2.87c2.99,4.48,6.72,8.3,10.95,11.36l-3.16,7.29c-1,2.32,0.06,5.01,2.38,6.01l8.9,3.85
	c2.32,1,5.01-0.06,6.01-2.38l3.11-7.19c5.17,1.07,10.55,1.22,15.93,0.37l2.76,6.98c0.93,2.35,3.58,3.5,5.93,2.57l9.02-3.57
	c2.35-0.93,3.5-3.58,2.57-5.93l-2.7-6.81c4.48-2.93,8.3-6.59,11.38-10.74l8.02,3.47c2.32,1,5.01-0.06,6.01-2.38l3.85-8.9
	C110.56,72.16,109.49,69.47,107.18,68.46z M34.22,64.36c-4.61-11.64,1.09-24.81,12.73-29.42c11.64-4.61,24.81,1.09,29.42,12.73
	c4.61,11.64-1.09,24.81-12.73,29.42C52,81.7,38.83,76,34.22,64.36z"/>
<path class="st1" d="M161.87,111.25l-1.6-5.74c-0.68-2.43-3.2-3.85-5.63-3.18l-6.9,1.92c-3.51-6.52-9.1-11.76-15.9-14.82l1.5-7.78
	c0.48-2.48-1.15-4.87-3.62-5.35l-5.85-1.13c-2.48-0.48-4.87,1.15-5.35,3.62l-1.48,7.71c-6.04,0.18-11.7,1.97-16.55,4.94l-4.75-4.97
	c-1.74-1.83-4.64-1.89-6.46-0.15l-4.31,4.11c-1.83,1.74-1.89,4.64-0.15,6.46l4.87,5.1c-3.23,5.03-5.17,10.99-5.31,17.41
	c-0.02,0.77,0,1.54,0.03,2.3l-6.98,1.95c-2.43,0.68-3.85,3.2-3.18,5.63l1.6,5.74c0.68,2.43,3.2,3.85,5.63,3.18l6.98-1.94
	c3.57,6.55,9.24,11.8,16.15,14.81l-1.39,7.25c-0.48,2.48,1.15,4.87,3.62,5.35l5.85,1.13c2.48,0.48,4.87-1.15,5.35-3.62l1.41-7.33
	c5.62-0.22,10.89-1.82,15.49-4.49l5.84,6.11c1.74,1.83,4.64,1.89,6.46,0.15l4.31-4.11c1.83-1.74,1.89-4.64,0.15-6.46l-5.71-5.98
	c3.51-5.18,5.63-11.39,5.78-18.11c0.02-0.72,0-1.44-0.03-2.15l6.97-1.94C161.13,116.2,162.55,113.68,161.87,111.25z M117.51,138.31
	c-9.43-0.22-16.89-8.03-16.68-17.46s8.03-16.89,17.46-16.68s16.89,8.03,16.68,17.46S126.94,138.53,117.51,138.31z"/>
</svg>
