<?xml version="1.0" encoding="utf-8"?>
<!-- Generator: Adobe Illustrator 27.4.1, SVG Export Plug-In . SVG Version: 6.00 Build 0)  -->
<svg version="1.1" id="Layer_1" xmlns="http://www.w3.org/2000/svg" xmlns:xlink="http://www.w3.org/1999/xlink" x="0px" y="0px"
	 viewBox="0 0 107.61 133.1" style="enable-background:new 0 0 107.61 133.1;" xml:space="preserve">
<style type="text/css">
	.st0{fill:#808080;}
	.st1{fill:#DBDBDB;stroke:#4C4C4C;stroke-width:3;stroke-miterlimit:10;}
	.st2{fill:none;stroke:#4C4C4C;stroke-width:5;stroke-miterlimit:10;}
</style>
<path class="st0" d="M85.51,2.5H6.92C4.48,2.5,2.5,4.48,2.5,6.92v119.26c0,2.44,1.98,4.42,4.42,4.42h93.78
	c2.44,0,4.42-1.98,4.42-4.42V22.11L85.51,2.5z"/>
<path class="st1" d="M85.51,22.11h19.36c0.09,0,0.13-0.11,0.07-0.17L85.68,2.67c-0.06-0.06-0.17-0.02-0.17,0.07V22.11z"/>
<path class="st2" d="M84.84,2.5H6.92C4.48,2.5,2.5,4.48,2.5,6.92v119.26c0,2.44,1.98,4.42,4.42,4.42h93.78
	c2.44,0,4.42-1.98,4.42-4.42V22.78c0-0.43-0.17-0.84-0.48-1.15L85.98,2.98C85.68,2.67,85.27,2.5,84.84,2.5z"/>
<line class="st1" x1="16.78" y1="64.56" x2="90.83" y2="64.56"/>
<line class="st1" x1="16.78" y1="50.35" x2="90.83" y2="50.35"/>
<line class="st1" x1="16.78" y1="107.18" x2="90.83" y2="107.18"/>
<line class="st1" x1="16.78" y1="92.97" x2="90.83" y2="92.97"/>
<line class="st1" x1="16.78" y1="78.77" x2="90.83" y2="78.77"/>
<line class="st1" x1="16.78" y1="36.15" x2="90.83" y2="36.15"/>
</svg>
