<?xml version="1.0" encoding="utf-8"?>
<!-- Generator: Adobe Illustrator 27.4.1, SVG Export Plug-In . SVG Version: 6.00 Build 0)  -->
<svg version="1.1" id="Layer_1" xmlns="http://www.w3.org/2000/svg" xmlns:xlink="http://www.w3.org/1999/xlink" x="0px" y="0px"
	 viewBox="0 0 126.77 133.1" style="enable-background:new 0 0 126.77 133.1;" xml:space="preserve">
<style type="text/css">
	.st0{fill:#808080;}
	.st1{fill:#DBDBDB;stroke:#4C4C4C;stroke-width:3;stroke-miterlimit:10;}
	.st2{fill:none;stroke:#4C4C4C;stroke-width:5;stroke-miterlimit:10;}
	.st3{fill:#DBDBDB;}
	.st4{fill:#424242;stroke:#424242;stroke-width:3;stroke-miterlimit:10;}
	.st5{fill:none;stroke:#4C4C4C;stroke-width:3;stroke-miterlimit:10;}
	.st6{fill:#C4C4C4;stroke:#424242;stroke-width:3;stroke-miterlimit:10;}
	.st7{fill:#808080;stroke:#424242;stroke-width:3;stroke-miterlimit:10;}
	.st8{fill:#999999;stroke:#3F3F3F;stroke-width:3;stroke-miterlimit:10;}
</style>
<path class="st0" d="M85.51,2.5H6.92C4.48,2.5,2.5,4.48,2.5,6.92v119.26c0,2.44,1.98,4.42,4.42,4.42h93.78
	c2.44,0,4.42-1.98,4.42-4.42V22.11L85.51,2.5z"/>
<path class="st1" d="M85.51,22.11h19.36c0.09,0,0.13-0.11,0.07-0.17L85.68,2.67c-0.06-0.06-0.17-0.02-0.17,0.07V22.11z"/>
<path class="st2" d="M84.84,2.5H6.92C4.48,2.5,2.5,4.48,2.5,6.92v119.26c0,2.44,1.98,4.42,4.42,4.42h93.78
	c2.44,0,4.42-1.98,4.42-4.42V22.78c0-0.43-0.17-0.84-0.48-1.15L85.98,2.98C85.68,2.67,85.27,2.5,84.84,2.5z"/>
<path class="st3" d="M120,108.18h-81.3c-2.91,0-5.27-2.36-5.27-5.27V44.15c0-2.91,2.36-5.27,5.27-5.27H120
	c2.91,0,5.27,2.36,5.27,5.27v58.76C125.27,105.82,122.91,108.18,120,108.18z"/>
<rect x="94.6" y="69.53" class="st4" width="2.06" height="38.65"/>
<path class="st5" d="M120,108.18h-81.3c-2.91,0-5.27-2.36-5.27-5.27V44.15c0-2.91,2.36-5.27,5.27-5.27H120
	c2.91,0,5.27,2.36,5.27,5.27v58.76C125.27,105.82,122.91,108.18,120,108.18z"/>
<ellipse transform="matrix(0.373 -0.9278 0.9278 0.373 -18.232 135.2694)" class="st6" cx="90.97" cy="81.12" rx="12.49" ry="5.58"/>
<ellipse transform="matrix(0.373 -0.9278 0.9278 0.373 -7.5002 118.6482)" class="st6" cx="84.04" cy="64.87" rx="5.58" ry="12.49"/>
<ellipse transform="matrix(0.373 -0.9278 0.9278 0.373 -1.6108 146.0012)" class="st6" cx="107.22" cy="74.19" rx="5.58" ry="12.49"/>
<ellipse transform="matrix(0.9198 -0.3923 0.3923 0.9198 -23.7326 45.9411)" class="st6" cx="100.53" cy="81.03" rx="5.58" ry="12.49"/>
<ellipse transform="matrix(0.9198 -0.3923 0.3923 0.9198 -22.378 38.5234)" class="st6" cx="83.06" cy="74.01" rx="12.49" ry="5.58"/>
<ellipse transform="matrix(0.373 -0.9278 0.9278 0.373 9.121 129.38)" class="st6" cx="100.29" cy="57.94" rx="12.49" ry="5.58"/>
<ellipse transform="matrix(0.9198 -0.3923 0.3923 0.9198 -15.1048 39.9778)" class="st6" cx="90.26" cy="56.94" rx="5.58" ry="12.49"/>
<ellipse transform="matrix(0.9198 -0.3923 0.3923 0.9198 -17.338 47.4491)" class="st6" cx="107.42" cy="66.14" rx="12.49" ry="5.58"/>
<circle class="st7" cx="95.63" cy="69.53" r="7.54"/>
<circle class="st8" cx="47.08" cy="52.82" r="7.06"/>
</svg>
